<?xml version="1.0" encoding="utf-8"?>
<!-- Generator: Adobe Illustrator 22.0.0, SVG Export Plug-In . SVG Version: 6.00 Build 0)  -->
<svg version="1.1" id="Layer_1" xmlns="http://www.w3.org/2000/svg" xmlns:xlink="http://www.w3.org/1999/xlink" x="0px" y="0px"
	 viewBox="0 0 512 512" style="enable-background:new 0 0 512 512;" xml:space="preserve">
<style type="text/css">
	.st0{fill:#D4E1F4;}
	.st1{fill:#0635C9;}
	.st2{fill:#1AE5BE;}
</style>
<path class="st0" d="M119.1,472.5c-35.5-26-53.4-58.8-53.4-97.5v-78.5c35.2-15.4,68.7-34.4,100-56.6c-7.5-5-15-10.2-22.3-15.6
	c-33.5,24.7-69.6,45.6-107.8,62.2V365c0,38.7,18,71.5,53.4,97.5c16,11.6,33.7,20.8,52.4,27.2c0.9-0.3,2.1-0.7,3.6-1.2
	C136,483.9,127.3,478.5,119.1,472.5L119.1,472.5z"/>
<g>
	<path class="st1" d="M463.5,32.6H337.3c-9.6-19.9-33.4-28.3-53.3-18.7c-8.2,3.9-14.8,10.5-18.7,18.7H139.1
		c-13.7,0-24.8,11.1-24.9,24.9V235h12V57.5c0-7.1,5.8-12.9,12.9-12.9h122.6c-0.2,1.8-0.4,3.5-0.4,5.3v11h-56.2c-3.3,0-6,2.7-6,6
		v17.7h-25.7c-8.5,0-15.4,6.9-15.4,15.4v132.9h12V100c0-1.9,1.5-3.4,3.4-3.4h25.7v15.6c0,3.3,2.7,6,6,6l0,0h192.4c3.3,0,6-2.7,6-6
		l0,0V96.6h25.7c1.9,0,3.4,1.5,3.4,3.4v256.5h-30.1c-13.7,0-24.8,11.1-24.9,24.9v29.3H243.3v12H380c0.8,0,1.5-0.1,2.3-0.2
		c2.1,0.5,4.4-0.2,5.9-1.9c1.5-0.8,2.9-1.8,4.1-3.1l47.3-47.3c3.3-3.2,5.1-7.6,5.1-12.2V100c0-8.5-6.9-15.4-15.4-15.4h-25.7V66.9
		c0-3.3-2.7-6-6-6h-56.2V50c0-1.8-0.1-3.6-0.4-5.3h122.6c7.1,0,12.9,5.8,12.9,12.9v392.3c0,7.1-5.8,12.9-12.9,12.9H196.8v12h266.7
		c13.7,0,24.8-11.1,24.9-24.9V57.5C488.3,43.8,477.2,32.6,463.5,32.6L463.5,32.6z M389.6,403.3v-21.9c0-7.1,5.8-12.9,12.9-12.9h21.9
		L389.6,403.3z M391.5,72.9v33.3H211.1V72.9h56.2c3.3,0,6-2.7,6-6V50c-0.1-15.4,12.3-28.1,27.7-28.2c15.4-0.1,28.1,12.3,28.2,27.7
		c0,0.2,0,0.3,0,0.5v17c0,3.3,2.7,6,6,6H391.5z"/>
	<path class="st1" d="M397.5,177.8c3.3,0,6-2.7,6-6s-2.7-6-6-6h-7.1c-3.3,0-6,2.7-6,6s2.7,6,6,6H397.5z"/>
	<path class="st1" d="M368.3,165.8h-93.9c-3.3,0-6,2.7-6,6s2.7,6,6,6h93.9c3.3,0,6-2.7,6-6S371.6,165.8,368.3,165.8L368.3,165.8z"/>
	<path class="st1" d="M205.1,177.8h36.7c3.3,0,6-2.7,6-6s-2.7-6-6-6h-36.7c-3.3,0-6,2.7-6,6S201.8,177.8,205.1,177.8z"/>
	<path class="st1" d="M371.6,222.6c0,3.3,2.7,6,6,6h19.9c3.3,0,6-2.7,6-6s-2.7-6-6-6h-19.9C374.3,216.6,371.6,219.3,371.6,222.6z"/>
	<path class="st1" d="M356.1,228.6c3.3,0,6-2.7,6-6s-2.7-6-6-6H329c-3.3,0-6,2.7-6,6s2.7,6,6,6H356.1z"/>
	<path class="st1" d="M205.1,228.6h100c3.3,0,6-2.7,6-6s-2.7-6-6-6h-100c-3.3,0-6,2.7-6,6S201.8,228.6,205.1,228.6z"/>
	<path class="st1" d="M397.5,270.6h-42.2c-3.3,0-6,2.7-6,6s2.7,6,6,6h42.2c3.3,0,6-2.7,6-6S400.8,270.6,397.5,270.6z"/>
	<path class="st1" d="M273.7,276.6c0,3.3,2.7,6,6,6h54c3.3,0,6-2.7,6-6s-2.7-6-6-6h-54C276.4,270.6,273.7,273.3,273.7,276.6z"/>
	<path class="st1" d="M278.4,332.6h119.1c3.3,0,6-2.7,6-6s-2.7-6-6-6H278.4c-3.3,0-6,2.7-6,6S275,332.6,278.4,332.6z"/>
</g>
<path class="st2" d="M263.2,365v-82.4c0-2.4-1.4-4.6-3.6-5.5l-0.7-0.3c-39.7-17.1-77.2-38.8-111.8-64.7c-2.1-1.6-5.1-1.6-7.2,0
	C105.2,238,67.7,259.7,28,276.8l-0.7,0.3c-2.2,0.9-3.6,3.1-3.6,5.5v82.4c0,42.2,20.2,79.2,58.4,107.2c17.6,12.8,37.1,22.8,57.8,29.5
	c1.1,0.3,2.2,0.3,3.3,0c21.3-6.7,41.4-16.6,59.7-29.5C242.3,444.3,263.2,407.3,263.2,365L263.2,365z M141.5,489.7
	c-18.7-6.4-36.4-15.6-52.4-27.2c-35.5-26-53.4-58.8-53.4-97.5v-78.5c38.1-16.7,74.3-37.5,107.8-62.2c33.5,24.7,69.6,45.6,107.8,62.2
	V365c0,38.6-18.5,71.3-55.1,97.2C179.3,474,160.9,483.3,141.5,489.7z"/>
<path class="st2" d="M188.6,322.5l-60.1,55l-30-32.5c-2.2-2.5-6-2.7-8.5-0.5c-2.5,2.2-2.7,6-0.5,8.5c0,0,0.1,0.1,0.1,0.1l34,36.9
	c2.2,2.4,6,2.6,8.5,0.4l64.5-59.1c2.4-2.3,2.5-6.1,0.2-8.5C194.7,320.5,191,320.4,188.6,322.5L188.6,322.5z"/>
</svg>
