<?xml version="1.0" encoding="utf-8"?>
<!-- Generator: Adobe Illustrator 22.0.0, SVG Export Plug-In . SVG Version: 6.00 Build 0)  -->
<svg version="1.1" id="Layer_1" xmlns="http://www.w3.org/2000/svg" xmlns:xlink="http://www.w3.org/1999/xlink" x="0px" y="0px"
	 viewBox="0 0 436 436" style="enable-background:new 0 0 436 436;" xml:space="preserve">
<style type="text/css">
	.st4{fill:#D4E1F4;}
	.st5{fill:#0635C9;}
	.st6{fill:#1AE5BE;}
</style>
<g>
	<path class="st4" d="M261.8,54.8l25.1-25.1l46.4,46.4l-56.4-56.4l-25.1,25.1l31.3,31.3L261.8,54.8z"/>
	<path class="st4" d="M211.8,21.8l-54.3,54.3h20l44.3-44.3L211.8,21.8z"/>
	<path class="st4" d="M298.3,88.1h-0.2H298.3L298.3,88.1z"/>
	<path class="st4" d="M165.4,88.1h-0.2H165.4L165.4,88.1z"/>
	<path class="st4" d="M79.7,122.1c0-18.8,15.2-34,34-34h-20c-18.8,0-34,15.2-34,34V234c6.8-4.2,13.4-8.5,20-13.1V122.1z"/>
	<path class="st4" d="M211.9,268.6c0-2.4-1.4-4.6-3.6-5.5l-0.6-0.3c-31.3-13.5-60.9-30.6-88.1-51c-2.1-1.6-5.1-1.6-7.2,0
		c-2.1,1.6-4.3,3.1-6.4,4.7c25.5,18.4,52.9,33.9,81.7,46.3l0.6,0.3c2.2,0.9,3.6,3.1,3.6,5.5v52.2c0.1,13.4-2.7,26.6-8.1,38.9h20
		c5.4-12.2,8.2-25.5,8.1-38.9V268.6z"/>
	<path class="st4" d="M340.8,186.3c-11.7,0-22.8,5.5-29.9,14.8c-7.1,9.3-9.5,21.5-6.3,32.8c4.5-16.3,19.3-27.6,36.3-27.6H424v-20
		L340.8,186.3z"/>
</g>
<path class="st5" d="M430,174.3h-10.5v-52.2c0-25.4-20.6-45.9-46-46h-23.2L281.1,7c-2.3-2.3-6.1-2.3-8.5,0l-29.3,29.3L216,9.1
	c-2.3-2.3-6.1-2.3-8.5,0l-67.1,67.1H93.7c-25.4,0-45.9,20.6-46,46v122.5h12V122.1c0-18.8,15.2-34,34-34h51.6l0.1,0.1l0.1-0.1h132.7
	l0.1,0.1l0.1-0.1h95.2c18.8,0,34,15.2,34,34v52.2h-66.7c-27.3,0.1-49.4,22.3-49.4,49.6c0,27.3,22.1,49.5,49.4,49.6h66.7v52.1
	c0,18.8-15.2,34-34,34H174.1v12h199.4c25.4,0,45.9-20.6,46-46v-52.1H430c3.3,0,6-2.7,6-6v-87.2C436,176.9,433.3,174.3,430,174.3z
	 M276.9,19.8l56.4,56.4h-50.2l-31.3-31.3L276.9,19.8z M157.5,76.1l54.3-54.3l54.3,54.3H157.5z M424,261.5h-83.2
	c-20.7-0.1-37.4-16.9-37.4-37.6s16.7-37.5,37.4-37.6H424V261.5z"/>
<path class="st5" d="M320.1,223.9c0,12.3,10,22.3,22.4,22.3c12.3,0,22.3-10,22.3-22.4c0-12.3-10-22.3-22.3-22.3
	C330.1,201.5,320.1,211.5,320.1,223.9z M342.4,213.5c5.7,0,10.4,4.6,10.4,10.4c0,5.7-4.6,10.4-10.4,10.4c-5.7,0-10.4-4.6-10.4-10.4
	C332.1,218.2,336.7,213.5,342.4,213.5z"/>
<path class="st6" d="M188.3,263.1l-0.6-0.3c-31.3-13.5-60.9-30.6-88.1-51c-2.1-1.6-5.1-1.6-7.2,0c-27.3,20.4-56.8,37.6-88.1,51
	l-0.6,0.3C1.4,264,0,266.2,0,268.6v52.2c0,33.8,16.1,63.4,46.6,85.7c14,10.2,29.6,18.2,46.1,23.5c0.5,0.2,1.1,0.2,1.7,0.2
	c0.6,0,1.1-0.1,1.6-0.2c17-5.3,33-13.3,47.6-23.5c31.6-22.3,48.3-52,48.3-85.8v-52.2C191.9,266.2,190.5,264,188.3,263.1z
	 M179.9,320.7c0,22.6-8.2,42.6-24.3,59.8c-0.3-3.2-3-5.6-6.2-5.5c-3.2,0.1-5.7,2.7-5.8,5.9v5.5c0,1.4,0.5,2.8,1.4,3.9
	c-2.5,2.1-5.2,4.2-8.1,6.2c-13.1,9.2-27.4,16.4-42.5,21.4c-14.6-5.1-28.4-12.3-41-21.4c-2.5-1.8-4.9-3.7-7.2-5.6
	c1.3-1.1,2-2.8,2-4.5V381c0-3.3-2.7-6-6-6c-3.3,0-6,2.7-6,6v0.5C20.2,364.1,12,343.8,12,320.8v-48.2c29.7-13,57.8-29.3,83.9-48.5
	c26.1,19.2,54.3,35.4,83.9,48.5V320.7z"/>
<path class="st6" d="M125.7,381v5.5c0,3.3,2.7,6,6,6c3.3,0,6-2.7,6-6V381c0-3.3-2.7-6-6-6C128.4,375,125.7,377.7,125.7,381z"/>
<path class="st6" d="M72.1,313.7c-2.4-2.3-6.1-2.2-8.4,0.1c-2.3,2.3-2.3,6.1-0.1,8.4L84,342.6c2.3,2.3,6.1,2.3,8.5,0l35.8-35.8
	c2.3-2.3,2.3-6.1,0-8.5c-2.3-2.3-6.1-2.3-8.5,0l-31.6,31.6L72.1,313.7z"/>
</svg>
