<?xml version="1.0" encoding="utf-8"?>
<!-- Generator: Adobe Illustrator 22.0.0, SVG Export Plug-In . SVG Version: 6.00 Build 0)  -->
<svg version="1.1" id="Layer_1" xmlns="http://www.w3.org/2000/svg" xmlns:xlink="http://www.w3.org/1999/xlink" x="0px" y="0px"
	 viewBox="0 0 512 512" style="enable-background:new 0 0 512 512;" xml:space="preserve">
<style type="text/css">
	.st10{fill:#D4E1F4;}
	.st11{fill:#1AE5BE;}
	.st12{fill:#0635C9;}
</style>
<path class="st10" d="M339.6,481.7c-1.2,0-2.4,0-3.4-0.1c-23.8-1.5-46.2-11-63-19c-46.9-22.8-88.4-55.3-121.8-95.4
	c-28.1-33.9-47-65.3-59.4-98.8c-7.4-19.8-10.2-35.1-9-49.6c0.5-7.8,3.9-15.2,9.6-20.6l1.3-1.3l-5-5l-16.3,16.3
	c-5.7,5.4-9.1,12.8-9.6,20.6c-1.2,14.5,1.6,29.8,9,49.6c12.4,33.6,31.3,65,59.4,98.8c33.3,40.1,74.9,72.6,121.8,95.4
	c16.8,8,39.2,17.5,63,19c1,0.1,2.3,0.1,3.4,0.1c10.7,0,18.7-3.2,25.7-10.3C343.4,481.6,341.5,481.7,339.6,481.7z"/>
<path class="st11" d="M246.1,267.7l-12.5,46.2c-1,3.7,1.2,7.6,4.9,8.6c2,0.5,4.1,0.2,5.8-1l49.1-34.4c9.5,1.9,19.1,2.9,28.8,2.9
	c78.1,0,141.7-63.6,141.7-141.7S400.4,6.6,322.3,6.6S180.6,70.1,180.6,148.2C180.6,196.6,205.3,241.7,246.1,267.7L246.1,267.7z
	 M322.3,20.6c70.5,0.1,127.6,57.3,127.5,127.8S392.5,276,322,275.9c-9.6,0-19.1-1.1-28.4-3.2c-1.9-0.4-4,0-5.6,1.1l-35.8,25.1
	l8.8-32.6c0.8-3-0.5-6.3-3.2-7.9c-60.8-35.7-81.3-113.9-45.6-174.7C235,44.6,276.9,20.6,322.3,20.6L322.3,20.6z"/>
<path class="st11" d="M243.6,197.6l75.1,43.3c2.2,1.3,4.9,1.3,7.1,0l74.9-43.3c2.1-1.3,3.4-3.6,3.4-6.1v-86.6
	c0.1-2.5-1.2-4.8-3.4-6.1l-74.9-43.3c-2.2-1.3-4.8-1.3-7,0l-75.1,43.3c-2.2,1.2-3.6,3.5-3.6,6.1v86.6
	C240.1,194.1,241.4,196.4,243.6,197.6z M254,117.1l61,35.2v70.4l-61-35.2V117.1z M322.3,140.2l-24.2-14L359,91l24.2,14L322.3,140.2z
	 M329,222.7v-70.4l61-35.2v70.4L329,222.7z M322.3,69.7L345,82.9l-61,35.2l-22.8-13.1L322.3,69.7z"/>
<path class="st12" d="M120,385.9c34.6,41.6,77.7,75.4,126.5,99c18,8.6,42,18.7,68.1,20.3c1.5,0.1,3,0.1,4.3,0.1
	c14.9,0,26.9-5.1,36.7-15.6c0.1-0.1,0.2-0.2,0.2-0.3c5-5.7,10.2-11.2,15.8-16.3l1.9-1.9c3-2.9,5.8-5.6,8.6-8.6
	c11.2-11.7,11.1-24.8-0.2-36.1l-46.3-46.3l-0.1-0.1c-2.9-3.2-8.9-8.3-17.2-8.3c-6.1,0-12.2,2.9-17.6,8.4l-28.8,28.8
	c-1.1,1.1-3.8,3.8-7.8,3.8c-1.8,0-3.5-0.5-5.1-1.3l0,0c-0.2-0.1-0.5-0.3-0.7-0.4c-2.7-1.6-5.6-3.1-8.7-4.7c-3.3-1.6-6.6-3.4-9.7-5.3
	c-26.3-16.7-50.2-38.4-73-66.4c-0.1-0.1-0.1-0.2-0.2-0.3c-12.3-15.6-20.3-28.7-25.9-42.2l-0.2-0.5c-1.4-4.5-1.4-7.9,2.7-12
	c0.1-0.1,0.1-0.1,0.2-0.2l0,0c7.2-6.5,13.7-13,21.3-20.7c1.7-1.6,3.3-3.3,4.9-4.8c0.8-0.8,1.6-1.6,2.4-2.4c11.6-11.6,11.6-24.4,0-36
	l-22.9-22.9c-1.3-1.4-2.7-2.7-4-4.1c-1.3-1.4-2.7-2.7-4-4c-5.6-5.8-10.3-10.6-15.3-15.2l-0.2-0.2c-5.2-5.2-11.2-7.9-17.2-7.9
	c-6,0-12.1,2.7-17.6,7.9c-0.1,0.1-0.1,0.1-0.2,0.2L62,198c-8,7.8-12.8,18.2-13.6,29.4C47,244,50,261.2,58.2,283
	C71.2,318.1,90.8,350.8,120,385.9z M318.3,386c3.1,0,5.9,2.7,6.9,3.9c0.1,0.1,0.2,0.2,0.3,0.3l46.5,46.5c5.8,5.8,5.9,10.2,0.2,16.2
	c-0.3,0.2-0.5,0.5-0.7,0.8c-0.2,0.3-0.5,0.5-0.8,0.8l-62.2-62.2l2-2C312.2,388.7,315.3,386,318.3,386z M108.4,175.3
	c2.9,0,5.6,2.1,7.3,3.8l0.3,0.3c0.1,0.1,0.1,0.1,0.2,0.2c4.8,4.5,9.4,9.2,14.9,14.8c1.3,1.4,2.7,2.7,4,4.1c1.3,1.3,2.6,2.7,4,4
	c0,0,0.1,0.1,0.1,0.1l23,23c6.2,6.2,6.2,10,0,16.2c-0.7,0.7-1.3,1.3-2,2l-62-62l2.4-2.4C103.3,176.7,106.1,175.3,108.4,175.3z
	 M62.3,228.6c0.5-7.8,3.9-15.2,9.6-20.6l16.3-16.3l62,62c-5.6,5.6-10.7,10.6-16.2,15.6l0,0c-0.4,0.3-0.7,0.6-1,1
	c-10.5,10.8-6.9,22.1-5.8,25.8c0,0,0,0.1,0,0.1l0.3,0.8c0.1,0.2,0.1,0.3,0.2,0.5c6.2,14.9,14.8,29.1,28.1,46
	c0.1,0.1,0.2,0.3,0.3,0.4c23.7,29.1,48.6,51.8,76.2,69.2c3.5,2.2,7.2,4.2,11,6c2.9,1.4,5.6,2.8,7.8,4.1c0.1,0.1,0.3,0.2,0.4,0.2
	l0.1,0c0.4,0.2,0.7,0.4,1.1,0.6c3.5,1.8,7.5,2.8,11.5,2.8c6.6,0,12.5-2.6,17.7-7.9l16.9-16.9l62.1,62.1
	c-5.4,5.1-10.6,10.5-15.5,16.1c-7.2,7.6-15.3,11-26.4,11c-1.2,0-2.4,0-3.4-0.1c-23.8-1.5-46.2-11-63-19
	c-46.9-22.8-88.4-55.3-121.8-95.4c-28.1-33.9-47-65.3-59.4-98.8C63.9,258.3,61.1,243,62.3,228.6z"/>
</svg>
