<svg xmlns="http://www.w3.org/2000/svg" width="41" height="42" viewBox="0 0 41 42">
  <metadata><?xpacket begin="﻿" id="W5M0MpCehiHzreSzNTczkc9d"?>
<x:xmpmeta xmlns:x="adobe:ns:meta/" x:xmptk="Adobe XMP Core 5.6-c142 79.160924, 2017/07/13-01:06:39        ">
   <rdf:RDF xmlns:rdf="http://www.w3.org/1999/02/22-rdf-syntax-ns#">
      <rdf:Description rdf:about=""/>
   </rdf:RDF>
</x:xmpmeta>
                                                                                                    
                                                                                                    
                                                                                                    
                                                                                                    
                                                                                                    
                                                                                                    
                                                                                                    
                                                                                                    
                                                                                                    
                                                                                                    
                                                                                                    
                                                                                                    
                                                                                                    
                                                                                                    
                                                                                                    
                                                                                                    
                                                                                                    
                                                                                                    
                                                                                                    
                                                                                                    
                           
<?xpacket end="w"?></metadata>
<defs>
    <style>
      .cls-1 {
        fill: #0075ff;
        fill-rule: evenodd;
      }
    </style>
  </defs>
  <path id="Shape_40_copy_2" data-name="Shape 40 copy 2" class="cls-1" d="M1324.47,994.9a10.965,10.965,0,1,0-19.57,6.8c1.94,2.45,7.56,8.23,7.79,8.47l0.82,0.84,0.81-.84c0.24-.24,5.85-6.03,7.79-8.47A10.886,10.886,0,0,0,1324.47,994.9Zm-10.96,12.852c-1.66-1.72-5.39-5.64-6.83-7.46a8.576,8.576,0,0,1-1.88-5.392,8.705,8.705,0,1,1,17.41,0,8.578,8.578,0,0,1-1.88,5.392C1318.89,1002.11,1315.16,1006.03,1313.51,1007.75Zm13.24-28.72v-5h-2.26v3.279l-10.98-8.324L1293,984.533l1.37,1.808,1.68-1.275v22.064h9.75v-2.27h-7.49V983.349l15.2-11.515,15.19,11.515v21.511h-7.49v2.27h9.75V985.066l1.68,1.275,1.37-1.808Zm-13.24,9.08a6.67,6.67,0,1,0,6.66,6.671A6.676,6.676,0,0,0,1313.51,988.11Zm0,11.075a4.4,4.4,0,1,1,4.4-4.4A4.4,4.4,0,0,1,1313.51,999.185Z" transform="translate(-1293 -969)"/>
</svg>
