<?xml version="1.0" encoding="utf-8"?>
<!-- Generator: Adobe Illustrator 21.1.0, SVG Export Plug-In . SVG Version: 6.00 Build 0)  -->
<svg version="1.1" id="Layer_1" xmlns="http://www.w3.org/2000/svg" xmlns:xlink="http://www.w3.org/1999/xlink" x="0px" y="0px"
	 viewBox="0 0 161 153" style="enable-background:new 0 0 161 153;" xml:space="preserve">
<style type="text/css">
	.st0{fill:#EFF8FF;}
	.st1{fill:#B3CDFF;}
	.st2{fill:#FFFFFF;}
	.st3{fill:#0C60FF;}
	.st4{fill:#F2F7FA;}
	.st5{fill:#8FB5FF;}
	.st6{opacity:0.5;fill:#B3CDFF;}
	.st7{fill:#BFD1DF;}
	.st8{fill:#E18C44;}
</style>
<g>
	<circle class="st0" cx="86.9" cy="84.7" r="61.5"/>
	<path class="st1" d="M137.3,122.7H33V55c0-4.6,3.7-8.3,8.3-8.3h87.6c4.6,0,8.3,3.7,8.3,8.3V122.7z"/>
	<path class="st2" d="M128.9,46.6H41.3c-4.6,0-8.3,3.7-8.3,8.3v0.7c0-4.6,3.7-8.3,8.3-8.3h87.6c4.6,0,8.3,3.7,8.3,8.3V55
		C137.3,50.4,133.5,46.6,128.9,46.6z"/>
	<g>
		<path class="st3" d="M137.3,123.1H33c-0.2,0-0.4-0.2-0.4-0.4V55c0-4.8,3.9-8.7,8.7-8.7c0.2,0,0.4,0.2,0.4,0.4
			c0,0.2-0.2,0.4-0.4,0.4c-4.4,0-8,3.6-8,8v67.4h103.5V55c0-4.4-3.6-8-8-8H45.1c-0.2,0-0.4-0.2-0.4-0.4c0-0.2,0.2-0.4,0.4-0.4h83.9
			c4.8,0,8.7,3.9,8.7,8.7v67.8C137.6,122.9,137.5,123.1,137.3,123.1z"/>
	</g>
	<path class="st2" d="M37.6,118.7V55.1c0-2.3,1.9-4.2,4.2-4.2h87.6c2.3,0,4.2,1.9,4.2,4.2v63.6H37.6z"/>
	<path class="st4" d="M128.9,50.8H41.3c-2.3,0-4.2,1.9-4.2,4.2v0.7c0-2.3,1.9-4.2,4.2-4.2h87.6c2.3,0,4.2,1.9,4.2,4.2V55
		C133.1,52.7,131.2,50.8,128.9,50.8z"/>
	<g>
		<path class="st3" d="M133.1,118.9H37.2c-0.2,0-0.4-0.2-0.4-0.4V55c0-2.5,2-4.5,4.5-4.5h87.6c2.5,0,4.5,2,4.5,4.5v63.6
			C133.5,118.8,133.3,118.9,133.1,118.9z M37.5,118.2h95.2V55c0-2.1-1.7-3.8-3.8-3.8H41.3c-2.1,0-3.8,1.7-3.8,3.8V118.2z"/>
	</g>
	<path class="st1" d="M142.1,129H28.2c-3.4,0-6.2-2.8-6.2-6.2v-0.1h126.3v0.1C148.3,126.3,145.5,129,142.1,129z"/>
	<path class="st5" d="M142.1,127.6H28.2c-2.9,0-5.4-2-6-4.8H22v0.1c0,3.4,2.8,6.2,6.2,6.2h113.9c3.4,0,6.2-2.8,6.2-6.2v-0.1h-0.2
		C147.5,125.5,145,127.6,142.1,127.6z"/>
	<path class="st2" d="M22,122.8L22,122.8c0,0.3,0,0.5,0,0.7h126.2c0-0.2,0-0.5,0-0.7v-0.1H22z"/>
	<g>
		<path class="st3" d="M142.1,129.4H28.2c-3.6,0-6.6-2.9-6.6-6.6c0-0.2,0.2-0.4,0.4-0.4h126.3c0.2,0,0.4,0.2,0.4,0.4
			C148.7,126.5,145.7,129.4,142.1,129.4z M22.4,123.2c0.2,3.1,2.7,5.5,5.8,5.5h113.9c3.1,0,5.6-2.4,5.8-5.5H22.4z"/>
	</g>
	<g>
		<path class="st4" d="M94.7,125.4H75.6c-1.4,0-2.5-1.1-2.5-2.5v0h24.2v0C97.2,124.2,96.1,125.4,94.7,125.4z"/>
		<path class="st3" d="M94.7,125.7H75.6c-1.6,0-2.9-1.3-2.9-2.9c0-0.2,0.2-0.4,0.4-0.4h24.2c0.2,0,0.4,0.2,0.4,0.4
			C97.6,124.4,96.3,125.7,94.7,125.7z M73.4,123.2c0.2,1,1.1,1.8,2.1,1.8h19.1c1.1,0,2-0.8,2.1-1.8H73.4z"/>
	</g>
	<g>
		<path class="st3" d="M152.6,129.4h-135c-0.2,0-0.4-0.2-0.4-0.4c0-0.2,0.2-0.4,0.4-0.4h135c0.2,0,0.4,0.2,0.4,0.4
			C153,129.3,152.8,129.4,152.6,129.4z"/>
	</g>
	<circle class="st6" cx="134.1" cy="51.9" r="11.5"/>
	<circle class="st1" cx="135.6" cy="50.4" r="11.5"/>
	<path class="st2" d="M135.6,39.6c6.2,0,11.3,5,11.5,11.1c0-0.1,0-0.2,0-0.4c0-6.4-5.1-11.5-11.5-11.5c-6.4,0-11.5,5.2-11.5,11.5
		c0,0.1,0,0.2,0,0.4C124.3,44.6,129.4,39.6,135.6,39.6z"/>
	<g>
		<path class="st3" d="M135.6,62.3c-6.5,0-11.9-5.3-11.9-11.9c0-6.5,5.3-11.9,11.9-11.9c6.5,0,11.9,5.3,11.9,11.9
			C147.5,56.9,142.1,62.3,135.6,62.3z M135.6,39.3c-6.1,0-11.1,5-11.1,11.1c0,6.1,5,11.1,11.1,11.1s11.1-5,11.1-11.1
			C146.7,44.3,141.7,39.3,135.6,39.3z"/>
	</g>
	<circle class="st3" cx="41.6" cy="54.8" r="0.7"/>
	<circle class="st3" cx="43.8" cy="54.8" r="0.7"/>
	<circle class="st3" cx="46" cy="54.8" r="0.7"/>
	<g>
		<circle class="st4" cx="85.1" cy="48.8" r="0.9"/>
		<path class="st3" d="M85.1,50.1c-0.7,0-1.3-0.6-1.3-1.3c0-0.7,0.6-1.3,1.3-1.3c0.7,0,1.3,0.6,1.3,1.3
			C86.4,49.5,85.8,50.1,85.1,50.1z M85.1,48.2c-0.3,0-0.5,0.2-0.5,0.5c0,0.3,0.2,0.5,0.5,0.5c0.3,0,0.5-0.2,0.5-0.5
			C85.7,48.5,85.4,48.2,85.1,48.2z"/>
	</g>
	<g>
		<path class="st3" d="M115.4,31.2c-0.2,0-0.4-0.2-0.4-0.4c0-0.5-0.1-0.9-0.3-1.4c-0.2-0.4-0.4-0.8-0.8-1.1
			c-0.3-0.3-0.7-0.6-1.1-0.8c-0.4-0.2-0.9-0.3-1.4-0.3c-0.2,0-0.4-0.2-0.4-0.4c0-0.2,0.2-0.4,0.4-0.4c0.5,0,0.9-0.1,1.4-0.3
			c0.4-0.2,0.8-0.4,1.1-0.8c0.3-0.3,0.6-0.7,0.8-1.1c0.2-0.4,0.3-0.9,0.3-1.4c0-0.2,0.2-0.4,0.4-0.4c0.2,0,0.4,0.2,0.4,0.4
			c0,0.5,0.1,0.9,0.3,1.4c0.2,0.4,0.4,0.8,0.8,1.1c0.3,0.3,0.7,0.6,1.1,0.8c0.4,0.2,0.9,0.3,1.4,0.3c0.2,0,0.4,0.2,0.4,0.4
			c0,0.2-0.2,0.4-0.4,0.4c-0.5,0-0.9,0.1-1.4,0.3c-0.4,0.2-0.8,0.4-1.1,0.8c-0.3,0.3-0.6,0.7-0.8,1.1c-0.2,0.4-0.3,0.9-0.3,1.4
			C115.8,31.1,115.6,31.2,115.4,31.2z M113.3,26.9c0.5,0.2,0.9,0.5,1.3,0.9c0.4,0.4,0.7,0.8,0.9,1.3c0.2-0.5,0.5-0.9,0.9-1.3
			c0.4-0.4,0.8-0.7,1.3-0.9c-0.5-0.2-0.9-0.5-1.3-0.9c-0.4-0.4-0.7-0.8-0.9-1.3c-0.2,0.5-0.5,0.9-0.9,1.3
			C114.2,26.4,113.7,26.7,113.3,26.9z"/>
	</g>
	<g>
		<path class="st3" d="M132.1,32.5C132.1,32.5,132.1,32.5,132.1,32.5l0-0.4L132.1,32.5C132.1,32.5,132.1,32.5,132.1,32.5z
			 M132.1,32.5c-0.3,0-0.6,0-0.8-0.1l0.2-0.7c0.2,0.1,0.4,0.1,0.6,0.1L132.1,32.5z M132.9,32.4l-0.2-0.7c0.2-0.1,0.4-0.1,0.6-0.2
			l0.4,0.6C133.4,32.2,133.1,32.3,132.9,32.4z M130.5,32.1c-0.2-0.1-0.5-0.3-0.7-0.5l0.5-0.5c0.1,0.1,0.3,0.3,0.5,0.4L130.5,32.1z
			 M134.3,31.6l-0.5-0.5c0.1-0.1,0.3-0.3,0.4-0.5l0.6,0.4C134.6,31.2,134.5,31.4,134.3,31.6z M129.3,31c-0.1-0.2-0.2-0.5-0.3-0.8
			l0.7-0.2c0.1,0.2,0.1,0.4,0.2,0.6L129.3,31z M135.1,30.2l-0.7-0.2c0.1-0.2,0.1-0.4,0.1-0.6l0.7,0v0
			C135.2,29.7,135.2,29.9,135.1,30.2z M128.9,29.4L128.9,29.4c0-0.3,0-0.6,0.1-0.8l0.7,0.2c-0.1,0.2-0.1,0.4-0.1,0.6L128.9,29.4z
			 M134.4,28.7c-0.1-0.2-0.1-0.4-0.2-0.6l0.6-0.4c0.1,0.2,0.2,0.5,0.3,0.8L134.4,28.7z M130,28.2l-0.6-0.4c0.1-0.2,0.3-0.5,0.5-0.7
			l0.5,0.5C130.2,27.8,130.1,28,130,28.2z M133.7,27.7c-0.1-0.1-0.3-0.3-0.5-0.4l0.4-0.6c0.2,0.1,0.5,0.3,0.7,0.5L133.7,27.7z
			 M130.8,27.3l-0.4-0.6c0.2-0.1,0.5-0.2,0.8-0.3l0.2,0.7C131.2,27.1,131,27.2,130.8,27.3z M132.7,27.1c-0.2-0.1-0.4-0.1-0.6-0.1
			l0-0.7h0c0.3,0,0.5,0,0.8,0.1L132.7,27.1z"/>
	</g>
	<rect x="58.8" y="113.9" class="st6" width="52.8" height="2.5"/>
	<g>
		<path class="st4" d="M111.5,113.9H58.8v0c0-1.2,1-2.2,2.2-2.2h48.3C110.5,111.7,111.5,112.7,111.5,113.9L111.5,113.9z"/>
		<path class="st3" d="M111.5,114.3H58.8c-0.2,0-0.4-0.2-0.4-0.4c0-1.4,1.2-2.6,2.6-2.6h48.3c1.4,0,2.6,1.2,2.6,2.6
			C111.9,114.1,111.7,114.3,111.5,114.3z M59.2,113.6h51.9c-0.2-0.8-0.9-1.5-1.8-1.5H61C60.1,112.1,59.3,112.7,59.2,113.6z"/>
	</g>
	<g>
		<g>
			<g>
				<g>
					<path class="st7" d="M66.5,111.9c-0.1,0-0.2-0.1-0.2-0.2V85.1c0-0.1,0.1-0.2,0.2-0.2s0.2,0.1,0.2,0.2v26.6
						C66.7,111.8,66.6,111.9,66.5,111.9z"/>
				</g>
				<g>
					<path class="st7" d="M65.1,111.9c-0.1,0-0.2-0.1-0.2-0.2V85.1c0-0.1,0.1-0.2,0.2-0.2c0.1,0,0.2,0.1,0.2,0.2v26.6
						C65.3,111.8,65.2,111.9,65.1,111.9z"/>
				</g>
				<g>
					<path class="st7" d="M63.8,111.9c-0.1,0-0.2-0.1-0.2-0.2V85.1c0-0.1,0.1-0.2,0.2-0.2c0.1,0,0.2,0.1,0.2,0.2v26.6
						C64,111.8,63.9,111.9,63.8,111.9z"/>
				</g>
				<g>
					<path class="st3" d="M67.8,112h-5.4c-0.2,0-0.4-0.2-0.4-0.4V85.1c0-0.2,0.2-0.4,0.4-0.4h5.4c0.2,0,0.4,0.2,0.4,0.4v26.6
						C68.2,111.9,68,112,67.8,112z M62.8,111.3h4.6V85.5h-4.6V111.3z"/>
				</g>
				<g>
					<path class="st4" d="M67.8,83.6h-5.4c-0.8,0-1.5,0.7-1.5,1.5s0.7,1.5,1.5,1.5s1.5-0.7,1.5-1.5h2.4c0,0.8,0.7,1.5,1.5,1.5
						c0.8,0,1.5-0.7,1.5-1.5S68.7,83.6,67.8,83.6z"/>
					<path class="st3" d="M67.8,87c-0.9,0-1.7-0.6-1.8-1.5h-1.7c-0.2,0.9-0.9,1.5-1.8,1.5c-1,0-1.9-0.8-1.9-1.9s0.8-1.9,1.9-1.9h5.4
						c1,0,1.9,0.8,1.9,1.9S68.9,87,67.8,87z M63.9,84.7h2.4c0.2,0,0.4,0.2,0.4,0.4c0,0.6,0.5,1.1,1.1,1.1c0.6,0,1.1-0.5,1.1-1.1
						c0-0.6-0.5-1.1-1.1-1.1h-5.4c-0.6,0-1.1,0.5-1.1,1.1c0,0.6,0.5,1.1,1.1,1.1c0.6,0,1.1-0.5,1.1-1.1
						C63.6,84.9,63.7,84.7,63.9,84.7z"/>
				</g>
				<circle class="st3" cx="62.4" cy="85.1" r="0.3"/>
				<circle class="st3" cx="67.8" cy="85.1" r="0.3"/>
			</g>
			<g>
				<g>
					<path class="st7" d="M79.8,111.9c-0.1,0-0.2-0.1-0.2-0.2V85.1c0-0.1,0.1-0.2,0.2-0.2c0.1,0,0.2,0.1,0.2,0.2v26.6
						C80,111.8,79.9,111.9,79.8,111.9z"/>
				</g>
				<g>
					<path class="st7" d="M78.5,111.9c-0.1,0-0.2-0.1-0.2-0.2V85.1c0-0.1,0.1-0.2,0.2-0.2c0.1,0,0.2,0.1,0.2,0.2v26.6
						C78.7,111.8,78.6,111.9,78.5,111.9z"/>
				</g>
				<g>
					<path class="st7" d="M77.1,111.9c-0.1,0-0.2-0.1-0.2-0.2V85.1c0-0.1,0.1-0.2,0.2-0.2c0.1,0,0.2,0.1,0.2,0.2v26.6
						C77.3,111.8,77.2,111.9,77.1,111.9z"/>
				</g>
				<g>
					<path class="st3" d="M81.2,112h-5.4c-0.2,0-0.4-0.2-0.4-0.4V85.1c0-0.2,0.2-0.4,0.4-0.4h5.4c0.2,0,0.4,0.2,0.4,0.4v26.6
						C81.5,111.9,81.4,112,81.2,112z M76.1,111.3h4.6V85.5h-4.6V111.3z"/>
				</g>
				<g>
					<path class="st4" d="M81.2,83.6h-5.4c-0.8,0-1.5,0.7-1.5,1.5s0.7,1.5,1.5,1.5c0.8,0,1.5-0.7,1.5-1.5h2.4c0,0.8,0.7,1.5,1.5,1.5
						s1.5-0.7,1.5-1.5S82,83.6,81.2,83.6z"/>
					<path class="st3" d="M81.2,87c-0.9,0-1.7-0.6-1.8-1.5h-1.7c-0.2,0.9-0.9,1.5-1.8,1.5c-1,0-1.9-0.8-1.9-1.9s0.8-1.9,1.9-1.9h5.4
						c1,0,1.9,0.8,1.9,1.9S82.2,87,81.2,87z M77.3,84.7h2.4c0.2,0,0.4,0.2,0.4,0.4c0,0.6,0.5,1.1,1.1,1.1c0.6,0,1.1-0.5,1.1-1.1
						c0-0.6-0.5-1.1-1.1-1.1h-5.4c-0.6,0-1.1,0.5-1.1,1.1c0,0.6,0.5,1.1,1.1,1.1c0.6,0,1.1-0.5,1.1-1.1
						C76.9,84.9,77.1,84.7,77.3,84.7z"/>
				</g>
				<circle class="st3" cx="75.8" cy="85.1" r="0.3"/>
				<circle class="st3" cx="81.2" cy="85.1" r="0.3"/>
			</g>
			<g>
				<g>
					<path class="st7" d="M93.2,111.9c-0.1,0-0.2-0.1-0.2-0.2V85.1c0-0.1,0.1-0.2,0.2-0.2c0.1,0,0.2,0.1,0.2,0.2v26.6
						C93.3,111.8,93.3,111.9,93.2,111.9z"/>
				</g>
				<g>
					<path class="st7" d="M91.8,111.9c-0.1,0-0.2-0.1-0.2-0.2V85.1c0-0.1,0.1-0.2,0.2-0.2c0.1,0,0.2,0.1,0.2,0.2v26.6
						C92,111.8,91.9,111.9,91.8,111.9z"/>
				</g>
				<g>
					<path class="st7" d="M90.5,111.9c-0.1,0-0.2-0.1-0.2-0.2V85.1c0-0.1,0.1-0.2,0.2-0.2c0.1,0,0.2,0.1,0.2,0.2v26.6
						C90.6,111.8,90.6,111.9,90.5,111.9z"/>
				</g>
				<g>
					<path class="st3" d="M94.5,112h-5.4c-0.2,0-0.4-0.2-0.4-0.4V85.1c0-0.2,0.2-0.4,0.4-0.4h5.4c0.2,0,0.4,0.2,0.4,0.4v26.6
						C94.9,111.9,94.7,112,94.5,112z M89.5,111.3h4.6V85.5h-4.6V111.3z"/>
				</g>
				<g>
					<path class="st4" d="M94.5,83.6h-5.4c-0.8,0-1.5,0.7-1.5,1.5s0.7,1.5,1.5,1.5s1.5-0.7,1.5-1.5H93c0,0.8,0.7,1.5,1.5,1.5
						s1.5-0.7,1.5-1.5S95.3,83.6,94.5,83.6z"/>
					<path class="st3" d="M94.5,87c-0.9,0-1.7-0.6-1.8-1.5H91C90.8,86.3,90,87,89.1,87c-1,0-1.9-0.8-1.9-1.9s0.8-1.9,1.9-1.9h5.4
						c1,0,1.9,0.8,1.9,1.9S95.5,87,94.5,87z M90.6,84.7H93c0.2,0,0.4,0.2,0.4,0.4c0,0.6,0.5,1.1,1.1,1.1c0.6,0,1.1-0.5,1.1-1.1
						c0-0.6-0.5-1.1-1.1-1.1h-5.4c-0.6,0-1.1,0.5-1.1,1.1c0,0.6,0.5,1.1,1.1,1.1c0.6,0,1.1-0.5,1.1-1.1
						C90.2,84.9,90.4,84.7,90.6,84.7z"/>
				</g>
				<circle class="st3" cx="89.1" cy="85.1" r="0.3"/>
				<circle class="st3" cx="94.5" cy="85.1" r="0.3"/>
			</g>
			<g>
				<g>
					<path class="st7" d="M106.5,111.9c-0.1,0-0.2-0.1-0.2-0.2V85.1c0-0.1,0.1-0.2,0.2-0.2c0.1,0,0.2,0.1,0.2,0.2v26.6
						C106.7,111.8,106.6,111.9,106.5,111.9z"/>
				</g>
				<g>
					<path class="st7" d="M105.1,111.9c-0.1,0-0.2-0.1-0.2-0.2V85.1c0-0.1,0.1-0.2,0.2-0.2c0.1,0,0.2,0.1,0.2,0.2v26.6
						C105.3,111.8,105.3,111.9,105.1,111.9z"/>
				</g>
				<g>
					<path class="st7" d="M103.8,111.9c-0.1,0-0.2-0.1-0.2-0.2V85.1c0-0.1,0.1-0.2,0.2-0.2c0.1,0,0.2,0.1,0.2,0.2v26.6
						C104,111.8,103.9,111.9,103.8,111.9z"/>
				</g>
				<g>
					<path class="st3" d="M107.8,112h-5.4c-0.2,0-0.4-0.2-0.4-0.4V85.1c0-0.2,0.2-0.4,0.4-0.4h5.4c0.2,0,0.4,0.2,0.4,0.4v26.6
						C108.2,111.9,108,112,107.8,112z M102.8,111.3h4.6V85.5h-4.6V111.3z"/>
				</g>
				<g>
					<path class="st4" d="M107.8,83.6h-5.4c-0.8,0-1.5,0.7-1.5,1.5s0.7,1.5,1.5,1.5s1.5-0.7,1.5-1.5h2.4c0,0.8,0.7,1.5,1.5,1.5
						c0.8,0,1.5-0.7,1.5-1.5S108.7,83.6,107.8,83.6z"/>
					<path class="st3" d="M107.8,87c-0.9,0-1.7-0.6-1.8-1.5h-1.7c-0.2,0.9-0.9,1.5-1.8,1.5c-1,0-1.9-0.8-1.9-1.9s0.8-1.9,1.9-1.9
						h5.4c1,0,1.9,0.8,1.9,1.9S108.9,87,107.8,87z M104,84.7h2.4c0.2,0,0.4,0.2,0.4,0.4c0,0.6,0.5,1.1,1.1,1.1
						c0.6,0,1.1-0.5,1.1-1.1c0-0.6-0.5-1.1-1.1-1.1h-5.4c-0.6,0-1.1,0.5-1.1,1.1c0,0.6,0.5,1.1,1.1,1.1c0.6,0,1.1-0.5,1.1-1.1
						C103.6,84.9,103.8,84.7,104,84.7z"/>
				</g>
				<circle class="st3" cx="102.5" cy="85.1" r="0.3"/>
				<circle class="st3" cx="107.8" cy="85.1" r="0.3"/>
			</g>
		</g>
		<g>
			<rect x="62.4" y="81.3" class="st4" width="45.4" height="2.2"/>
			<path class="st3" d="M107.8,84H62.4c-0.2,0-0.4-0.2-0.4-0.4v-2.2c0-0.2,0.2-0.4,0.4-0.4h45.4c0.2,0,0.4,0.2,0.4,0.4v2.2
				C108.2,83.8,108,84,107.8,84z M62.8,83.2h44.7v-1.5H62.8V83.2z"/>
		</g>
	</g>
	<g>
		<polygon class="st4" points="85.1,56.6 58.3,80 58.3,81.6 112,81.6 112,80 		"/>
		<path class="st3" d="M112,82H58.3c-0.2,0-0.4-0.2-0.4-0.4V80c0-0.1,0-0.2,0.1-0.3l26.8-23.4c0.1-0.1,0.3-0.1,0.5,0l26.8,23.4
			c0.1,0.1,0.1,0.2,0.1,0.3v1.6C112.4,81.8,112.2,82,112,82z M58.7,81.2h52.9v-1L85.1,57.1L58.7,80.2V81.2z"/>
	</g>
	<g>
		<polygon class="st1" points="66.2,78 85.1,61.4 104.1,78 		"/>
		<path class="st3" d="M104.1,78.3C104.1,78.3,104.1,78.3,104.1,78.3H66.2c-0.2,0-0.3-0.1-0.3-0.2c-0.1-0.1,0-0.3,0.1-0.4l19-16.5
			c0.1-0.1,0.3-0.1,0.5,0l18.9,16.5c0.1,0.1,0.2,0.2,0.2,0.3C104.5,78.2,104.3,78.3,104.1,78.3z M67.2,77.6h35.9l-18-15.7L67.2,77.6
			z"/>
	</g>
	<circle class="st6" cx="86.6" cy="98.2" r="9.8"/>
	<circle class="st8" cx="85.1" cy="96.7" r="9.8"/>
	<path class="st4" d="M85.1,87.6c5.3,0,9.6,4.2,9.8,9.4c0-0.1,0-0.2,0-0.4c0-5.4-4.4-9.8-9.8-9.8c-5.4,0-9.8,4.4-9.8,9.8
		c0,0.1,0,0.2,0,0.4C75.6,91.8,79.9,87.6,85.1,87.6z"/>
	<g>
		<path class="st3" d="M85.1,106.9c-5.6,0-10.2-4.6-10.2-10.2s4.6-10.2,10.2-10.2c5.6,0,10.2,4.6,10.2,10.2S90.7,106.9,85.1,106.9z
			 M85.1,87.3c-5.2,0-9.4,4.2-9.4,9.4s4.2,9.4,9.4,9.4c5.2,0,9.4-4.2,9.4-9.4S90.3,87.3,85.1,87.3z"/>
	</g>
	<g>
		<path class="st2" d="M45.5,48.8h-1.4c-0.2,0-0.4-0.2-0.4-0.4s0.2-0.4,0.4-0.4h1.4c0.2,0,0.4,0.2,0.4,0.4S45.7,48.8,45.5,48.8z"/>
	</g>
	<g>
		<path class="st2" d="M55.5,48.8h-8.7c-0.2,0-0.4-0.2-0.4-0.4s0.2-0.4,0.4-0.4h8.7c0.2,0,0.4,0.2,0.4,0.4S55.7,48.8,55.5,48.8z"/>
	</g>
	<circle class="st6" cx="30.3" cy="30.9" r="17"/>
	<g>
		<circle class="st2" cx="28.8" cy="29.4" r="17"/>
		<path class="st3" d="M28.8,46.8c-9.6,0-17.4-7.8-17.4-17.4S19.2,12,28.8,12s17.4,7.8,17.4,17.4S38.4,46.8,28.8,46.8z M28.8,12.7
			c-9.2,0-16.7,7.5-16.7,16.7S19.6,46,28.8,46s16.7-7.5,16.7-16.7S38,12.7,28.8,12.7z"/>
	</g>
	<g>
		<g>
			<path class="st3" d="M22.7,50.8c0,0-0.1,0-0.1,0c-0.6-0.2-1.2-0.4-1.8-0.6c-0.2-0.1-0.3-0.3-0.2-0.5c0.1-0.2,0.3-0.3,0.5-0.2
				c0.6,0.2,1.2,0.4,1.7,0.6c0.2,0.1,0.3,0.3,0.3,0.5C23,50.7,22.8,50.8,22.7,50.8z"/>
		</g>
		<g>
			<path class="st3" d="M17.5,48.5c-0.1,0-0.1,0-0.2-0.1c-1.1-0.7-2.2-1.5-3.2-2.3c-0.2-0.1-0.2-0.4,0-0.5c0.1-0.2,0.4-0.2,0.5,0
				c0.9,0.8,2,1.6,3.1,2.2c0.2,0.1,0.2,0.3,0.1,0.5C17.7,48.4,17.6,48.5,17.5,48.5z M11.7,43.4c-0.1,0-0.2,0-0.3-0.1
				c-0.8-1-1.5-2.1-2.2-3.3c-0.1-0.2,0-0.4,0.1-0.5c0.2-0.1,0.4,0,0.5,0.1c0.6,1.1,1.3,2.2,2.1,3.2c0.1,0.2,0.1,0.4-0.1,0.5
				C11.9,43.4,11.8,43.4,11.7,43.4z M8,36.7c-0.2,0-0.3-0.1-0.4-0.3c-0.4-1.2-0.7-2.5-0.9-3.8c0-0.2,0.1-0.4,0.3-0.4
				c0.2,0,0.4,0.1,0.4,0.3C7.7,33.7,8,35,8.4,36.2c0.1,0.2,0,0.4-0.2,0.5C8.1,36.6,8.1,36.7,8,36.7z M6.9,29.1
				C6.9,29.1,6.9,29.1,6.9,29.1c-0.2,0-0.4-0.2-0.4-0.4c0-1.3,0.2-2.6,0.5-3.9c0-0.2,0.2-0.3,0.4-0.3c0.2,0,0.3,0.2,0.3,0.4
				c-0.3,1.2-0.4,2.5-0.4,3.8C7.3,28.9,7.1,29.1,6.9,29.1z M8.5,21.5c0,0-0.1,0-0.1,0c-0.2-0.1-0.3-0.3-0.2-0.5
				c0.5-1.2,1.1-2.4,1.8-3.5c0.1-0.2,0.3-0.2,0.5-0.1c0.2,0.1,0.2,0.3,0.1,0.5c-0.7,1.1-1.3,2.2-1.7,3.4C8.8,21.5,8.7,21.5,8.5,21.5
				z M48.4,19.9c-0.1,0-0.3-0.1-0.3-0.2c-0.6-1.1-1.2-2.2-2-3.2c-0.1-0.2-0.1-0.4,0.1-0.5c0.2-0.1,0.4-0.1,0.5,0.1
				c0.8,1,1.5,2.2,2.1,3.3c0.1,0.2,0,0.4-0.2,0.5C48.5,19.9,48.4,19.9,48.4,19.9z M12.6,15c-0.1,0-0.2,0-0.3-0.1
				c-0.2-0.1-0.2-0.4,0-0.5c0.9-1,1.8-1.9,2.9-2.7c0.2-0.1,0.4-0.1,0.5,0.1c0.1,0.2,0.1,0.4-0.1,0.5c-1,0.8-1.9,1.6-2.8,2.6
				C12.8,15,12.7,15,12.6,15z M43.7,13.8c-0.1,0-0.2,0-0.3-0.1c-0.9-0.9-1.9-1.6-3-2.3c-0.2-0.1-0.2-0.3-0.1-0.5
				c0.1-0.2,0.3-0.2,0.5-0.1c1.1,0.7,2.1,1.5,3.1,2.4c0.2,0.1,0.2,0.4,0,0.5C43.9,13.7,43.8,13.8,43.7,13.8z M18.7,10.4
				c-0.1,0-0.3-0.1-0.3-0.2c-0.1-0.2,0-0.4,0.2-0.5c1.2-0.6,2.4-1.1,3.6-1.5c0.2-0.1,0.4,0,0.5,0.2c0.1,0.2,0,0.4-0.2,0.5
				c-1.2,0.4-2.4,0.9-3.5,1.5C18.8,10.3,18.7,10.4,18.7,10.4z M37.3,9.6c0,0-0.1,0-0.1,0c-1.2-0.5-2.4-0.9-3.6-1.2
				c-0.2,0-0.3-0.2-0.3-0.4c0-0.2,0.2-0.3,0.4-0.3C35,8,36.3,8.4,37.5,8.9c0.2,0.1,0.3,0.3,0.2,0.5C37.6,9.5,37.5,9.6,37.3,9.6z
				 M26,8c-0.2,0-0.3-0.1-0.4-0.3c0-0.2,0.1-0.4,0.3-0.4c1.3-0.2,2.6-0.2,3.9-0.2c0.2,0,0.4,0.2,0.4,0.4c0,0.2-0.2,0.4-0.4,0.4
				C28.6,7.8,27.3,7.9,26,8C26,8,26,8,26,8z"/>
		</g>
		<g>
			<path class="st3" d="M50.2,25.3c-0.2,0-0.3-0.1-0.4-0.3c-0.1-0.6-0.3-1.2-0.4-1.8c-0.1-0.2,0.1-0.4,0.3-0.5
				c0.2-0.1,0.4,0.1,0.5,0.3c0.2,0.6,0.3,1.2,0.5,1.8C50.6,25.1,50.5,25.3,50.2,25.3C50.3,25.3,50.3,25.3,50.2,25.3z"/>
		</g>
	</g>
	<path class="st6" d="M42.3,31.5v-2.8l-2.2-0.2c-0.1-0.8-0.3-1.6-0.6-2.3l1.8-1.3l-1.4-2.4l-2,0.9c-0.5-0.6-1.1-1.2-1.7-1.7l0.9-2
		l-2.4-1.4l-1.3,1.8c-0.7-0.3-1.5-0.5-2.3-0.6l-0.2-2.2h-2.8l-0.2,2.2c-0.8,0.1-1.6,0.3-2.3,0.6l-1.3-1.8l-2.4,1.4l0.9,2
		c-0.6,0.5-1.2,1.1-1.7,1.7l-2-0.9l-1.4,2.4l1.8,1.3c-0.3,0.7-0.5,1.5-0.6,2.3l-2.2,0.2v2.8l2.2,0.2c0.1,0.8,0.3,1.6,0.6,2.3
		l-1.8,1.3l1.4,2.4l2-0.9c0.5,0.6,1.1,1.2,1.7,1.7l-0.9,2l2.4,1.4l1.3-1.8c0.7,0.3,1.5,0.5,2.3,0.6l0.2,2.2h2.8l0.2-2.2
		c0.8-0.1,1.6-0.3,2.3-0.6l1.3,1.8l2.4-1.4l-0.9-2c0.6-0.5,1.2-1.1,1.7-1.7l2,0.9l1.4-2.4l-1.8-1.3c0.3-0.7,0.5-1.5,0.6-2.3
		L42.3,31.5z M29.5,36.5c-3.5,0-6.4-2.9-6.4-6.4c0-3.5,2.9-6.4,6.4-6.4c3.5,0,6.4,2.9,6.4,6.4C35.9,33.6,33.1,36.5,29.5,36.5z"/>
	<path class="st1" d="M41.6,30.8V28l-2.2-0.2c-0.1-0.8-0.3-1.6-0.6-2.3l1.8-1.3l-1.4-2.4l-2,0.9c-0.5-0.6-1.1-1.2-1.7-1.7l0.9-2
		L34,17.6l-1.3,1.8c-0.7-0.3-1.5-0.5-2.3-0.6l-0.2-2.2h-2.8l-0.2,2.2c-0.8,0.1-1.6,0.3-2.3,0.6l-1.3-1.8L21.2,19l0.9,2
		c-0.6,0.5-1.2,1.1-1.7,1.7l-2-0.9L17,24.2l1.8,1.3c-0.3,0.7-0.5,1.5-0.6,2.3L16,28v2.8l2.2,0.2c0.1,0.8,0.3,1.6,0.6,2.3L17,34.6
		l1.4,2.4l2-0.9c0.5,0.6,1.1,1.2,1.7,1.7l-0.9,2l2.4,1.4l1.3-1.8c0.7,0.3,1.5,0.5,2.3,0.6l0.2,2.2h2.8l0.2-2.2
		c0.8-0.1,1.6-0.3,2.3-0.6l1.3,1.8l2.4-1.4l-0.9-2c0.6-0.5,1.2-1.1,1.7-1.7l2,0.9l1.4-2.4l-1.8-1.3c0.3-0.7,0.5-1.5,0.6-2.3
		L41.6,30.8z M28.8,35.8c-3.5,0-6.4-2.9-6.4-6.4c0-3.5,2.9-6.4,6.4-6.4c3.5,0,6.4,2.9,6.4,6.4C35.2,32.9,32.3,35.8,28.8,35.8z"/>
	<g>
		<path class="st3" d="M30.2,42.6h-2.8c-0.2,0-0.4-0.1-0.4-0.3l-0.2-1.9c-0.6-0.1-1.2-0.3-1.8-0.5l-1.1,1.5
			c-0.1,0.2-0.3,0.2-0.5,0.1L21,40.1c-0.2-0.1-0.2-0.3-0.2-0.5l0.8-1.7c-0.5-0.4-0.9-0.9-1.3-1.3l-1.7,0.8c-0.2,0.1-0.4,0-0.5-0.2
			l-1.4-2.4c-0.1-0.2-0.1-0.4,0.1-0.5l1.5-1.1c-0.2-0.6-0.4-1.2-0.5-1.8L16,31.1c-0.2,0-0.3-0.2-0.3-0.4V28c0-0.2,0.1-0.4,0.3-0.4
			l1.9-0.2c0.1-0.6,0.3-1.2,0.5-1.8l-1.5-1.1c-0.2-0.1-0.2-0.3-0.1-0.5l1.4-2.4c0.1-0.2,0.3-0.2,0.5-0.2l1.7,0.8
			c0.4-0.5,0.9-0.9,1.3-1.3l-0.8-1.7c-0.1-0.2,0-0.4,0.2-0.5l2.4-1.4c0.2-0.1,0.4-0.1,0.5,0.1l1.1,1.5c0.6-0.2,1.2-0.4,1.8-0.5
			l0.2-1.9c0-0.2,0.2-0.3,0.4-0.3h2.8c0.2,0,0.4,0.1,0.4,0.3l0.2,1.9c0.6,0.1,1.2,0.3,1.8,0.5l1.1-1.5c0.1-0.2,0.3-0.2,0.5-0.1
			l2.4,1.4c0.2,0.1,0.2,0.3,0.2,0.5L36,20.9c0.5,0.4,0.9,0.9,1.3,1.3l1.7-0.8c0.2-0.1,0.4,0,0.5,0.2l1.4,2.4
			c0.1,0.2,0.1,0.4-0.1,0.5l-1.5,1.1c0.2,0.6,0.4,1.2,0.5,1.8l1.9,0.2c0.2,0,0.3,0.2,0.3,0.4v2.8c0,0.2-0.1,0.4-0.3,0.4l-1.9,0.2
			c-0.1,0.6-0.3,1.2-0.5,1.8l1.5,1.1c0.2,0.1,0.2,0.3,0.1,0.5l-1.4,2.4c-0.1,0.2-0.3,0.2-0.5,0.2l-1.7-0.8c-0.4,0.5-0.9,0.9-1.3,1.3
			l0.8,1.7c0.1,0.2,0,0.4-0.2,0.5l-2.4,1.4c-0.2,0.1-0.4,0-0.5-0.1l-1.1-1.5c-0.6,0.2-1.2,0.4-1.8,0.5l-0.2,1.9
			C30.5,42.4,30.4,42.6,30.2,42.6z M27.7,41.8h2.1L30,40c0-0.2,0.1-0.3,0.3-0.3c0.8-0.1,1.5-0.3,2.2-0.6c0.2-0.1,0.3,0,0.4,0.1
			l1.1,1.5l1.8-1.1l-0.7-1.7c-0.1-0.2,0-0.3,0.1-0.4c0.6-0.5,1.2-1,1.6-1.6c0.1-0.1,0.3-0.2,0.4-0.1l1.7,0.7l1.1-1.8l-1.5-1.1
			c-0.1-0.1-0.2-0.3-0.1-0.4c0.3-0.7,0.5-1.5,0.6-2.2c0-0.2,0.2-0.3,0.3-0.3l1.8-0.2v-2.1l-1.8-0.2c-0.2,0-0.3-0.1-0.3-0.3
			c-0.1-0.8-0.3-1.5-0.6-2.2c-0.1-0.2,0-0.3,0.1-0.4l1.5-1.1L39,22.3L37.4,23c-0.2,0.1-0.3,0-0.4-0.1c-0.5-0.6-1-1.2-1.6-1.6
			c-0.1-0.1-0.2-0.3-0.1-0.4l0.7-1.7l-1.8-1.1L33,19.6c-0.1,0.1-0.3,0.2-0.4,0.1c-0.7-0.3-1.5-0.5-2.2-0.6c-0.2,0-0.3-0.2-0.3-0.3
			L29.9,17h-2.1l-0.2,1.8c0,0.2-0.1,0.3-0.3,0.3c-0.8,0.1-1.5,0.3-2.2,0.6c-0.2,0.1-0.3,0-0.4-0.1l-1.1-1.5l-1.8,1.1l0.7,1.7
			c0.1,0.2,0,0.3-0.1,0.4c-0.6,0.5-1.2,1-1.6,1.6c-0.1,0.1-0.3,0.2-0.4,0.1l-1.7-0.7l-1.1,1.8l1.5,1.1c0.1,0.1,0.2,0.3,0.1,0.4
			c-0.3,0.7-0.5,1.5-0.6,2.2c0,0.2-0.2,0.3-0.3,0.3l-1.8,0.2v2.1l1.8,0.2c0.2,0,0.3,0.1,0.3,0.3c0.1,0.8,0.3,1.5,0.6,2.2
			c0.1,0.2,0,0.3-0.1,0.4l-1.5,1.1l1.1,1.8l1.7-0.7c0.2-0.1,0.3,0,0.4,0.1c0.5,0.6,1,1.2,1.6,1.6c0.1,0.1,0.2,0.3,0.1,0.4l-0.7,1.7
			l1.8,1.1l1.1-1.5c0.1-0.1,0.3-0.2,0.4-0.1c0.7,0.3,1.5,0.5,2.2,0.6c0.2,0,0.3,0.2,0.3,0.3L27.7,41.8z M28.8,36.1
			c-3.7,0-6.7-3-6.7-6.7c0-3.7,3-6.7,6.7-6.7c3.7,0,6.7,3,6.7,6.7C35.5,33.1,32.5,36.1,28.8,36.1z M28.8,23.4c-3.3,0-6,2.7-6,6
			c0,3.3,2.7,6,6,6c3.3,0,6-2.7,6-6C34.8,26.1,32.1,23.4,28.8,23.4z"/>
	</g>
	<polygon class="st3" points="51.7,23.6 50.6,26.9 48.3,24.3 	"/>
	<polygon class="st3" points="52.3,26.9 51.1,30.2 48.9,27.6 	"/>
	<path class="st6" d="M42.3,98.2H15.5c-1.2,0-2.2-1-2.2-2.2V80c0-1.2,1-2.2,2.2-2.2h26.8c1.2,0,2.2,1,2.2,2.2v16
		C44.5,97.2,43.5,98.2,42.3,98.2z"/>
	<path class="st2" d="M40.8,96.7H14c-1.2,0-2.2-1-2.2-2.2v-16c0-1.2,1-2.2,2.2-2.2h26.8c1.2,0,2.2,1,2.2,2.2v16
		C43.1,95.7,42.1,96.7,40.8,96.7z"/>
	<path class="st0" d="M40.8,95.2H14c-1.2,0-2.2-1-2.2-2.2v1.5c0,1.2,1,2.2,2.2,2.2h26.8c1.2,0,2.2-1,2.2-2.2V93
		C43.1,94.2,42.1,95.2,40.8,95.2z"/>
	<g>
		<path class="st3" d="M40.8,97.1H14c-1.4,0-2.6-1.2-2.6-2.6v-16c0-1.4,1.2-2.6,2.6-2.6h26.8c1.4,0,2.6,1.2,2.6,2.6v16
			C43.4,95.9,42.3,97.1,40.8,97.1z M14,76.6c-1,0-1.9,0.8-1.9,1.9v16c0,1,0.8,1.9,1.9,1.9h26.8c1,0,1.9-0.8,1.9-1.9v-16
			c0-1-0.8-1.9-1.9-1.9H14z"/>
	</g>
	<g>
		<g>
			<path class="st3" d="M115,40c-0.1,0-0.2,0-0.3-0.1c-0.1-0.1-0.1-0.4,0-0.5l1-1c0.1-0.1,0.4-0.1,0.5,0c0.1,0.1,0.1,0.4,0,0.5l-1,1
				C115.2,40,115.1,40,115,40z"/>
		</g>
		<g>
			<path class="st3" d="M113.6,40.1c-0.1,0-0.2,0-0.3-0.1l-1-1c-0.1-0.1-0.1-0.4,0-0.5c0.1-0.1,0.4-0.1,0.5,0l1,1
				c0.1,0.1,0.1,0.4,0,0.5C113.7,40,113.7,40.1,113.6,40.1z"/>
		</g>
		<g>
			<path class="st3" d="M112.6,42.5c-0.1,0-0.2,0-0.3-0.1c-0.1-0.1-0.1-0.4,0-0.5l1-1c0.1-0.1,0.4-0.1,0.5,0c0.1,0.1,0.1,0.4,0,0.5
				l-1,1C112.7,42.4,112.7,42.5,112.6,42.5z"/>
		</g>
		<g>
			<path class="st3" d="M116,42.5c-0.1,0-0.2,0-0.3-0.1l-1-1c-0.1-0.1-0.1-0.4,0-0.5c0.1-0.1,0.4-0.1,0.5,0l1,1
				c0.1,0.1,0.1,0.4,0,0.5C116.2,42.4,116.1,42.5,116,42.5z"/>
		</g>
	</g>
	<g>
		<path class="st3" d="M42.7,84H11.8c-0.2,0-0.4-0.2-0.4-0.4c0-0.2,0.2-0.4,0.4-0.4h30.9c0.2,0,0.4,0.2,0.4,0.4
			C43.1,83.8,42.9,84,42.7,84z"/>
	</g>
	<g>
		<g>
			<path class="st3" d="M19.7,89.7h-4.2c-0.2,0-0.4-0.2-0.4-0.4c0-0.2,0.2-0.4,0.4-0.4h4.2c0.2,0,0.4,0.2,0.4,0.4
				C20.1,89.5,20,89.7,19.7,89.7z"/>
		</g>
		<g>
			<path class="st3" d="M25.9,89.7h-4.2c-0.2,0-0.4-0.2-0.4-0.4c0-0.2,0.2-0.4,0.4-0.4h4.2c0.2,0,0.4,0.2,0.4,0.4
				C26.3,89.5,26.1,89.7,25.9,89.7z"/>
		</g>
		<g>
			<path class="st3" d="M32.1,89.7h-4.2c-0.2,0-0.4-0.2-0.4-0.4c0-0.2,0.2-0.4,0.4-0.4h4.2c0.2,0,0.4,0.2,0.4,0.4
				C32.5,89.5,32.3,89.7,32.1,89.7z"/>
		</g>
		<g>
			<path class="st3" d="M38.3,89.7h-4.2c-0.2,0-0.4-0.2-0.4-0.4c0-0.2,0.2-0.4,0.4-0.4h4.2c0.2,0,0.4,0.2,0.4,0.4
				C38.7,89.5,38.5,89.7,38.3,89.7z"/>
		</g>
	</g>
	<g>
		<path class="st2" d="M128.5,48.8c-0.2,0-0.4-0.1-0.5-0.2c-0.3-0.3-0.3-0.8,0-1.1c2-2,4.7-3.2,7.6-3.2c2.9,0,5.6,1.1,7.6,3.2
			c0.3,0.3,0.3,0.8,0,1.1c-0.3,0.3-0.8,0.3-1.1,0c-1.8-1.7-4.1-2.7-6.5-2.7c-2.5,0-4.8,1-6.6,2.7C128.9,48.8,128.7,48.8,128.5,48.8z
			"/>
	</g>
	<g>
		<path class="st2" d="M130.3,50.6c-0.2,0-0.4-0.1-0.5-0.2c-0.3-0.3-0.3-0.8,0-1.1c1.6-1.6,3.6-2.4,5.8-2.4c2.2,0,4.3,0.9,5.8,2.4
			c0.3,0.3,0.3,0.8,0,1.1c-0.3,0.3-0.8,0.3-1.1,0c-1.3-1.3-3-2-4.8-2c-1.8,0-3.5,0.7-4.8,2C130.7,50.5,130.5,50.6,130.3,50.6z"/>
	</g>
	<g>
		<path class="st2" d="M132.1,52.4c-0.2,0-0.4-0.1-0.5-0.2c-0.3-0.3-0.3-0.8,0-1.1c1.1-1.1,2.5-1.7,4.1-1.7c1.5,0,3,0.6,4.1,1.7
			c0.3,0.3,0.3,0.8,0,1.1c-0.3,0.3-0.8,0.3-1.1,0c-0.8-0.8-1.9-1.2-3-1.2c-1.1,0-2.2,0.4-3,1.2C132.4,52.3,132.2,52.4,132.1,52.4z"
			/>
	</g>
	<circle class="st2" cx="135.6" cy="54.7" r="2"/>
	<g>
		<path class="st2" d="M121.4,125h-1.2c-0.2,0-0.4-0.2-0.4-0.4s0.2-0.4,0.4-0.4h1.2c0.2,0,0.4,0.2,0.4,0.4S121.6,125,121.4,125z"/>
	</g>
	<g>
		<path class="st2" d="M128.4,125h-5.8c-0.2,0-0.4-0.2-0.4-0.4s0.2-0.4,0.4-0.4h5.8c0.2,0,0.4,0.2,0.4,0.4S128.6,125,128.4,125z"/>
	</g>
	<g>
		<path class="st2" d="M81.8,97.3c0.3,0.5,2.4,3.9,2.9,3.9c0.5,0,3.7-4.5,5.5-7.1c0.3-0.4-0.4-1.8-1.5-0.7c-1,1.1-4.1,4.6-4.1,4.6
			s-1.4-1.4-1.9-1.7C82.4,95.9,81.5,96.8,81.8,97.3z"/>
		<path class="st3" d="M84.8,101.6c-0.3,0-0.7,0-3.2-3.9l-0.1-0.1c-0.2-0.3-0.2-0.6,0-1c0.2-0.4,0.6-0.7,1.1-0.7
			c0.2,0,0.3,0.1,0.5,0.2c0.3,0.3,1.1,1.1,1.6,1.5c0.8-0.9,3-3.4,3.9-4.3c0.7-0.8,1.6-0.7,2,0.1c0.2,0.4,0.2,0.8,0,1.1
			C86,100.8,85.2,101.6,84.8,101.6z M82.6,96.5c0,0-0.3,0.1-0.4,0.4c-0.1,0.1-0.1,0.2-0.1,0.2l0.1,0.1c1.7,2.6,2.3,3.4,2.6,3.5
			c0.8-0.6,3.8-4.9,5.1-6.8c0-0.1,0-0.3-0.1-0.4c-0.1-0.2-0.4-0.2-0.8,0.1c-1,1.1-4.1,4.5-4.1,4.6l-0.3,0.3l-0.3-0.3
			C84.4,98.2,83,96.9,82.6,96.5z"/>
	</g>
</g>
</svg>
