<?xml version="1.0" encoding="utf-8"?>
<!-- Generator: Adobe Illustrator 21.1.0, SVG Export Plug-In . SVG Version: 6.00 Build 0)  -->
<svg version="1.1" id="Layer_1" xmlns="http://www.w3.org/2000/svg" xmlns:xlink="http://www.w3.org/1999/xlink" x="0px" y="0px"
	 viewBox="0 0 161 153" style="enable-background:new 0 0 161 153;" xml:space="preserve">
<style type="text/css">
	.st0{fill:#EFF8FF;}
	.st1{fill:#0C60FF;}
	.st2{fill:#B3CDFF;}
	.st3{fill:#8FB5FF;}
	.st4{fill:#FFFFFF;}
	.st5{opacity:0.5;fill:#B3CDFF;}
	.st6{fill:#E18C44;}
	.st7{fill:#F2F7FA;}
</style>
<circle class="st0" cx="77.3" cy="76.4" r="69.1"/>
<g>
	<g>
		<path class="st1" d="M66.9,38.7c-0.1,0-0.2,0-0.3-0.1c-0.2-0.2-0.2-0.4,0-0.6c0.5-0.5,1-1,1.5-1.5c0.2-0.2,0.4-0.2,0.6,0
			c0.2,0.2,0.2,0.4,0,0.6c-0.5,0.5-1,1-1.4,1.5C67.2,38.7,67.1,38.7,66.9,38.7z"/>
	</g>
	<g>
		<path class="st1" d="M136.6,107.4c-0.1,0-0.2,0-0.3-0.1c-0.2-0.2-0.2-0.4,0-0.6c1-1,2-2,3-3.1c0.2-0.2,0.4-0.2,0.6,0
			c0.2,0.2,0.2,0.4,0,0.6c-0.9,1.1-2,2.1-3,3.1C136.8,107.4,136.7,107.4,136.6,107.4z M142.3,101c-0.1,0-0.2,0-0.2-0.1
			c-0.2-0.1-0.2-0.4-0.1-0.6c0.8-1.1,1.6-2.3,2.4-3.5c0.1-0.2,0.4-0.3,0.6-0.1c0.2,0.1,0.3,0.4,0.1,0.6c-0.7,1.2-1.6,2.4-2.4,3.6
			C142.5,100.9,142.4,101,142.3,101z M146.7,93.6c-0.1,0-0.1,0-0.2,0c-0.2-0.1-0.3-0.4-0.2-0.6c0.6-1.3,1.2-2.6,1.7-3.9
			c0.1-0.2,0.3-0.3,0.5-0.2c0.2,0.1,0.3,0.3,0.2,0.5c-0.5,1.3-1.1,2.7-1.7,4C147,93.5,146.9,93.6,146.7,93.6z M149.9,85.6
			c0,0-0.1,0-0.1,0c-0.2-0.1-0.3-0.3-0.3-0.5c0.4-1.4,0.7-2.7,1-4.1c0-0.2,0.3-0.4,0.5-0.3c0.2,0,0.4,0.3,0.3,0.5
			c-0.3,1.4-0.6,2.8-1,4.2C150.2,85.5,150,85.6,149.9,85.6z M151.5,77.2C151.5,77.2,151.5,77.2,151.5,77.2c-0.3,0-0.4-0.2-0.4-0.5
			c0.1-1.4,0.2-2.8,0.3-4.3c0-0.2,0.2-0.4,0.4-0.4c0,0,0,0,0,0c0.2,0,0.4,0.2,0.4,0.4c0,1.4-0.1,2.9-0.3,4.3
			C151.9,77,151.7,77.2,151.5,77.2z M151.7,68.6c-0.2,0-0.4-0.2-0.4-0.4c-0.1-1.4-0.3-2.8-0.5-4.2c0-0.2,0.1-0.4,0.3-0.5
			c0.2,0,0.4,0.1,0.5,0.3c0.2,1.4,0.4,2.9,0.5,4.3C152.1,68.4,151.9,68.6,151.7,68.6C151.7,68.6,151.7,68.6,151.7,68.6z M150.3,60.1
			c-0.2,0-0.4-0.1-0.4-0.3c-0.3-1.4-0.7-2.7-1.2-4.1c-0.1-0.2,0-0.5,0.3-0.5c0.2-0.1,0.5,0,0.5,0.3c0.5,1.4,0.9,2.8,1.2,4.2
			c0.1,0.2-0.1,0.5-0.3,0.5C150.4,60.1,150.4,60.1,150.3,60.1z M147.5,52c-0.2,0-0.3-0.1-0.4-0.2c-0.6-1.3-1.2-2.6-1.9-3.8
			c-0.1-0.2,0-0.5,0.2-0.6c0.2-0.1,0.5,0,0.6,0.2c0.7,1.3,1.4,2.6,1.9,3.9c0.1,0.2,0,0.5-0.2,0.6C147.7,52,147.6,52,147.5,52z
			 M143.4,44.5c-0.1,0-0.3-0.1-0.3-0.2c-0.8-1.2-1.7-2.3-2.5-3.4c-0.1-0.2-0.1-0.4,0.1-0.6c0.2-0.1,0.4-0.1,0.6,0.1
			c0.9,1.1,1.8,2.3,2.6,3.5c0.1,0.2,0.1,0.5-0.1,0.6C143.5,44.5,143.4,44.5,143.4,44.5z M137.9,37.9c-0.1,0-0.2,0-0.3-0.1
			c-1-1-2-2-3.1-2.9c-0.2-0.2-0.2-0.4,0-0.6c0.2-0.2,0.4-0.2,0.6,0c1.1,0.9,2.1,1.9,3.2,3c0.2,0.2,0.2,0.4,0,0.6
			C138.1,37.8,138,37.9,137.9,37.9z M71.6,34.3c-0.1,0-0.2-0.1-0.3-0.2c-0.1-0.2-0.1-0.4,0.1-0.6c1.1-0.9,2.3-1.8,3.5-2.6
			c0.2-0.1,0.5-0.1,0.6,0.1c0.1,0.2,0.1,0.5-0.1,0.6c-1.2,0.8-2.3,1.7-3.4,2.6C71.8,34.3,71.7,34.3,71.6,34.3z M131.4,32.3
			c-0.1,0-0.2,0-0.2-0.1c-1.1-0.8-2.3-1.6-3.6-2.3c-0.2-0.1-0.3-0.4-0.1-0.6c0.1-0.2,0.4-0.3,0.6-0.1c1.2,0.7,2.5,1.5,3.6,2.4
			c0.2,0.1,0.2,0.4,0.1,0.6C131.7,32.2,131.6,32.3,131.4,32.3z M78.6,29.4c-0.1,0-0.3-0.1-0.4-0.2c-0.1-0.2,0-0.5,0.2-0.6
			c1.3-0.7,2.5-1.4,3.9-2c0.2-0.1,0.5,0,0.6,0.2c0.1,0.2,0,0.5-0.2,0.6c-1.3,0.6-2.6,1.2-3.8,1.9C78.8,29.4,78.7,29.4,78.6,29.4z
			 M124.1,27.9c-0.1,0-0.1,0-0.2,0c-1.3-0.6-2.6-1.2-3.9-1.7c-0.2-0.1-0.3-0.3-0.2-0.5c0.1-0.2,0.3-0.3,0.5-0.2
			c1.3,0.5,2.7,1.1,4,1.7c0.2,0.1,0.3,0.4,0.2,0.6C124.4,27.8,124.2,27.9,124.1,27.9z M86.4,25.8c-0.2,0-0.3-0.1-0.4-0.3
			c-0.1-0.2,0-0.5,0.3-0.5c1.4-0.5,2.7-0.9,4.1-1.3c0.2-0.1,0.5,0.1,0.5,0.3c0.1,0.2-0.1,0.5-0.3,0.5c-1.4,0.4-2.7,0.8-4.1,1.2
			C86.5,25.8,86.5,25.8,86.4,25.8z M116,24.8c0,0-0.1,0-0.1,0c-1.4-0.4-2.8-0.7-4.1-1c-0.2,0-0.4-0.3-0.3-0.5c0-0.2,0.3-0.4,0.5-0.3
			c1.4,0.3,2.8,0.6,4.2,1c0.2,0.1,0.4,0.3,0.3,0.5C116.4,24.7,116.2,24.8,116,24.8z M94.7,23.7c-0.2,0-0.4-0.1-0.4-0.4
			c0-0.2,0.1-0.4,0.3-0.5c1.4-0.2,2.9-0.4,4.3-0.5c0.2,0,0.4,0.2,0.4,0.4c0,0.2-0.2,0.4-0.4,0.5C97.6,23.3,96.2,23.5,94.7,23.7
			C94.8,23.7,94.8,23.7,94.7,23.7z M107.6,23.3C107.6,23.3,107.6,23.3,107.6,23.3c-1.4-0.1-2.9-0.2-4.3-0.2c-0.2,0-0.4-0.2-0.4-0.4
			c0-0.2,0.2-0.4,0.4-0.4c1.4,0,2.9,0.1,4.3,0.2c0.2,0,0.4,0.2,0.4,0.5C108,23.1,107.8,23.3,107.6,23.3z"/>
	</g>
	<g>
		<path class="st1" d="M131.7,111.5c-0.1,0-0.3-0.1-0.3-0.2c-0.1-0.2-0.1-0.4,0.1-0.6c0.6-0.4,1.1-0.8,1.7-1.3
			c0.2-0.1,0.4-0.1,0.6,0.1c0.1,0.2,0.1,0.4-0.1,0.6c-0.6,0.4-1.1,0.9-1.7,1.3C131.8,111.5,131.7,111.5,131.7,111.5z"/>
	</g>
</g>
<g>
	<path class="st1" d="M123.8,126.7H8.2c-0.2,0-0.4-0.2-0.4-0.4c0-0.2,0.2-0.4,0.4-0.4h115.6c0.2,0,0.4,0.2,0.4,0.4
		C124.2,126.5,124,126.7,123.8,126.7z"/>
</g>
<path class="st2" d="M109.7,126.1H36c-4.9,0-8.8-3.9-8.8-8.8V59.5c0-4.9,3.9-8.8,8.8-8.8h73.7c4.9,0,8.8,3.9,8.8,8.8v57.8
	C118.5,122.2,114.6,126.1,109.7,126.1z"/>
<path class="st3" d="M109.7,124.4H36c-4.9,0-8.8-3.9-8.8-8.8v1.8c0,4.9,3.9,8.8,8.8,8.8h73.7c4.9,0,8.8-3.9,8.8-8.8v-1.8
	C118.5,120.4,114.6,124.4,109.7,124.4z"/>
<path class="st3" d="M34.7,92.8c21.7-10.6,25.7-31.9,26.3-42.1H36c-4.9,0-8.8,3.9-8.8,8.8v28.7C29.4,89.9,31.9,91.5,34.7,92.8z"/>
<path class="st4" d="M109.7,50.7H36c-4.9,0-8.8,3.9-8.8,8.8v1.8c0-4.9,3.9-8.8,8.8-8.8h73.7c4.9,0,8.8,3.9,8.8,8.8v-1.8
	C118.5,54.7,114.6,50.7,109.7,50.7z"/>
<path class="st3" d="M118.5,82.6H102c-3,0-5.4,2.4-5.4,5.4v4.4c0,3,2.4,5.4,5.4,5.4h16.5V82.6z"/>
<g>
	<path class="st1" d="M109.7,126.5H36c-5.1,0-9.2-4.1-9.2-9.2V59.5c0-5.1,4.1-9.2,9.2-9.2h32.6c0.2,0,0.4,0.2,0.4,0.4
		c0,0.2-0.2,0.4-0.4,0.4H36c-4.6,0-8.4,3.8-8.4,8.4v57.8c0,4.6,3.8,8.4,8.4,8.4h73.7c4.6,0,8.4-3.8,8.4-8.4V59.5
		c0-4.6-3.8-8.4-8.4-8.4H76c-0.2,0-0.4-0.2-0.4-0.4c0-0.2,0.2-0.4,0.4-0.4h33.7c5.1,0,9.2,4.1,9.2,9.2v57.8
		C118.9,122.4,114.8,126.5,109.7,126.5z"/>
</g>
<g>
	<path class="st1" d="M109.7,122.1h-1.9c-0.2,0-0.4-0.2-0.4-0.4c0-0.2,0.2-0.4,0.4-0.4h1.9c0.2,0,0.4,0,0.6,0c0.2,0,0.4,0.1,0.5,0.4
		c0,0.2-0.1,0.4-0.4,0.5C110.2,122.1,110,122.1,109.7,122.1z M103.6,122.1h-2.5c-0.2,0-0.4-0.2-0.4-0.4c0-0.2,0.2-0.4,0.4-0.4h2.5
		c0.2,0,0.4,0.2,0.4,0.4C104,121.9,103.9,122.1,103.6,122.1z M96.9,122.1h-2.5c-0.2,0-0.4-0.2-0.4-0.4c0-0.2,0.2-0.4,0.4-0.4h2.5
		c0.2,0,0.4,0.2,0.4,0.4C97.3,121.9,97.1,122.1,96.9,122.1z M90.1,122.1h-2.5c-0.2,0-0.4-0.2-0.4-0.4c0-0.2,0.2-0.4,0.4-0.4h2.5
		c0.2,0,0.4,0.2,0.4,0.4C90.5,121.9,90.3,122.1,90.1,122.1z M83.3,122.1h-2.5c-0.2,0-0.4-0.2-0.4-0.4c0-0.2,0.2-0.4,0.4-0.4h2.5
		c0.2,0,0.4,0.2,0.4,0.4C83.8,121.9,83.6,122.1,83.3,122.1z M76.6,122.1H74c-0.2,0-0.4-0.2-0.4-0.4c0-0.2,0.2-0.4,0.4-0.4h2.5
		c0.2,0,0.4,0.2,0.4,0.4C77,121.9,76.8,122.1,76.6,122.1z M69.8,122.1h-2.5c-0.2,0-0.4-0.2-0.4-0.4c0-0.2,0.2-0.4,0.4-0.4h2.5
		c0.2,0,0.4,0.2,0.4,0.4C70.2,121.9,70.1,122.1,69.8,122.1z M63.1,122.1h-2.5c-0.2,0-0.4-0.2-0.4-0.4c0-0.2,0.2-0.4,0.4-0.4h2.5
		c0.2,0,0.4,0.2,0.4,0.4C63.5,121.9,63.3,122.1,63.1,122.1z M56.3,122.1h-2.5c-0.2,0-0.4-0.2-0.4-0.4c0-0.2,0.2-0.4,0.4-0.4h2.5
		c0.2,0,0.4,0.2,0.4,0.4C56.7,121.9,56.5,122.1,56.3,122.1z M49.5,122.1H47c-0.2,0-0.4-0.2-0.4-0.4c0-0.2,0.2-0.4,0.4-0.4h2.5
		c0.2,0,0.4,0.2,0.4,0.4C50,121.9,49.8,122.1,49.5,122.1z M42.8,122.1h-2.5c-0.2,0-0.4-0.2-0.4-0.4c0-0.2,0.2-0.4,0.4-0.4h2.5
		c0.2,0,0.4,0.2,0.4,0.4C43.2,121.9,43,122.1,42.8,122.1z M36,122.1L36,122.1c-1,0-1.9-0.3-2.7-0.8c-0.2-0.1-0.2-0.4-0.1-0.6
		c0.1-0.2,0.4-0.2,0.6-0.1c0.6,0.4,1.4,0.6,2.2,0.6c0.2,0,0.4,0.2,0.4,0.4C36.4,121.9,36.3,122.1,36,122.1z M113.7,119.7
		c-0.1,0-0.1,0-0.2,0c-0.2-0.1-0.3-0.4-0.2-0.6c0.3-0.6,0.4-1.1,0.4-1.8v-0.5c0-0.2,0.2-0.4,0.4-0.4c0.2,0,0.4,0.2,0.4,0.4v0.5
		c0,0.8-0.2,1.5-0.5,2.1C114,119.6,113.8,119.7,113.7,119.7z M31.6,117.9c-0.2,0-0.4-0.2-0.4-0.4l0-0.2v-2.4c0-0.2,0.2-0.4,0.4-0.4
		c0.2,0,0.4,0.2,0.4,0.4l0,2.5C32,117.7,31.8,117.9,31.6,117.9C31.6,117.9,31.6,117.9,31.6,117.9z M114.1,113
		c-0.2,0-0.4-0.2-0.4-0.4V110c0-0.2,0.2-0.4,0.4-0.4c0.2,0,0.4,0.2,0.4,0.4v2.5C114.5,112.8,114.3,113,114.1,113z M31.6,111.1
		c-0.2,0-0.4-0.2-0.4-0.4v-2.5c0-0.2,0.2-0.4,0.4-0.4c0.2,0,0.4,0.2,0.4,0.4v2.5C32,110.9,31.8,111.1,31.6,111.1z M114.1,106.2
		c-0.2,0-0.4-0.2-0.4-0.4v-2.5c0-0.2,0.2-0.4,0.4-0.4c0.2,0,0.4,0.2,0.4,0.4v2.5C114.5,106,114.3,106.2,114.1,106.2z M31.6,104.4
		c-0.2,0-0.4-0.2-0.4-0.4v-2.5c0-0.2,0.2-0.4,0.4-0.4c0.2,0,0.4,0.2,0.4,0.4v2.5C32,104.2,31.8,104.4,31.6,104.4z M114.1,99.5
		c-0.2,0-0.4-0.2-0.4-0.4v-2.5c0-0.2,0.2-0.4,0.4-0.4c0.2,0,0.4,0.2,0.4,0.4v2.5C114.5,99.3,114.3,99.5,114.1,99.5z M31.6,97.6
		c-0.2,0-0.4-0.2-0.4-0.4v-2.5c0-0.2,0.2-0.4,0.4-0.4c0.2,0,0.4,0.2,0.4,0.4v2.5C32,97.4,31.8,97.6,31.6,97.6z M114.1,92.7
		c-0.2,0-0.4-0.2-0.4-0.4v-2.5c0-0.2,0.2-0.4,0.4-0.4c0.2,0,0.4,0.2,0.4,0.4v2.5C114.5,92.5,114.3,92.7,114.1,92.7z M31.6,90.8
		c-0.2,0-0.4-0.2-0.4-0.4v-2.5c0-0.2,0.2-0.4,0.4-0.4c0.2,0,0.4,0.2,0.4,0.4v2.5C32,90.7,31.8,90.8,31.6,90.8z M114.1,86
		c-0.2,0-0.4-0.2-0.4-0.4V83c0-0.2,0.2-0.4,0.4-0.4c0.2,0,0.4,0.2,0.4,0.4v2.5C114.5,85.8,114.3,86,114.1,86z M31.6,84.1
		c-0.2,0-0.4-0.2-0.4-0.4v-2.5c0-0.2,0.2-0.4,0.4-0.4c0.2,0,0.4,0.2,0.4,0.4v2.5C32,83.9,31.8,84.1,31.6,84.1z M114.1,79.2
		c-0.2,0-0.4-0.2-0.4-0.4v-2.5c0-0.2,0.2-0.4,0.4-0.4c0.2,0,0.4,0.2,0.4,0.4v2.5C114.5,79,114.3,79.2,114.1,79.2z M31.6,77.3
		c-0.2,0-0.4-0.2-0.4-0.4v-2.5c0-0.2,0.2-0.4,0.4-0.4c0.2,0,0.4,0.2,0.4,0.4v2.5C32,77.1,31.8,77.3,31.6,77.3z M114.1,72.4
		c-0.2,0-0.4-0.2-0.4-0.4v-2.5c0-0.2,0.2-0.4,0.4-0.4c0.2,0,0.4,0.2,0.4,0.4V72C114.5,72.2,114.3,72.4,114.1,72.4z M31.6,70.6
		c-0.2,0-0.4-0.2-0.4-0.4v-2.5c0-0.2,0.2-0.4,0.4-0.4c0.2,0,0.4,0.2,0.4,0.4v2.5C32,70.4,31.8,70.6,31.6,70.6z M114.1,65.7
		c-0.2,0-0.4-0.2-0.4-0.4v-2.5c0-0.2,0.2-0.4,0.4-0.4c0.2,0,0.4,0.2,0.4,0.4v2.5C114.5,65.5,114.3,65.7,114.1,65.7z M31.6,63.8
		c-0.2,0-0.4-0.2-0.4-0.4v-2.5c0-0.2,0.2-0.4,0.4-0.4c0.2,0,0.4,0.2,0.4,0.4v2.5C32,63.6,31.8,63.8,31.6,63.8z M114,58.9
		c-0.2,0-0.4-0.1-0.4-0.3c-0.2-0.7-0.6-1.4-1.1-2c-0.2-0.2-0.2-0.4,0-0.6c0.2-0.2,0.4-0.2,0.6,0c0.7,0.6,1.1,1.5,1.4,2.4
		C114.5,58.6,114.3,58.9,114,58.9C114.1,58.9,114,58.9,114,58.9z M32.5,57.3c-0.1,0-0.2,0-0.3-0.1C32,57,32,56.8,32.2,56.6
		c0.6-0.7,1.3-1.3,2.2-1.6c0.2-0.1,0.5,0,0.5,0.3c0.1,0.2,0,0.5-0.3,0.5c-0.7,0.3-1.4,0.7-1.8,1.3C32.7,57.2,32.6,57.3,32.5,57.3z
		 M108.8,55.5h-2.5c-0.2,0-0.4-0.2-0.4-0.4c0-0.2,0.2-0.4,0.4-0.4h2.5c0.2,0,0.4,0.2,0.4,0.4C109.3,55.4,109.1,55.5,108.8,55.5z
		 M102.1,55.5h-2.5c-0.2,0-0.4-0.2-0.4-0.4c0-0.2,0.2-0.4,0.4-0.4h2.5c0.2,0,0.4,0.2,0.4,0.4C102.5,55.4,102.3,55.5,102.1,55.5z
		 M95.3,55.5h-2.5c-0.2,0-0.4-0.2-0.4-0.4c0-0.2,0.2-0.4,0.4-0.4h2.5c0.2,0,0.4,0.2,0.4,0.4C95.7,55.4,95.6,55.5,95.3,55.5z
		 M88.6,55.5H86c-0.2,0-0.4-0.2-0.4-0.4c0-0.2,0.2-0.4,0.4-0.4h2.5c0.2,0,0.4,0.2,0.4,0.4C89,55.4,88.8,55.5,88.6,55.5z M81.8,55.5
		h-2.5c-0.2,0-0.4-0.2-0.4-0.4c0-0.2,0.2-0.4,0.4-0.4h2.5c0.2,0,0.4,0.2,0.4,0.4C82.2,55.4,82,55.5,81.8,55.5z M75,55.5h-2.5
		c-0.2,0-0.4-0.2-0.4-0.4c0-0.2,0.2-0.4,0.4-0.4H75c0.2,0,0.4,0.2,0.4,0.4C75.5,55.4,75.3,55.5,75,55.5z M68.3,55.5h-2.5
		c-0.2,0-0.4-0.2-0.4-0.4c0-0.2,0.2-0.4,0.4-0.4h2.5c0.2,0,0.4,0.2,0.4,0.4C68.7,55.4,68.5,55.5,68.3,55.5z M61.5,55.5H59
		c-0.2,0-0.4-0.2-0.4-0.4c0-0.2,0.2-0.4,0.4-0.4h2.5c0.2,0,0.4,0.2,0.4,0.4C61.9,55.4,61.8,55.5,61.5,55.5z M54.8,55.5h-2.5
		c-0.2,0-0.4-0.2-0.4-0.4c0-0.2,0.2-0.4,0.4-0.4h2.5c0.2,0,0.4,0.2,0.4,0.4C55.2,55.4,55,55.5,54.8,55.5z M48,55.5h-2.5
		c-0.2,0-0.4-0.2-0.4-0.4c0-0.2,0.2-0.4,0.4-0.4H48c0.2,0,0.4,0.2,0.4,0.4C48.4,55.4,48.2,55.5,48,55.5z M41.2,55.5h-2.5
		c-0.2,0-0.4-0.2-0.4-0.4c0-0.2,0.2-0.4,0.4-0.4h2.5c0.2,0,0.4,0.2,0.4,0.4C41.7,55.4,41.5,55.5,41.2,55.5z"/>
</g>
<g>
	<path class="st2" d="M121.4,96H102c-3,0-5.4-2.4-5.4-5.4v-4.4c0-3,2.4-5.4,5.4-5.4h19.4V96z"/>
	<path class="st1" d="M121.4,96.4H102c-3.2,0-5.8-2.6-5.8-5.8v-4.4c0-3.2,2.6-5.8,5.8-5.8h19.4c0.2,0,0.4,0.2,0.4,0.4V96
		C121.8,96.2,121.6,96.4,121.4,96.4z M102,81.2c-2.7,0-5,2.2-5,5v4.4c0,2.7,2.2,5,5,5h19V81.2H102z"/>
</g>
<path class="st4" d="M59.4,43.3C39.7,44,33,32.3,33,32.3S26.2,44,6.6,43.3c0,0-2.7,33.6,26.4,47.8C62.1,76.9,59.4,43.3,59.4,43.3z"
	/>
<g>
	<path class="st0" d="M59.4,43.3C39.7,44,33,32.3,33,32.3S26.2,44,6.6,43.3c0,0-2.7,33.6,26.4,47.8C62.1,76.9,59.4,43.3,59.4,43.3z"
		/>
	<path class="st1" d="M33,91.5c-0.1,0-0.1,0-0.2,0C3.7,77.3,6.1,43.6,6.2,43.2c0-0.2,0.2-0.4,0.4-0.4c19.2,0.7,25.9-10.6,26-10.7
		c0.1-0.1,0.2-0.2,0.4-0.2c0,0,0,0,0,0c0.1,0,0.3,0.1,0.4,0.2c0.1,0.1,6.4,10.8,24.2,10.8c0,0,0,0,0,0c0.6,0,1.2,0,1.8,0
		c0.2,0,0.4,0.2,0.4,0.4c0,0.3,2.4,34.1-26.6,48.2C33.1,91.5,33,91.5,33,91.5z M7,43.7c-0.2,3.8-0.6,33.8,26,46.9
		c26.6-13.1,26.2-43.1,26-46.9c-17,0.5-24.4-8.3-26-10.6C31.3,35.4,23.9,44.2,7,43.7z"/>
</g>
<path class="st2" d="M33,86.1c-18.7-10.3-21.6-30-22-38.5c11.2-0.6,18.2-5,22-8.6c3.8,3.6,10.8,8,22,8.6
	C54.7,56.1,51.8,75.8,33,86.1z"/>
<path class="st4" d="M33,39.9c3.8,3.6,10.8,8,22,8.6c0-0.3,0-0.6,0-0.9c-11.2-0.6-18.2-5-22-8.6c-3.8,3.6-10.8,8-22,8.6
	c0,0.3,0,0.6,0,0.9C22.2,47.9,29.1,43.5,33,39.9z"/>
<g>
	<path class="st1" d="M33,86.5c-0.1,0-0.1,0-0.2-0.1C13.8,76,10.9,55.8,10.5,47.7c0-0.2,0.2-0.4,0.4-0.4c11.1-0.6,17.9-4.9,21.7-8.5
		c0.2-0.1,0.4-0.1,0.6,0c3.8,3.6,10.7,7.9,21.8,8.5c0.2,0,0.4,0.2,0.4,0.4c-0.3,8.2-3.1,28.3-22.3,38.8C33.1,86.5,33,86.5,33,86.5z
		 M11.4,48c0.4,8.3,3.4,27.5,21.6,37.6C51.3,75.5,54.2,56.3,54.6,48c-10.8-0.7-17.7-4.9-21.6-8.4C29,43.1,22.2,47.4,11.4,48z"/>
</g>
<circle class="st5" cx="78.8" cy="29.6" r="11.9"/>
<circle class="st6" cx="78.1" cy="28.1" r="11.9"/>
<path class="st4" d="M78.1,17c6.4,0,11.7,5.1,11.9,11.5c0-0.1,0-0.3,0-0.4c0-6.6-5.3-11.9-11.9-11.9s-11.9,5.3-11.9,11.9
	c0,0.1,0,0.3,0,0.4C66.4,22.1,71.6,17,78.1,17z"/>
<g>
	<path class="st1" d="M78.1,40.4c-6.8,0-12.3-5.5-12.3-12.3c0-6.8,5.5-12.3,12.3-12.3c6.8,0,12.3,5.5,12.3,12.3
		C90.4,34.9,84.9,40.4,78.1,40.4z M78.1,16.6c-6.3,0-11.5,5.2-11.5,11.5c0,6.3,5.2,11.5,11.5,11.5s11.5-5.2,11.5-11.5
		C89.6,21.7,84.4,16.6,78.1,16.6z"/>
</g>
<g>
	<path class="st4" d="M78.1,37.9c-5.4,0-9.9-4.4-9.9-9.9c0-5.4,4.4-9.9,9.9-9.9c5.4,0,9.9,4.4,9.9,9.9
		C87.9,33.5,83.5,37.9,78.1,37.9z M78.1,18.6c-5.2,0-9.4,4.2-9.4,9.4c0,5.2,4.2,9.4,9.4,9.4c5.2,0,9.4-4.2,9.4-9.4
		C87.5,22.9,83.3,18.6,78.1,18.6z"/>
</g>
<circle class="st3" cx="105.1" cy="89.3" r="3.8"/>
<g>
	<circle class="st7" cx="104.2" cy="88.4" r="3.8"/>
	<path class="st1" d="M104.2,92.6c-2.3,0-4.2-1.9-4.2-4.2s1.9-4.2,4.2-4.2c2.3,0,4.2,1.9,4.2,4.2S106.5,92.6,104.2,92.6z
		 M104.2,85.1c-1.9,0-3.4,1.5-3.4,3.4s1.5,3.4,3.4,3.4c1.9,0,3.4-1.5,3.4-3.4S106.1,85.1,104.2,85.1z"/>
</g>
<path class="st0" d="M33,42.8c4.1,2.9,10,5.8,18.4,6.5C50.8,57.4,47.7,73.4,33,83V42.8z"/>
<rect x="42.2" y="98.7" class="st3" width="28.4" height="12"/>
<rect x="41.3" y="97.8" class="st0" width="28.4" height="12"/>
<g>
	<path class="st1" d="M76.4,72.8c-0.1,0-0.2,0-0.3-0.1c-0.2-0.2-0.2-0.4,0-0.6l5.4-5.4c0.2-0.2,0.4-0.2,0.6,0c0.2,0.2,0.2,0.4,0,0.6
		l-5.4,5.4C76.6,72.7,76.5,72.8,76.4,72.8z"/>
</g>
<g>
	<path class="st1" d="M81.9,70.9c-0.1,0-0.2,0-0.3-0.1c-0.2-0.2-0.2-0.4,0-0.6l2.6-2.6c0.2-0.2,0.4-0.2,0.6,0c0.2,0.2,0.2,0.4,0,0.6
		l-2.6,2.6C82.1,70.8,82,70.9,81.9,70.9z"/>
</g>
<path class="st4" d="M82.5,30.5c0,1-0.4,1.9-1.1,2.6c-0.7,0.7-1.6,1-2.8,1.1l-0.1,2.1h-1.7l0.1-2.1c-0.9-0.1-1.7-0.4-2.2-0.9
	c-0.6-0.4-0.9-0.9-1.1-1.5v-1.2h2.1c0.1,0.3,0.3,0.6,0.5,0.8c0.2,0.2,0.5,0.4,0.9,0.5l0.1-3l-0.1,0c-1.1-0.2-1.9-0.6-2.5-1.2
	c-0.6-0.6-0.9-1.3-0.9-2.3c0-1.1,0.3-1.9,1-2.6c0.7-0.6,1.6-1,2.8-1.1l0.1-1.8h1.7l-0.1,1.9c0.8,0.1,1.5,0.4,2,0.8
	c0.5,0.4,0.8,0.9,1,1.5v1.2H80c-0.1-0.3-0.2-0.5-0.3-0.7c-0.1-0.2-0.3-0.4-0.6-0.5L79,26.9h0c1.1,0.2,2,0.6,2.6,1.2
	C82.2,28.7,82.5,29.5,82.5,30.5z M76.2,25.2c0,0.3,0.1,0.5,0.2,0.7c0.2,0.2,0.5,0.4,0.9,0.5l0.1-2.6c-0.4,0.1-0.7,0.2-0.9,0.4
	C76.3,24.6,76.2,24.9,76.2,25.2z M80,30.6c0-0.3-0.1-0.6-0.3-0.8c-0.2-0.2-0.5-0.4-0.9-0.6L78.8,32c0.4-0.1,0.7-0.2,0.9-0.5
	C79.9,31.3,80,31,80,30.6z"/>
<circle class="st5" cx="150" cy="87.2" r="10"/>
<circle class="st6" cx="149.4" cy="85.9" r="10"/>
<path class="st4" d="M149.4,76.8c5.4,0,9.7,4.2,9.9,9.5c0-0.1,0-0.3,0-0.4c0-5.5-4.5-10-10-10c-5.5,0-10,4.5-10,10
	c0,0.1,0,0.3,0,0.4C139.7,81.1,144,76.8,149.4,76.8z"/>
<g>
	<path class="st1" d="M149.4,96.3c-5.7,0-10.4-4.7-10.4-10.4c0-5.7,4.7-10.4,10.4-10.4c5.7,0,10.4,4.7,10.4,10.4
		C159.8,91.6,155.1,96.3,149.4,96.3z M149.4,76.4c-5.3,0-9.5,4.3-9.5,9.5c0,5.3,4.3,9.5,9.5,9.5c5.3,0,9.5-4.3,9.5-9.5
		C158.9,80.7,154.7,76.4,149.4,76.4z"/>
</g>
<g>
	<path class="st4" d="M149.4,94.2c-4.6,0-8.3-3.7-8.3-8.3c0-4.6,3.7-8.3,8.3-8.3c4.6,0,8.3,3.7,8.3,8.3
		C157.7,90.5,154,94.2,149.4,94.2z M149.4,78.1c-4.3,0-7.8,3.5-7.8,7.8c0,4.3,3.5,7.8,7.8,7.8c4.3,0,7.8-3.5,7.8-7.8
		C157.2,81.6,153.7,78.1,149.4,78.1z"/>
</g>
<circle class="st5" cx="134.4" cy="37" r="21.5"/>
<circle class="st2" cx="132.7" cy="35.4" r="21.5"/>
<path class="st4" d="M132.7,14.7c11.8,0,21.3,9.4,21.5,21.1c0-0.1,0-0.3,0-0.4c0-11.9-9.6-21.5-21.5-21.5s-21.5,9.6-21.5,21.5
	c0,0.1,0,0.3,0,0.4C111.4,24.1,121,14.7,132.7,14.7z"/>
<g>
	<path class="st1" d="M132.7,57.3c-12.1,0-22-9.8-22-22c0-12.1,9.8-22,22-22c12.1,0,22,9.8,22,22C154.7,47.5,144.8,57.3,132.7,57.3z
		 M132.7,14.2c-11.6,0-21.1,9.5-21.1,21.1s9.5,21.1,21.1,21.1c11.6,0,21.1-9.5,21.1-21.1S144.4,14.2,132.7,14.2z"/>
</g>
<g>
	<path class="st1" d="M50.3,34.5c-0.2,0-0.4-0.2-0.4-0.4c0-0.6-0.1-1.1-0.3-1.6c-0.2-0.5-0.5-1-0.9-1.3c-0.4-0.4-0.8-0.7-1.3-0.9
		c-0.5-0.2-1.1-0.3-1.6-0.3c-0.2,0-0.4-0.2-0.4-0.4c0-0.2,0.2-0.4,0.4-0.4c0.6,0,1.1-0.1,1.6-0.3c0.5-0.2,1-0.5,1.3-0.9
		c0.4-0.4,0.7-0.8,0.9-1.3c0.2-0.5,0.3-1.1,0.3-1.6c0-0.2,0.2-0.4,0.4-0.4c0.2,0,0.4,0.2,0.4,0.4c0,0.6,0.1,1.1,0.3,1.6
		c0.2,0.5,0.5,1,0.9,1.3c0.4,0.4,0.8,0.7,1.3,0.9c0.5,0.2,1.1,0.3,1.6,0.3c0.2,0,0.4,0.2,0.4,0.4c0,0.2-0.2,0.4-0.4,0.4
		c-0.6,0-1.1,0.1-1.6,0.3c-0.5,0.2-1,0.5-1.3,0.9c-0.4,0.4-0.7,0.8-0.9,1.3c-0.2,0.5-0.3,1.1-0.3,1.6C50.8,34.4,50.6,34.5,50.3,34.5
		z M47.7,29.5c0.6,0.3,1.1,0.6,1.5,1.1c0.4,0.4,0.8,1,1.1,1.6c0.3-0.6,0.6-1.1,1.1-1.6c0.4-0.4,1-0.8,1.5-1.1
		c-0.6-0.3-1.1-0.6-1.5-1.1c-0.4-0.4-0.8-1-1.1-1.6c-0.3,0.6-0.6,1.1-1.1,1.6C48.8,28.9,48.3,29.2,47.7,29.5z"/>
</g>
<g>
	<path class="st1" d="M14.7,37.4C14.7,37.4,14.7,37.4,14.7,37.4l0-0.4L14.7,37.4C14.7,37.4,14.7,37.4,14.7,37.4z M14.7,37.4
		c-0.4,0-0.7,0-1-0.1l0.2-0.9c0.2,0.1,0.5,0.1,0.7,0.1L14.7,37.4z M15.6,37.2l-0.2-0.9c0.2-0.1,0.5-0.2,0.7-0.3l0.4,0.8
		C16.3,37,16,37.2,15.6,37.2z M12.8,36.9c-0.3-0.2-0.5-0.4-0.8-0.6l0.6-0.6c0.2,0.2,0.4,0.3,0.6,0.4L12.8,36.9z M17.3,36.3l-0.6-0.6
		c0.2-0.2,0.3-0.4,0.4-0.6l0.8,0.4C17.7,35.8,17.5,36.1,17.3,36.3z M11.5,35.5c-0.2-0.3-0.3-0.6-0.4-0.9l0.8-0.2
		c0.1,0.2,0.2,0.5,0.3,0.7L11.5,35.5z M18.3,34.6l-0.9-0.2c0.1-0.2,0.1-0.5,0.1-0.7l0.9,0v0C18.4,34,18.3,34.3,18.3,34.6z M11,33.7
		L11,33.7c0-0.3,0-0.7,0.1-1l0.9,0.2c-0.1,0.2-0.1,0.5-0.1,0.7L11,33.7z M17.4,32.9c-0.1-0.2-0.2-0.5-0.3-0.7l0.8-0.4
		c0.2,0.3,0.3,0.6,0.4,0.9L17.4,32.9z M12.2,32.3l-0.8-0.4c0.2-0.3,0.4-0.5,0.6-0.8l0.6,0.6C12.5,31.8,12.3,32,12.2,32.3z
		 M16.7,31.6c-0.2-0.2-0.4-0.3-0.6-0.4l0.4-0.8c0.3,0.2,0.5,0.4,0.8,0.6L16.7,31.6z M13.2,31.2l-0.4-0.8c0.3-0.2,0.6-0.3,0.9-0.4
		l0.2,0.8C13.7,31,13.4,31.1,13.2,31.2z M15.4,30.9c-0.2-0.1-0.5-0.1-0.7-0.1l0-0.9h0c0.3,0,0.6,0,0.9,0.1L15.4,30.9z"/>
</g>
<g>
	<g>
		<path class="st1" d="M30,15.7c-0.1,0-0.2,0-0.3-0.1c-0.2-0.2-0.2-0.4,0-0.6l1.2-1.2c0.2-0.2,0.4-0.2,0.6,0s0.2,0.4,0,0.6l-1.2,1.2
			C30.2,15.7,30.1,15.7,30,15.7z"/>
	</g>
	<g>
		<path class="st1" d="M28.4,15.8c-0.1,0-0.2,0-0.3-0.1l-1.2-1.2c-0.2-0.2-0.2-0.4,0-0.6c0.2-0.2,0.4-0.2,0.6,0l1.2,1.2
			c0.2,0.2,0.2,0.4,0,0.6C28.6,15.7,28.5,15.8,28.4,15.8z"/>
	</g>
	<g>
		<path class="st1" d="M27.2,18.6c-0.1,0-0.2,0-0.3-0.1c-0.2-0.2-0.2-0.4,0-0.6l1.2-1.2c0.2-0.2,0.4-0.2,0.6,0s0.2,0.4,0,0.6
			l-1.2,1.2C27.4,18.6,27.3,18.6,27.2,18.6z"/>
	</g>
	<g>
		<path class="st1" d="M31.2,18.6c-0.1,0-0.2,0-0.3-0.1l-1.2-1.2c-0.2-0.2-0.2-0.4,0-0.6c0.2-0.2,0.4-0.2,0.6,0l1.2,1.2
			c0.2,0.2,0.2,0.4,0,0.6C31.4,18.6,31.3,18.6,31.2,18.6z"/>
	</g>
</g>
<g>
	<path class="st3" d="M142.9,50.9h-17c-1.2,0-2.1-1-2.1-2.1V35.6c0-1.2,1-2.1,2.1-2.1h17c1.2,0,2.1,1,2.1,2.1v13.2
		C145.1,49.9,144.1,50.9,142.9,50.9z"/>
	<path class="st3" d="M134.3,22.1h-0.1c-3.4,0-6.1,2.7-6.1,6.1v5.2h2.1v-5.2c0-2.2,1.8-4,4-4h0.1c2.2,0,4,1.8,4,4v5.2h2.1v-5.2
		C140.4,24.9,137.7,22.1,134.3,22.1z"/>
	<g>
		<path class="st4" d="M141.2,49.2h-17c-1.2,0-2.1-1-2.1-2.1V33.9c0-1.2,1-2.1,2.1-2.1h17c1.2,0,2.1,1,2.1,2.1v13.2
			C143.4,48.2,142.4,49.2,141.2,49.2z"/>
		<path class="st1" d="M141.2,49.6h-17c-1.4,0-2.6-1.2-2.6-2.6V33.9c0-1.4,1.2-2.6,2.6-2.6h17c1.4,0,2.6,1.2,2.6,2.6v13.2
			C143.8,48.5,142.7,49.6,141.2,49.6z M124.2,32.2c-1,0-1.7,0.8-1.7,1.7v13.2c0,1,0.8,1.7,1.7,1.7h17c1,0,1.7-0.8,1.7-1.7V33.9
			c0-1-0.8-1.7-1.7-1.7H124.2z"/>
	</g>
	<g>
		<path class="st2" d="M135.2,39.1c0-1.4-1.1-2.4-2.4-2.4s-2.4,1.1-2.4,2.4c0,1,0.6,1.8,1.4,2.2v4.2h2.1v-4.2
			C134.6,40.9,135.2,40.1,135.2,39.1z"/>
		<path class="st1" d="M133.8,46h-2.1c-0.2,0-0.4-0.2-0.4-0.4v-3.9c-0.9-0.5-1.4-1.4-1.4-2.4c0-1.6,1.3-2.9,2.9-2.9
			c1.6,0,2.9,1.3,2.9,2.9c0,1-0.5,1.9-1.4,2.4v3.9C134.2,45.8,134.1,46,133.8,46z M132.1,45.1h1.3v-3.8c0-0.2,0.1-0.3,0.2-0.4
			c0.7-0.3,1.1-1,1.1-1.8c0-1.1-0.9-2-2-2c-1.1,0-2,0.9-2,2c0,0.8,0.4,1.5,1.1,1.8c0.1,0.1,0.2,0.2,0.2,0.4V45.1z"/>
	</g>
	<g>
		<path class="st4" d="M132.6,20.4h-0.1c-3.4,0-6.1,2.7-6.1,6.1v5.2h2.1v-5.2c0-2.2,1.8-4,4-4h0.1c2.2,0,4,1.8,4,4v5.2h2.1v-5.2
			C138.7,23.2,136,20.4,132.6,20.4z"/>
		<path class="st1" d="M138.7,32.2h-2.1c-0.2,0-0.4-0.2-0.4-0.4v-5.2c0-2-1.6-3.5-3.5-3.5h-0.1c-2,0-3.5,1.6-3.5,3.5v5.2
			c0,0.2-0.2,0.4-0.4,0.4h-2.1c-0.2,0-0.4-0.2-0.4-0.4v-5.2c0-3.6,2.9-6.5,6.5-6.5h0.1c3.6,0,6.5,2.9,6.5,6.5v5.2
			C139.2,32,139,32.2,138.7,32.2z M137,31.3h1.3v-4.8c0-3.1-2.6-5.7-5.7-5.7h-0.1c-3.1,0-5.7,2.6-5.7,5.7v4.8h1.3v-4.8
			c0-2.4,2-4.4,4.4-4.4h0.1c2.4,0,4.4,2,4.4,4.4V31.3z"/>
	</g>
	<g>
		<g>
			<path class="st1" d="M143.4,38.4h-1.9c-0.2,0-0.4-0.2-0.4-0.4c0-0.2,0.2-0.4,0.4-0.4h1.9c0.2,0,0.4,0.2,0.4,0.4
				C143.8,38.3,143.6,38.4,143.4,38.4z"/>
		</g>
		<g>
			<path class="st1" d="M143.4,40.3h-1.9c-0.2,0-0.4-0.2-0.4-0.4c0-0.2,0.2-0.4,0.4-0.4h1.9c0.2,0,0.4,0.2,0.4,0.4
				C143.8,40.1,143.6,40.3,143.4,40.3z"/>
		</g>
		<g>
			<path class="st1" d="M143.4,42.2h-1.9c-0.2,0-0.4-0.2-0.4-0.4c0-0.2,0.2-0.4,0.4-0.4h1.9c0.2,0,0.4,0.2,0.4,0.4
				C143.8,42,143.6,42.2,143.4,42.2z"/>
		</g>
	</g>
</g>
<g>
	<path class="st4" d="M69.7,53.8h-2.1c-0.2,0-0.4-0.2-0.4-0.4c0-0.2,0.2-0.4,0.4-0.4h2.1c0.2,0,0.4,0.2,0.4,0.4
		C70.1,53.7,69.9,53.8,69.7,53.8z"/>
</g>
<g>
	<path class="st4" d="M81.9,53.8H72c-0.2,0-0.4-0.2-0.4-0.4c0-0.2,0.2-0.4,0.4-0.4h9.8c0.2,0,0.4,0.2,0.4,0.4
		C82.3,53.7,82.1,53.8,81.9,53.8z"/>
</g>
<g>
	<path class="st4" d="M103.1,83h-1.8c-0.2,0-0.4-0.2-0.4-0.4c0-0.2,0.2-0.4,0.4-0.4h1.8c0.2,0,0.4,0.2,0.4,0.4
		C103.5,82.8,103.3,83,103.1,83z"/>
</g>
<g>
	<path class="st4" d="M113.6,83h-8.5c-0.2,0-0.4-0.2-0.4-0.4c0-0.2,0.2-0.4,0.4-0.4h8.5c0.2,0,0.4,0.2,0.4,0.4
		C114,82.8,113.8,83,113.6,83z"/>
</g>
<g>
	<path class="st1" d="M138.7,126.5h-6.9c-0.2,0-0.4-0.2-0.4-0.4c0-0.2,0.2-0.4,0.4-0.4h6.9c0.2,0,0.4,0.2,0.4,0.4
		C139.2,126.3,139,126.5,138.7,126.5z"/>
</g>
<polygon class="st1" points="133.9,112 129.8,112.2 131.7,108.6 "/>
<polygon class="st1" points="130.5,114.1 126.4,114.2 128.3,110.6 "/>
<path class="st4" d="M153.1,87.9c0,0.9-0.3,1.6-0.9,2.1c-0.6,0.5-1.4,0.9-2.3,1l-0.1,1.7h-1.4l0.1-1.8c-0.8-0.1-1.4-0.4-1.9-0.7
	c-0.5-0.4-0.8-0.8-1-1.3v-1h1.7c0.1,0.3,0.2,0.5,0.4,0.7c0.2,0.2,0.4,0.3,0.7,0.4l0.1-2.5l-0.1,0c-0.9-0.2-1.6-0.5-2.1-1
	c-0.5-0.5-0.7-1.1-0.7-1.9c0-0.9,0.3-1.6,0.9-2.1c0.6-0.5,1.4-0.8,2.3-0.9l0.1-1.5h1.4l-0.1,1.6c0.7,0.1,1.2,0.3,1.6,0.7
	c0.4,0.3,0.7,0.8,0.8,1.3v1H151c-0.1-0.2-0.2-0.4-0.3-0.6c-0.1-0.2-0.3-0.3-0.5-0.4l-0.1,2.4h0c0.9,0.2,1.6,0.5,2.2,1
	C152.9,86.4,153.1,87.1,153.1,87.9z M147.8,83.5c0,0.2,0.1,0.4,0.2,0.6c0.1,0.2,0.4,0.3,0.8,0.4l0.1-2.1c-0.3,0.1-0.6,0.2-0.8,0.4
	C147.9,83,147.8,83.2,147.8,83.5z M151,88c0-0.3-0.1-0.5-0.2-0.7c-0.1-0.2-0.4-0.3-0.7-0.5l-0.1,2.3c0.3-0.1,0.6-0.2,0.8-0.4
	S151,88.3,151,88z"/>
</svg>
