<?xml version="1.0" encoding="utf-8"?>
<!-- Generator: Adobe Illustrator 21.1.0, SVG Export Plug-In . SVG Version: 6.00 Build 0)  -->
<svg version="1.1" id="Layer_1" xmlns="http://www.w3.org/2000/svg" xmlns:xlink="http://www.w3.org/1999/xlink" x="0px" y="0px"
	 viewBox="0 0 161 153" style="enable-background:new 0 0 161 153;" xml:space="preserve">
<style type="text/css">
	.st0{fill:#EFF8FF;}
	.st1{fill:#0C60FF;}
	.st2{opacity:0.5;fill:#B3CDFF;}
	.st3{fill:#B3CDFF;}
	.st4{fill:#FFFFFF;}
	.st5{fill:#8FB5FF;}
	.st6{fill:#F2F7FA;}
	.st7{fill:#E18C44;}
</style>
<g>
	<circle class="st0" cx="80.8" cy="78.2" r="70.2"/>
	<g>
		<g>
			<path class="st1" d="M49.7,92.4c-0.1,0-0.2,0-0.3-0.1c-0.5-0.5-1-1-1.5-1.5c-0.2-0.2-0.2-0.4,0-0.6c0.2-0.2,0.4-0.2,0.6,0
				c0.5,0.5,1,1,1.5,1.5c0.2,0.2,0.2,0.4,0,0.6C49.9,92.3,49.8,92.4,49.7,92.4z"/>
		</g>
		<g>
			<path class="st1" d="M45.5,87.7c-0.1,0-0.3-0.1-0.3-0.2c-0.9-1.1-1.7-2.3-2.4-3.4c-0.1-0.2-0.1-0.5,0.1-0.6
				c0.2-0.1,0.5-0.1,0.6,0.1c0.7,1.2,1.5,2.3,2.4,3.4c0.1,0.2,0.1,0.5-0.1,0.6C45.6,87.7,45.6,87.7,45.5,87.7z M120.4,85.4
				c-0.1,0-0.2,0-0.2-0.1c-0.2-0.1-0.2-0.4-0.1-0.6c0.8-1.1,1.5-2.3,2.2-3.5c0.1-0.2,0.4-0.3,0.6-0.2c0.2,0.1,0.3,0.4,0.2,0.6
				c-0.7,1.2-1.4,2.4-2.2,3.6C120.7,85.4,120.6,85.4,120.4,85.4z M40.9,80.7c-0.2,0-0.3-0.1-0.4-0.2c-0.6-1.2-1.3-2.5-1.8-3.8
				c-0.1-0.2,0-0.5,0.2-0.6c0.2-0.1,0.5,0,0.6,0.2c0.5,1.3,1.1,2.5,1.8,3.7c0.1,0.2,0,0.5-0.2,0.6C41.1,80.7,41,80.7,40.9,80.7z
				 M124.5,78.2c-0.1,0-0.1,0-0.2,0c-0.2-0.1-0.3-0.3-0.2-0.6c0.6-1.3,1.1-2.5,1.5-3.8c0.1-0.2,0.3-0.3,0.5-0.3
				c0.2,0.1,0.3,0.3,0.3,0.5c-0.5,1.3-1,2.6-1.6,3.9C124.8,78.1,124.7,78.2,124.5,78.2z M37.7,73c-0.2,0-0.3-0.1-0.4-0.3
				c-0.4-1.3-0.8-2.7-1.1-4.1c0-0.2,0.1-0.5,0.3-0.5c0.2-0.1,0.5,0.1,0.5,0.3c0.3,1.3,0.6,2.7,1.1,4c0.1,0.2-0.1,0.5-0.3,0.5
				C37.8,73,37.8,73,37.7,73z M127.2,70.3c0,0-0.1,0-0.1,0c-0.2-0.1-0.4-0.3-0.3-0.5c0.3-1.3,0.6-2.7,0.8-4.1c0-0.2,0.3-0.4,0.5-0.4
				c0.2,0,0.4,0.3,0.4,0.5c-0.2,1.4-0.5,2.8-0.8,4.1C127.6,70.1,127.4,70.3,127.2,70.3z M36,64.8c-0.2,0-0.4-0.2-0.4-0.4
				c-0.2-1.4-0.3-2.8-0.3-4.2c0-0.2,0.2-0.4,0.4-0.4c0.3,0,0.4,0.2,0.4,0.4c0,1.4,0.2,2.8,0.3,4.1C36.4,64.6,36.3,64.8,36,64.8
				C36,64.8,36,64.8,36,64.8z M128.5,62C128.5,62,128.5,62,128.5,62c-0.3,0-0.4-0.2-0.4-0.5c0.1-0.9,0.1-1.9,0.1-2.9
				c0-0.4,0-0.9,0-1.3c0-0.2,0.2-0.4,0.4-0.4c0,0,0,0,0,0c0.2,0,0.4,0.2,0.4,0.4c0,0.4,0,0.9,0,1.3c0,1,0,1.9-0.1,2.9
				C128.9,61.8,128.7,62,128.5,62z M35.7,56.5C35.7,56.5,35.7,56.5,35.7,56.5c-0.3,0-0.4-0.2-0.4-0.4c0.1-1.4,0.2-2.8,0.4-4.2
				c0-0.2,0.2-0.4,0.5-0.4c0.2,0,0.4,0.3,0.4,0.5c-0.2,1.4-0.3,2.7-0.4,4.1C36.1,56.3,36,56.5,35.7,56.5z M128.3,53.7
				c-0.2,0-0.4-0.2-0.4-0.4c-0.2-1.4-0.4-2.7-0.7-4.1c0-0.2,0.1-0.5,0.3-0.5c0.2,0,0.5,0.1,0.5,0.3c0.3,1.4,0.5,2.8,0.7,4.2
				C128.7,53.4,128.6,53.6,128.3,53.7C128.3,53.7,128.3,53.7,128.3,53.7z M36.9,48.2C36.9,48.2,36.9,48.2,36.9,48.2
				c-0.3-0.1-0.5-0.3-0.4-0.5c0.3-1.4,0.7-2.7,1.2-4c0.1-0.2,0.3-0.3,0.5-0.3c0.2,0.1,0.3,0.3,0.3,0.5c-0.4,1.3-0.8,2.6-1.1,4
				C37.3,48.1,37.1,48.2,36.9,48.2z M126.6,45.5c-0.2,0-0.4-0.1-0.4-0.3c-0.4-1.3-0.9-2.6-1.4-3.9c-0.1-0.2,0-0.5,0.2-0.6
				c0.2-0.1,0.5,0,0.6,0.2c0.5,1.3,1,2.6,1.4,4c0.1,0.2-0.1,0.5-0.3,0.5C126.6,45.5,126.6,45.5,126.6,45.5z M39.6,40.3
				c-0.1,0-0.1,0-0.2,0c-0.2-0.1-0.3-0.3-0.2-0.6c0.6-1.3,1.2-2.5,1.9-3.8c0.1-0.2,0.4-0.3,0.6-0.2c0.2,0.1,0.3,0.4,0.2,0.6
				c-0.7,1.2-1.3,2.4-1.8,3.7C39.9,40.2,39.8,40.3,39.6,40.3z M123.4,37.8c-0.2,0-0.3-0.1-0.4-0.2c-0.6-1.2-1.3-2.4-2.1-3.6
				c-0.1-0.2-0.1-0.5,0.1-0.6c0.2-0.1,0.5-0.1,0.6,0.1c0.8,1.2,1.5,2.4,2.1,3.6c0.1,0.2,0,0.5-0.2,0.6
				C123.5,37.8,123.5,37.8,123.4,37.8z M43.7,33c-0.1,0-0.2,0-0.2-0.1c-0.2-0.1-0.2-0.4-0.1-0.6c0.8-1.2,1.6-2.3,2.5-3.4
				c0.1-0.2,0.4-0.2,0.6-0.1c0.2,0.1,0.2,0.4,0.1,0.6c-0.9,1.1-1.7,2.2-2.5,3.3C43.9,33,43.8,33,43.7,33z M118.9,30.7
				c-0.1,0-0.3-0.1-0.3-0.2c-0.8-1.1-1.7-2.1-2.7-3.2c-0.2-0.2-0.1-0.4,0-0.6c0.2-0.2,0.4-0.2,0.6,0c1,1,1.9,2.1,2.7,3.2
				c0.1,0.2,0.1,0.5-0.1,0.6C119.1,30.7,119,30.7,118.9,30.7z M49,26.6c-0.1,0-0.2,0-0.3-0.1c-0.2-0.2-0.2-0.4,0-0.6
				c1-1,2-2,3.1-2.9c0.2-0.2,0.4-0.1,0.6,0c0.2,0.2,0.1,0.4,0,0.6c-1,0.9-2.1,1.8-3,2.8C49.2,26.5,49.1,26.6,49,26.6z M113.2,24.6
				c-0.1,0-0.2,0-0.3-0.1c-1-0.9-2.1-1.8-3.2-2.6c-0.2-0.1-0.2-0.4-0.1-0.6c0.1-0.2,0.4-0.2,0.6-0.1c1.1,0.8,2.2,1.7,3.3,2.7
				c0.2,0.2,0.2,0.4,0,0.6C113.5,24.6,113.4,24.6,113.2,24.6z M55.3,21.2c-0.1,0-0.3-0.1-0.3-0.2c-0.1-0.2-0.1-0.5,0.1-0.6
				c1.1-0.8,2.3-1.6,3.5-2.3c0.2-0.1,0.5,0,0.6,0.2c0.1,0.2,0,0.5-0.2,0.6c-1.2,0.7-2.4,1.4-3.5,2.2C55.5,21.1,55.4,21.2,55.3,21.2z
				 M106.6,19.6c-0.1,0-0.2,0-0.2-0.1c-1.2-0.7-2.4-1.4-3.6-2c-0.2-0.1-0.3-0.4-0.2-0.6c0.1-0.2,0.4-0.3,0.6-0.2
				c1.3,0.6,2.5,1.3,3.7,2.1c0.2,0.1,0.3,0.4,0.1,0.6C106.9,19.5,106.7,19.6,106.6,19.6z M62.5,17c-0.2,0-0.3-0.1-0.4-0.2
				c-0.1-0.2,0-0.5,0.2-0.6c1.3-0.6,2.6-1.1,3.9-1.6c0.2-0.1,0.5,0,0.5,0.3c0.1,0.2,0,0.5-0.3,0.5c-1.3,0.5-2.6,1-3.8,1.6
				C62.7,17,62.6,17,62.5,17z M99.1,15.9c-0.1,0-0.1,0-0.2,0c-1.3-0.5-2.6-1-3.9-1.3c-0.2-0.1-0.4-0.3-0.3-0.5
				c0.1-0.2,0.3-0.4,0.5-0.3c1.3,0.4,2.7,0.9,4,1.4c0.2,0.1,0.3,0.3,0.2,0.6C99.4,15.8,99.3,15.9,99.1,15.9z M70.4,14.2
				c-0.2,0-0.4-0.1-0.4-0.3c-0.1-0.2,0.1-0.5,0.3-0.5c1.4-0.4,2.7-0.6,4.1-0.9c0.2,0,0.5,0.1,0.5,0.4c0,0.2-0.1,0.5-0.3,0.5
				c-1.4,0.2-2.7,0.5-4,0.9C70.5,14.2,70.4,14.2,70.4,14.2z M91.1,13.5C91.1,13.5,91,13.5,91.1,13.5c-1.4-0.3-2.8-0.5-4.2-0.6
				c-0.2,0-0.4-0.2-0.4-0.5c0-0.2,0.2-0.4,0.5-0.4c1.4,0.1,2.8,0.4,4.2,0.6c0.2,0,0.4,0.3,0.3,0.5C91.5,13.4,91.3,13.5,91.1,13.5z
				 M78.6,12.8c-0.2,0-0.4-0.2-0.4-0.4c0-0.2,0.2-0.4,0.4-0.5c1.4-0.1,2.8-0.1,4.2-0.1c0.2,0,0.4,0.2,0.4,0.4c0,0.2-0.2,0.4-0.4,0.4
				c0,0,0,0,0,0C81.4,12.7,80,12.7,78.6,12.8C78.6,12.8,78.6,12.8,78.6,12.8z"/>
		</g>
		<g>
			<path class="st1" d="M116.4,90.5c-0.1,0-0.2,0-0.3-0.1c-0.2-0.2-0.2-0.4,0-0.6c0.5-0.5,0.9-1,1.4-1.6c0.2-0.2,0.4-0.2,0.6-0.1
				c0.2,0.2,0.2,0.4,0.1,0.6c-0.5,0.5-0.9,1.1-1.4,1.6C116.7,90.4,116.6,90.5,116.4,90.5z"/>
		</g>
	</g>
	<g>
		<path class="st1" d="M125.9,128.9H38.3c-0.2,0-0.4-0.2-0.4-0.4s0.2-0.4,0.4-0.4h87.6c0.2,0,0.4,0.2,0.4,0.4
			S126.2,128.9,125.9,128.9z"/>
	</g>
	<circle class="st2" cx="132.4" cy="62.6" r="13.5"/>
	<circle class="st3" cx="130.9" cy="61" r="13.5"/>
	<path class="st4" d="M130.9,48.3c7.3,0,13.3,5.8,13.5,13.1c0-0.1,0-0.3,0-0.4c0-7.5-6-13.5-13.5-13.5c-7.5,0-13.5,6-13.5,13.5
		c0,0.1,0,0.3,0,0.4C117.6,54.2,123.6,48.3,130.9,48.3z"/>
	<g>
		<path class="st1" d="M130.9,75C123.2,75,117,68.7,117,61s6.2-13.9,13.9-13.9s13.9,6.2,13.9,13.9S138.5,75,130.9,75z M130.9,48
			c-7.2,0-13.1,5.9-13.1,13.1c0,7.2,5.9,13.1,13.1,13.1c7.2,0,13.1-5.9,13.1-13.1C143.9,53.8,138.1,48,130.9,48z"/>
	</g>
	<g>
		<path class="st4" d="M134.3,66.7h-7.9c-0.4,0-0.7-0.3-0.8-0.7l-1-4.8c-0.1-0.5,0.2-0.9,0.7-1c0.5-0.1,0.9,0.2,1,0.7l0.9,4.1h6.5
			l1.5-8.9c0.1-0.4,0.4-0.7,0.8-0.7h2c0.5,0,0.9,0.4,0.9,0.9c0,0.5-0.4,0.9-0.9,0.9h-1.3l-1.5,8.9C135.1,66.4,134.8,66.7,134.3,66.7
			z"/>
	</g>
	<g>
		<path class="st4" d="M135.2,61.9h-9.7c-0.5,0-0.9-0.4-0.9-0.9s0.4-0.9,0.9-0.9h9.7c0.5,0,0.9,0.4,0.9,0.9S135.6,61.9,135.2,61.9z"
			/>
	</g>
	<g>
		<path class="st4" d="M134.7,64.4H126c-0.5,0-0.9-0.4-0.9-0.9c0-0.5,0.4-0.9,0.9-0.9h8.7c0.5,0,0.9,0.4,0.9,0.9
			C135.6,64.1,135.2,64.4,134.7,64.4z"/>
	</g>
	<circle class="st4" cx="128.5" cy="68.6" r="0.9"/>
	<circle class="st4" cx="132.1" cy="68.6" r="0.9"/>
	<g>
		<path class="st1" d="M57.7,11.6c-0.2,0-0.4-0.2-0.4-0.4c0-0.5-0.1-1-0.3-1.5c-0.2-0.5-0.5-0.9-0.8-1.2c-0.4-0.4-0.8-0.6-1.2-0.8
			c-0.5-0.2-1-0.3-1.5-0.3c-0.2,0-0.4-0.2-0.4-0.4c0-0.2,0.2-0.4,0.4-0.4c0.5,0,1-0.1,1.5-0.3c0.5-0.2,0.9-0.5,1.2-0.8
			c0.4-0.4,0.6-0.8,0.8-1.2c0.2-0.5,0.3-1,0.3-1.5c0-0.2,0.2-0.4,0.4-0.4c0.2,0,0.4,0.2,0.4,0.4c0,0.5,0.1,1,0.3,1.5
			c0.2,0.5,0.5,0.9,0.8,1.2c0.4,0.4,0.8,0.6,1.2,0.8c0.5,0.2,1,0.3,1.5,0.3c0.2,0,0.4,0.2,0.4,0.4c0,0.2-0.2,0.4-0.4,0.4
			c-0.5,0-1,0.1-1.5,0.3c-0.5,0.2-0.9,0.5-1.2,0.8c-0.4,0.4-0.6,0.8-0.8,1.2c-0.2,0.5-0.3,1-0.3,1.5C58.1,11.4,57.9,11.6,57.7,11.6z
			 M55.3,6.9c0.5,0.2,1,0.6,1.4,1c0.4,0.4,0.7,0.9,1,1.4c0.2-0.5,0.6-1,1-1.4c0.4-0.4,0.9-0.7,1.4-1c-0.5-0.2-1-0.6-1.4-1
			c-0.4-0.4-0.7-0.9-1-1.4c-0.2,0.5-0.6,1-1,1.4C56.3,6.3,55.8,6.6,55.3,6.9z"/>
	</g>
	<g>
		<path class="st1" d="M41.5,13.8C41.5,13.8,41.5,13.8,41.5,13.8l0-0.4L41.5,13.8C41.5,13.8,41.5,13.8,41.5,13.8z M41.5,13.8
			c-0.3,0-0.6,0-0.9-0.1l0.2-0.8C41,13,41.2,13,41.4,13L41.5,13.8z M42.4,13.7l-0.2-0.8c0.2-0.1,0.4-0.1,0.6-0.3l0.4,0.7
			C42.9,13.5,42.7,13.6,42.4,13.7z M39.7,13.4c-0.3-0.2-0.5-0.3-0.7-0.6l0.6-0.6c0.2,0.2,0.3,0.3,0.5,0.4L39.7,13.4z M43.9,12.8
			l-0.6-0.6c0.2-0.2,0.3-0.3,0.4-0.5l0.7,0.4C44.3,12.4,44.1,12.6,43.9,12.8z M38.4,12.1c-0.2-0.3-0.3-0.5-0.4-0.8l0.8-0.2
			c0.1,0.2,0.2,0.4,0.3,0.6L38.4,12.1z M44.8,11.3L44,11c0.1-0.2,0.1-0.5,0.1-0.7l0.8,0v0C44.9,10.7,44.9,11,44.8,11.3z M38,10.4
			L38,10.4c0-0.3,0-0.6,0.1-0.9l0.8,0.2c-0.1,0.2-0.1,0.4-0.1,0.7L38,10.4z M44,9.6c-0.1-0.2-0.2-0.4-0.3-0.6l0.7-0.4
			c0.2,0.3,0.3,0.5,0.4,0.8L44,9.6z M39.1,9l-0.7-0.4c0.2-0.3,0.3-0.5,0.5-0.7l0.6,0.6C39.4,8.7,39.3,8.8,39.1,9z M43.3,8.5
			C43.1,8.3,43,8.2,42.8,8l0.4-0.7c0.3,0.1,0.5,0.3,0.7,0.5L43.3,8.5z M40.1,8.1l-0.4-0.7c0.3-0.2,0.5-0.3,0.8-0.4l0.2,0.8
			C40.5,7.9,40.3,8,40.1,8.1z M42.1,7.8c-0.2-0.1-0.4-0.1-0.7-0.1l0-0.8h0c0.3,0,0.6,0,0.9,0.1L42.1,7.8z"/>
	</g>
	<g>
		<g>
			<path class="st1" d="M37.2,22.2c-0.1,0-0.2,0-0.3-0.1c-0.2-0.2-0.2-0.4,0-0.6l1.1-1.1c0.2-0.2,0.4-0.2,0.6,0
				c0.2,0.2,0.2,0.4,0,0.6l-1.1,1.1C37.4,22.1,37.3,22.2,37.2,22.2z"/>
		</g>
		<g>
			<path class="st1" d="M35.6,22.2c-0.1,0-0.2,0-0.3-0.1L34.2,21c-0.2-0.2-0.2-0.4,0-0.6c0.2-0.2,0.4-0.2,0.6,0l1.1,1.1
				c0.2,0.2,0.2,0.4,0,0.6C35.8,22.2,35.7,22.2,35.6,22.2z"/>
		</g>
		<g>
			<path class="st1" d="M34.5,24.9c-0.1,0-0.2,0-0.3-0.1c-0.2-0.2-0.2-0.4,0-0.6l1.1-1.1c0.2-0.2,0.4-0.2,0.6,0s0.2,0.4,0,0.6
				l-1.1,1.1C34.7,24.8,34.6,24.9,34.5,24.9z"/>
		</g>
		<g>
			<path class="st1" d="M38.3,24.9c-0.1,0-0.2,0-0.3-0.1l-1.1-1.1c-0.2-0.2-0.2-0.4,0-0.6c0.2-0.2,0.4-0.2,0.6,0l1.1,1.1
				c0.2,0.2,0.2,0.4,0,0.6C38.5,24.8,38.4,24.9,38.3,24.9z"/>
		</g>
	</g>
	<g>
		<path class="st4" d="M117,141.6l-2.4-6.8l0.9-14.6c0.4-7.2-0.7-14.3-3.1-21.1l-7.9-21.2v31.2H66c0,0-0.6,19.3,20.7,35.6l2.5,6.3
			L117,141.6z"/>
		<path class="st1" d="M89.1,151.4c-0.2,0-0.3-0.1-0.4-0.3l-2.4-6.2c-21.1-16.2-20.7-35.6-20.7-35.8c0-0.2,0.2-0.4,0.4-0.4h38.1
			V77.9c0-0.2,0.1-0.4,0.4-0.4c0.2,0,0.4,0.1,0.5,0.3l7.9,21.2c2.5,6.8,3.6,14,3.2,21.2l-0.8,14.5l2.4,6.7c0.1,0.2,0,0.5-0.3,0.5
			c-0.2,0.1-0.5,0-0.5-0.3l-2.4-6.8c0-0.1,0-0.1,0-0.2l0.9-14.6c0.4-7.2-0.6-14.2-3.1-20.9l-7-19v28.9c0,0.2-0.2,0.4-0.4,0.4H66.4
			c0.1,2.9,1.4,20.2,20.5,34.8c0.1,0,0.1,0.1,0.1,0.2l2.5,6.3c0.1,0.2,0,0.5-0.2,0.6C89.2,151.4,89.2,151.4,89.1,151.4z"/>
	</g>
	<g>
		<path class="st4" d="M69.9,67.2c0,0-9.1-2.4-12.8-2.8c-3.7-0.5-8,7.6,1.2,10.5c7.4,2.3,10.1,2.8,10.1,2.8h0.3L69.9,67.2z"/>
		<path class="st1" d="M68.8,78.1h-0.3c-0.2,0-3-0.5-10.3-2.8c-4.1-1.3-6.2-3.9-5.8-6.9c0.4-2.5,2.6-4.6,4.7-4.4
			c3.7,0.5,12.4,2.7,12.8,2.8c0.2,0.1,0.3,0.2,0.3,0.5l-1.1,10.5C69.2,78,69,78.1,68.8,78.1z M56.8,64.8c-1.6,0-3.2,1.7-3.5,3.7
			c-0.2,1.2-0.1,4.3,5.2,6c6.2,2,9.2,2.6,9.9,2.8l1-9.7c-1.7-0.4-9.1-2.3-12.4-2.7C57,64.8,56.9,64.8,56.8,64.8z"/>
	</g>
	<g>
		<path class="st4" d="M69.1,82.3c0,0-9.1-2.4-12.8-2.8c-3.7-0.5-8,7.6,1.2,10.5c7.4,2.3,10.1,2.8,10.1,2.8H68L69.1,82.3z"/>
		<path class="st1" d="M68,93.2h-0.3c-0.2,0-3-0.5-10.3-2.8c-4.1-1.3-6.2-3.9-5.8-6.9c0.4-2.5,2.6-4.6,4.7-4.4
			c3.7,0.5,12.4,2.7,12.8,2.8c0.2,0.1,0.3,0.2,0.3,0.5l-1.1,10.5C68.4,93,68.2,93.2,68,93.2z M56,79.9c-1.6,0-3.2,1.7-3.5,3.7
			c-0.2,1.2-0.1,4.3,5.2,6c6.2,2,9.2,2.6,9.9,2.8l1-9.7c-1.7-0.4-9.1-2.3-12.4-2.7C56.2,79.9,56.1,79.9,56,79.9z"/>
	</g>
	<g>
		<path class="st4" d="M70.9,93.2c0,0-9.1-2.4-12.8-2.8c-3.7-0.5-8,7.6,1.2,10.5c7.4,2.3,10.1,2.8,10.1,2.8h0.3L70.9,93.2z"/>
		<path class="st1" d="M69.8,104.1h-0.3c-0.2,0-3-0.5-10.3-2.8c-4.1-1.3-6.2-3.9-5.8-6.9c0.4-2.5,2.6-4.6,4.7-4.4
			c3.7,0.5,12.4,2.7,12.8,2.8c0.2,0.1,0.3,0.2,0.3,0.5l-1.1,10.5C70.2,103.9,70,104.1,69.8,104.1z M57.8,90.7
			c-1.6,0-3.2,1.7-3.5,3.7c-0.2,1.2-0.1,4.3,5.2,6c6.2,2,9.2,2.6,9.9,2.8l1-9.7c-1.7-0.4-9.1-2.3-12.4-2.7
			C58,90.7,57.9,90.7,57.8,90.7z"/>
	</g>
	<g>
		<path class="st1" d="M31.5,128.8h-9.6c-0.2,0-0.4-0.2-0.4-0.4c0-0.2,0.2-0.4,0.4-0.4h9.6c0.2,0,0.4,0.2,0.4,0.4
			C31.9,128.6,31.7,128.8,31.5,128.8z"/>
	</g>
	<g>
		<path class="st1" d="M134.5,128.9h-3.2c-0.2,0-0.4-0.2-0.4-0.4s0.2-0.4,0.4-0.4h3.2c0.2,0,0.4,0.2,0.4,0.4
			S134.7,128.9,134.5,128.9z"/>
	</g>
	<g>
		<path class="st3" d="M107.3,106.8V84l-2.8-7.6v31.2H66c0,0,0.2,4.3,1.8,10.2c0.3,0,0.6,0,0.9,0h27.5
			C102.3,117.9,107.3,112.9,107.3,106.8z"/>
		<path class="st3" d="M57.6,105.3v-70c0-6.1,5-11.1,11.1-11.1h27.5c6.1,0,11.1,5,11.1,11.1v70c0,6.1-5,11.1-11.1,11.1H68.7
			C62.6,116.4,57.6,111.4,57.6,105.3z"/>
		<path class="st5" d="M96.2,114.9H68.7c-6.1,0-11.1-5-11.1-11.1v1.5c0,6.1,5,11.1,11.1,11.1h27.5c6.1,0,11.1-5,11.1-11.1v-1.5
			C107.3,110,102.3,114.9,96.2,114.9z"/>
		<path class="st4" d="M96.2,24.2H68.7c-6.1,0-11.1,5-11.1,11.1V36c0-6.1,5-11.1,11.1-11.1h27.5c6.1,0,11.1,5,11.1,11.1v-0.7
			C107.3,29.2,102.3,24.2,96.2,24.2z"/>
		<g>
			<path class="st6" d="M61.3,38.3v68c0,1,0.8,1.8,1.8,1.8h38.7c1,0,1.8-0.8,1.8-1.8v-68c0-1-0.8-1.8-1.8-1.8H63.1
				C62.1,36.5,61.3,37.3,61.3,38.3z"/>
			<path class="st1" d="M101.8,108.4H63.1c-1.2,0-2.2-1-2.2-2.2v-68c0-1.2,1-2.2,2.2-2.2h38.7c1.2,0,2.2,1,2.2,2.2v68
				C104,107.5,103,108.4,101.8,108.4z M63.1,36.9c-0.7,0-1.3,0.6-1.3,1.3v68c0,0.7,0.6,1.3,1.3,1.3h38.7c0.7,0,1.3-0.6,1.3-1.3v-68
				c0-0.7-0.6-1.3-1.3-1.3H63.1z"/>
		</g>
		<g>
			<path class="st1" d="M96.2,116.8H68.7c-6.3,0-11.5-5.2-11.5-11.5v-70c0-6.3,5.2-11.5,11.5-11.5h19.6c0.2,0,0.4,0.2,0.4,0.4
				c0,0.2-0.2,0.4-0.4,0.4H68.7c-5.9,0-10.6,4.8-10.6,10.6v70c0,5.9,4.8,10.6,10.6,10.6h27.5c5.9,0,10.6-4.8,10.6-10.6v-70
				c0-5.9-4.8-10.6-10.6-10.6h-4.1c-0.2,0-0.4-0.2-0.4-0.4c0-0.2,0.2-0.4,0.4-0.4h4.1c6.3,0,11.5,5.2,11.5,11.5v70
				C107.7,111.7,102.6,116.8,96.2,116.8z"/>
		</g>
		<circle class="st1" cx="82.5" cy="29.1" r="1.4"/>
		<g>
			<path class="st1" d="M88,33H77c-0.2,0-0.4-0.2-0.4-0.4s0.2-0.4,0.4-0.4h11c0.2,0,0.4,0.2,0.4,0.4S88.2,33,88,33z"/>
		</g>
		<circle class="st1" cx="63.9" cy="39" r="0.6"/>
		<circle class="st1" cx="65.7" cy="39" r="0.6"/>
		<circle class="st1" cx="67.5" cy="39" r="0.6"/>
		<g>
			<path class="st1" d="M75,39.4h-4.7c-0.2,0-0.4-0.2-0.4-0.4c0-0.2,0.2-0.4,0.4-0.4H75c0.2,0,0.4,0.2,0.4,0.4
				C75.4,39.2,75.2,39.4,75,39.4z"/>
		</g>
		<g>
			<path class="st1" d="M99.7,40h-3.6c-0.2,0-0.4-0.2-0.4-0.4v-1.2c0-0.2,0.2-0.4,0.4-0.4h3.6c0.2,0,0.4,0.2,0.4,0.4v1.2
				C100.2,39.8,100,40,99.7,40z M96.5,39.2h2.8v-0.4h-2.8V39.2z"/>
		</g>
		<rect x="99.7" y="38.6" class="st1" width="0.8" height="0.8"/>
		<g>
			<path class="st1" d="M83.6,57.3c-0.2,0-0.4-0.2-0.4-0.4V54c0-0.2,0.2-0.4,0.4-0.4c0.2,0,0.4,0.2,0.4,0.4v2.8
				C84,57.1,83.8,57.3,83.6,57.3z"/>
		</g>
		<g>
			<path class="st1" d="M81,58c-0.1,0-0.2,0-0.3-0.1l-2.2-2.2c-0.2-0.2-0.2-0.4,0-0.6c0.2-0.2,0.4-0.2,0.6,0l2.2,2.2
				c0.2,0.2,0.2,0.4,0,0.6C81.2,58,81.1,58,81,58z"/>
		</g>
		<g>
			<path class="st1" d="M86.2,58c-0.1,0-0.2,0-0.3-0.1c-0.2-0.2-0.2-0.4,0-0.6l2.2-2.2c0.2-0.2,0.4-0.2,0.6,0c0.2,0.2,0.2,0.4,0,0.6
				l-2.2,2.2C86.4,58,86.3,58,86.2,58z"/>
		</g>
		<g>
			<path class="st4" d="M69.6,26.8h-1c-0.2,0-0.4-0.2-0.4-0.4c0-0.2,0.2-0.4,0.4-0.4h1c0.2,0,0.4,0.2,0.4,0.4
				C70,26.6,69.8,26.8,69.6,26.8z"/>
		</g>
		<g>
			<path class="st4" d="M77.3,26.8h-5.7c-0.2,0-0.4-0.2-0.4-0.4c0-0.2,0.2-0.4,0.4-0.4h5.7c0.2,0,0.4,0.2,0.4,0.4
				C77.8,26.6,77.6,26.8,77.3,26.8z"/>
		</g>
		<g>
			<path class="st1" d="M85.6,112.1h-6.2c-0.2,0-0.4-0.2-0.4-0.4c0-0.2,0.2-0.4,0.4-0.4h6.2c0.2,0,0.4,0.2,0.4,0.4
				C86,111.9,85.8,112.1,85.6,112.1z"/>
		</g>
		<circle class="st2" cx="83.9" cy="73.1" r="12.3"/>
		<circle class="st7" cx="83.2" cy="71.5" r="12.3"/>
		<path class="st4" d="M83.2,60.1c6.6,0,12,5.3,12.3,11.8c0-0.2,0-0.3,0-0.5c0-6.8-5.5-12.3-12.3-12.3s-12.3,5.5-12.3,12.3
			c0,0.2,0,0.3,0,0.5C71.1,65.3,76.5,60.1,83.2,60.1z"/>
		<g>
			<path class="st1" d="M83.2,84.2c-7,0-12.7-5.7-12.7-12.7c0-7,5.7-12.7,12.7-12.7c7,0,12.7,5.7,12.7,12.7
				C95.9,78.5,90.2,84.2,83.2,84.2z M83.2,59.6c-6.5,0-11.9,5.3-11.9,11.9c0,6.5,5.3,11.9,11.9,11.9S95,78,95,71.5
				C95,64.9,89.7,59.6,83.2,59.6z"/>
		</g>
		<g>
			<path class="st4" d="M83.2,81.6c-5.6,0-10.1-4.6-10.1-10.1c0-5.6,4.6-10.1,10.1-10.1c5.6,0,10.1,4.6,10.1,10.1
				C93.3,77.1,88.7,81.6,83.2,81.6z M83.2,61.7c-5.4,0-9.7,4.4-9.7,9.7c0,5.4,4.4,9.7,9.7,9.7s9.7-4.4,9.7-9.7
				C92.9,66.1,88.5,61.7,83.2,61.7z"/>
		</g>
		<path class="st4" d="M87.7,73.9c0,1.1-0.4,2-1.1,2.6c-0.7,0.7-1.7,1.1-2.9,1.2l-0.1,2.1H82l0.1-2.2c-1-0.1-1.7-0.4-2.3-0.9
			c-0.6-0.5-1-1-1.2-1.6V74h2.1c0.1,0.3,0.3,0.6,0.5,0.9c0.2,0.2,0.5,0.4,0.9,0.5l0.1-3.1l-0.1,0c-1.1-0.2-2-0.6-2.6-1.2
			c-0.6-0.6-0.9-1.4-0.9-2.4c0-1.1,0.4-2,1.1-2.6c0.7-0.7,1.7-1,2.9-1.1l0.1-1.8h1.7L84.3,65c0.8,0.1,1.5,0.4,2,0.8
			c0.5,0.4,0.9,0.9,1,1.5v1.3h-2.2c-0.1-0.3-0.2-0.5-0.3-0.8c-0.1-0.2-0.4-0.4-0.6-0.5l-0.1,2.9h0c1.1,0.2,2,0.7,2.7,1.3
			C87.4,72.1,87.7,72.9,87.7,73.9z M81.2,68.5c0,0.3,0.1,0.5,0.3,0.8c0.2,0.2,0.5,0.4,0.9,0.6l0.1-2.6c-0.4,0.1-0.8,0.2-1,0.5
			C81.3,67.9,81.2,68.2,81.2,68.5z M85.2,74.1c0-0.3-0.1-0.6-0.3-0.8c-0.2-0.2-0.5-0.4-0.9-0.6l-0.1,2.8c0.4-0.1,0.7-0.2,1-0.5
			C85.1,74.7,85.2,74.4,85.2,74.1z"/>
	</g>
	<path class="st4" d="M111.9,111.1c0,0-4.9-17.5-7.4-19.8c-2.5-2.3-14.9-6.7-17.7-7.7c-4.3-1.6-8.7,5.3-3.2,9.6
		c4.9,3.8,9.3,7.9,9.3,7.9l0.9,12.3c0,0-9.3,10.5-4.1,25.1L111.9,111.1z"/>
	<g>
		<path class="st1" d="M89.6,139c-0.2,0-0.3-0.1-0.4-0.3c-4.9-13.8,3-24.1,4.1-25.4l-0.9-12c-0.7-0.7-4.7-4.4-9.1-7.8
			c-3.3-2.5-3.1-5.8-2-7.8c1.2-2.2,3.5-3.2,5.6-2.5l0.7,0.3c6.3,2.3,15,5.6,17.2,7.5c2.6,2.3,7.4,19.2,7.6,20
			c0.1,0.2-0.1,0.5-0.3,0.5c-0.2,0.1-0.5-0.1-0.5-0.3c-1.4-4.8-5.3-17.8-7.3-19.6c-2.3-2.1-13.3-6-16.9-7.4L86.6,84
			c-2-0.7-3.8,0.6-4.6,2.1c-1,1.7-1.1,4.6,1.8,6.8c4.9,3.7,9.2,7.9,9.3,8c0.1,0.1,0.1,0.2,0.1,0.3l0.9,12.3c0,0.1,0,0.2-0.1,0.3
			c-0.1,0.1-9.1,10.5-4.1,24.7c0.1,0.2,0,0.5-0.3,0.5C89.7,139,89.6,139,89.6,139z"/>
	</g>
	<path class="st2" d="M47.9,59.5H19.6c-1.3,0-2.4-1.1-2.4-2.4V40.3c0-1.3,1.1-2.4,2.4-2.4h28.2c1.3,0,2.4,1.1,2.4,2.4v16.8
		C50.2,58.4,49.2,59.5,47.9,59.5z"/>
	<path class="st4" d="M46.3,57.9H18.1c-1.3,0-2.4-1.1-2.4-2.4V38.7c0-1.3,1.1-2.4,2.4-2.4h28.2c1.3,0,2.4,1.1,2.4,2.4v16.8
		C48.7,56.9,47.6,57.9,46.3,57.9z"/>
	<path class="st0" d="M46.3,56.3H18.1c-1.3,0-2.4-1.1-2.4-2.4v1.6c0,1.3,1.1,2.4,2.4,2.4h28.2c1.3,0,2.4-1.1,2.4-2.4V54
		C48.7,55.3,47.6,56.3,46.3,56.3z"/>
	<g>
		<path class="st1" d="M46.3,58.3H18.1c-1.5,0-2.8-1.2-2.8-2.8V38.7c0-1.5,1.2-2.8,2.8-2.8h28.2c1.5,0,2.8,1.2,2.8,2.8v16.8
			C49.1,57.1,47.8,58.3,46.3,58.3z M18.1,36.8c-1.1,0-1.9,0.9-1.9,1.9v16.8c0,1.1,0.9,1.9,1.9,1.9h28.2c1.1,0,1.9-0.9,1.9-1.9V38.7
			c0-1.1-0.9-1.9-1.9-1.9H18.1z"/>
	</g>
	<g>
		<path class="st1" d="M48.3,44.5H15.7c-0.2,0-0.4-0.2-0.4-0.4c0-0.2,0.2-0.4,0.4-0.4h32.6c0.2,0,0.4,0.2,0.4,0.4
			C48.7,44.3,48.5,44.5,48.3,44.5z"/>
	</g>
	<g>
		<g>
			<path class="st1" d="M24.1,50.5h-4.4c-0.2,0-0.4-0.2-0.4-0.4c0-0.2,0.2-0.4,0.4-0.4h4.4c0.2,0,0.4,0.2,0.4,0.4
				C24.5,50.3,24.3,50.5,24.1,50.5z"/>
		</g>
		<g>
			<path class="st1" d="M30.6,50.5h-4.4c-0.2,0-0.4-0.2-0.4-0.4c0-0.2,0.2-0.4,0.4-0.4h4.4c0.2,0,0.4,0.2,0.4,0.4
				C31.1,50.3,30.9,50.5,30.6,50.5z"/>
		</g>
		<g>
			<path class="st1" d="M37.1,50.5h-4.4c-0.2,0-0.4-0.2-0.4-0.4c0-0.2,0.2-0.4,0.4-0.4h4.4c0.2,0,0.4,0.2,0.4,0.4
				C37.6,50.3,37.4,50.5,37.1,50.5z"/>
		</g>
		<g>
			<path class="st1" d="M43.7,50.5h-4.4c-0.2,0-0.4-0.2-0.4-0.4c0-0.2,0.2-0.4,0.4-0.4h4.4c0.2,0,0.4,0.2,0.4,0.4
				C44.1,50.3,43.9,50.5,43.7,50.5z"/>
		</g>
	</g>
</g>
</svg>
