<?xml version="1.0" encoding="utf-8"?>
<!-- Generator: Adobe Illustrator 21.1.0, SVG Export Plug-In . SVG Version: 6.00 Build 0)  -->
<svg version="1.1" id="Layer_1" xmlns="http://www.w3.org/2000/svg" xmlns:xlink="http://www.w3.org/1999/xlink" x="0px" y="0px"
	 viewBox="0 0 54 54" style="enable-background:new 0 0 54 54;" xml:space="preserve">
<style type="text/css">
	.st0{fill:#00ACEA;}
	.st1{fill:#00EFD1;}
	.st2{fill:#FEDB41;}
</style>
<path class="st0" d="M46,40.8v5.4H9v-5.4H46z"/>
<path class="st1" d="M42.5,31.3v9.5H12.5v-9.5H42.5z"/>
<path class="st0" d="M42.5,25.2v6.2H12.5v-6.2c0-8.3,6.7-15,15-15S42.5,16.9,42.5,25.2z"/>
<path class="st2" d="M32.8,46.1v0.6c0,3-2.4,5.3-5.3,5.3c-3,0-5.3-2.4-5.3-5.3v-0.6H32.8z"/>
<path class="st1" d="M30.6,2.2c1.4,1.5,1.7,3.7,0.5,5.4c-1.1,1.7-3.3,2.4-5.2,1.6c-1.9-0.8-3-2.8-2.6-4.8c0.4-2,2.2-3.5,4.2-3.5
	C28.6,0.9,29.7,1.3,30.6,2.2z"/>
</svg>
