<?xml version="1.0" encoding="utf-8"?>
<!-- Generator: Adobe Illustrator 21.1.0, SVG Export Plug-In . SVG Version: 6.00 Build 0)  -->
<svg version="1.1" id="Layer_1" xmlns="http://www.w3.org/2000/svg" xmlns:xlink="http://www.w3.org/1999/xlink" x="0px" y="0px"
	 viewBox="0 0 56 53" style="enable-background:new 0 0 56 53;" xml:space="preserve">
<style type="text/css">
	.st0{fill:#F6B545;}
	.st1{fill:#FFCB5B;}
	.st2{fill:#F19920;}
	.st3{fill:#C97629;}
	.st4{fill:#B06328;}
	.st5{fill:#FFE278;}
	.st6{fill:#FFE27A;}
	.st7{fill:#E78825;}
</style>
<path class="st0" d="M29.3,52.7h-28c-0.8,0-1.3-0.5-1.3-1.3v-2.5c0-0.8,0.5-1.3,1.3-1.3h28c0.8,0,1.3,0.5,1.3,1.3v2.5
	C30.5,52.2,30,52.7,29.3,52.7z"/>
<path class="st1" d="M24.2,48.9H0l0,0c0-0.8,0.5-1.3,1.3-1.3h22.9V48.9z"/>
<g>
	<path class="st2" d="M24.2,48.9v1.3c0,0.8-0.5,1.3-1.3,1.3H0c0,0.8,0.5,1.3,1.3,1.3h21.6h6.4c0.8,0,1.3-0.5,1.3-1.3v-2.5L24.2,48.9
		L24.2,48.9z"/>
	<path class="st2" d="M3.8,51.5v-1.9c0-0.4-0.3-0.6-0.6-0.6s-0.6,0.3-0.6,0.6v1.9"/>
	<path class="st2" d="M7.6,51.5v-1.9c0-0.4-0.3-0.6-0.6-0.6c-0.4,0-0.6,0.3-0.6,0.6v1.9"/>
	<path class="st2" d="M11.5,51.5v-1.9c0-0.4-0.3-0.6-0.6-0.6s-0.6,0.3-0.6,0.6v1.9"/>
	<path class="st2" d="M15.3,51.5v-1.9c0-0.4-0.3-0.6-0.6-0.6c-0.4,0-0.6,0.3-0.6,0.6v1.9"/>
	<path class="st2" d="M19.1,51.5v-1.9c0-0.4-0.3-0.6-0.6-0.6c-0.4,0-0.6,0.3-0.6,0.6v1.9"/>
	<path class="st2" d="M22.9,51.5v-1.9c0-0.4-0.3-0.6-0.6-0.6c-0.4,0-0.6,0.3-0.6,0.6v1.9"/>
</g>
<path class="st0" d="M31.8,47.6h-28c-0.8,0-1.3-0.5-1.3-1.3v-2.5c0-0.8,0.5-1.3,1.3-1.3h28c0.8,0,1.3,0.5,1.3,1.3v2.5
	C33.1,47.1,32.6,47.6,31.8,47.6z"/>
<path class="st1" d="M26.7,43.8H2.5l0,0c0-0.8,0.5-1.3,1.3-1.3h22.9V43.8z"/>
<g>
	<path class="st2" d="M26.7,43.8v1.3c0,0.8-0.5,1.3-1.3,1.3H2.5c0,0.8,0.5,1.3,1.3,1.3h21.6h6.4c0.8,0,1.3-0.5,1.3-1.3v-2.5
		L26.7,43.8L26.7,43.8z"/>
	<path class="st2" d="M6.4,46.4v-1.9c0-0.4-0.3-0.6-0.6-0.6c-0.4,0-0.6,0.3-0.6,0.6v1.9"/>
	<path class="st2" d="M10.2,46.4v-1.9c0-0.4-0.3-0.6-0.6-0.6c-0.4,0-0.6,0.3-0.6,0.6v1.9"/>
	<path class="st2" d="M14,46.4v-1.9c0-0.4-0.3-0.6-0.6-0.6c-0.4,0-0.6,0.3-0.6,0.6v1.9"/>
	<path class="st2" d="M17.8,46.4v-1.9c0-0.4-0.3-0.6-0.6-0.6c-0.4,0-0.6,0.3-0.6,0.6v1.9"/>
	<path class="st2" d="M21.6,46.4v-1.9c0-0.4-0.3-0.6-0.6-0.6s-0.6,0.3-0.6,0.6v1.9"/>
	<path class="st2" d="M25.5,46.4v-1.9c0-0.4-0.3-0.6-0.6-0.6c-0.4,0-0.6,0.3-0.6,0.6v1.9"/>
</g>
<path class="st0" d="M34.4,37.5h-28c-0.8,0-1.3-0.5-1.3-1.3v-2.5c0-0.8,0.5-1.3,1.3-1.3h28c0.8,0,1.3,0.5,1.3,1.3v2.5
	C35.6,36.9,35.1,37.5,34.4,37.5z"/>
<path class="st1" d="M29.3,33.6H5.1l0,0c0-0.8,0.5-1.3,1.3-1.3h22.9V33.6z"/>
<g>
	<path class="st2" d="M29.3,33.6v1.3c0,0.8-0.5,1.3-1.3,1.3H5.1c0,0.8,0.5,1.3,1.3,1.3H28h6.4c0.8,0,1.3-0.5,1.3-1.3v-2.5L29.3,33.6
		L29.3,33.6z"/>
	<path class="st2" d="M8.9,36.2v-1.9c0-0.4-0.3-0.6-0.6-0.6c-0.4,0-0.6,0.3-0.6,0.6v1.9"/>
	<path class="st2" d="M12.7,36.2v-1.9c0-0.4-0.3-0.6-0.6-0.6c-0.4,0-0.6,0.3-0.6,0.6v1.9"/>
	<path class="st2" d="M16.5,36.2v-1.9c0-0.4-0.3-0.6-0.6-0.6s-0.6,0.3-0.6,0.6v1.9"/>
	<path class="st2" d="M20.4,36.2v-1.9c0-0.4-0.3-0.6-0.6-0.6s-0.6,0.3-0.6,0.6v1.9"/>
	<path class="st2" d="M24.2,36.2v-1.9c0-0.4-0.3-0.6-0.6-0.6c-0.4,0-0.6,0.3-0.6,0.6v1.9"/>
	<path class="st2" d="M28,36.2v-1.9c0-0.4-0.3-0.6-0.6-0.6s-0.6,0.3-0.6,0.6v1.9"/>
</g>
<path class="st0" d="M31.8,32.4h-28c-0.8,0-1.3-0.5-1.3-1.3v-2.5c0-0.8,0.5-1.3,1.3-1.3h28c0.8,0,1.3,0.5,1.3,1.3v2.5
	C33.1,31.9,32.6,32.4,31.8,32.4z"/>
<path class="st1" d="M26.7,28.5H2.5l0,0c0-0.8,0.5-1.3,1.3-1.3h22.9V28.5z"/>
<g>
	<path class="st2" d="M26.7,28.5v1.3c0,0.8-0.5,1.3-1.3,1.3H2.5c0,0.8,0.5,1.3,1.3,1.3h21.6h6.4c0.8,0,1.3-0.5,1.3-1.3v-2.5
		L26.7,28.5L26.7,28.5z"/>
	<path class="st2" d="M6.4,31.1v-1.9c0-0.4-0.3-0.6-0.6-0.6c-0.4,0-0.6,0.3-0.6,0.6v1.9"/>
	<path class="st2" d="M10.2,31.1v-1.9c0-0.4-0.3-0.6-0.6-0.6c-0.4,0-0.6,0.3-0.6,0.6v1.9"/>
	<path class="st2" d="M14,31.1v-1.9c0-0.4-0.3-0.6-0.6-0.6c-0.4,0-0.6,0.3-0.6,0.6v1.9"/>
	<path class="st2" d="M17.8,31.1v-1.9c0-0.4-0.3-0.6-0.6-0.6c-0.4,0-0.6,0.3-0.6,0.6v1.9"/>
	<path class="st2" d="M21.6,31.1v-1.9c0-0.4-0.3-0.6-0.6-0.6s-0.6,0.3-0.6,0.6v1.9"/>
	<path class="st2" d="M25.5,31.1v-1.9c0-0.4-0.3-0.6-0.6-0.6c-0.4,0-0.6,0.3-0.6,0.6v1.9"/>
</g>
<path class="st0" d="M29.3,42.5h-28C0.5,42.5,0,42,0,41.3v-2.5c0-0.8,0.5-1.3,1.3-1.3h28c0.8,0,1.3,0.5,1.3,1.3v2.5
	C30.5,42,30,42.5,29.3,42.5z"/>
<path class="st1" d="M24.2,38.7H0l0,0c0-0.8,0.5-1.3,1.3-1.3h22.9V38.7z"/>
<g>
	<path class="st2" d="M24.2,38.7V40c0,0.8-0.5,1.3-1.3,1.3H0c0,0.8,0.5,1.3,1.3,1.3h21.6h6.4c0.8,0,1.3-0.5,1.3-1.3v-2.5L24.2,38.7
		L24.2,38.7z"/>
	<path class="st2" d="M3.8,41.3v-1.9c0-0.4-0.3-0.6-0.6-0.6S2.5,39,2.5,39.4v1.9"/>
	<path class="st2" d="M7.6,41.3v-1.9c0-0.4-0.3-0.6-0.6-0.6c-0.4,0-0.6,0.3-0.6,0.6v1.9"/>
	<path class="st2" d="M11.5,41.3v-1.9c0-0.4-0.3-0.6-0.6-0.6s-0.6,0.3-0.6,0.6v1.9"/>
	<path class="st2" d="M15.3,41.3v-1.9c0-0.4-0.3-0.6-0.6-0.6c-0.4,0-0.6,0.3-0.6,0.6v1.9"/>
	<path class="st2" d="M19.1,41.3v-1.9c0-0.4-0.3-0.6-0.6-0.6c-0.4,0-0.6,0.3-0.6,0.6v1.9"/>
	<path class="st2" d="M22.9,41.3v-1.9c0-0.4-0.3-0.6-0.6-0.6c-0.4,0-0.6,0.3-0.6,0.6v1.9"/>
</g>
<path class="st3" d="M53.5,44.5c-1.7-1.1-2.5-3.1-2.5-5.1c0-7.8-3.1-15.1-8.5-20.6l-5.5-5.5V9.5l4.5-5.6C41.7,3.3,42,2.7,42,2.1
	c0-1.5-1.3-2.8-2.8-2.8h-4.8l-1.3,2.5l-2.5-2.5h-6.1c-1.5,0-2.8,1.3-2.8,2.8c0,0.6,0.3,1.3,0.6,1.8l4.5,5.6v3.8l-5.5,5.5
	c-5.5,5.5-8.5,12.9-8.5,20.6l0,0c0,2-0.9,3.9-2.5,5.1c-1.7,1.1-2.5,3.1-2.5,5.1l0,0c0,1.8,1.4,3.2,3.2,3.2h42c1.8,0,3.2-1.4,3.2-3.2
	l0,0C56,47.5,55.1,45.6,53.5,44.5z"/>
<path class="st4" d="M53.5,44.5c-1.7-1.3-2.5-3.2-2.5-5.2c0.1-8-3.6-15.5-9.2-21.3l-4.8-4.7V9.5l4.5-5.6c0.8-0.9,0.9-2.2,0.3-3.3
	c-0.5-0.9-1.5-1.3-2.5-1.3c-0.9,0-1.4,1-1.1,1.8c0.1,0.3,0.3,0.6,0.3,1c0,0.6-0.3,1.3-0.6,1.8l-4.5,5.6v3.8h-6.4l-1.3,1.3h8.9
	l4.7,4.7c5.2,5.2,7.3,12.3,6.7,19.6c-0.1,2.2,0.8,4.2,2.4,5.5c0.1,0.1,0.3,0.3,0.4,0.3c1.9,2,0.3,5.5-2.7,5.5H7.8
	c0.3,1.4,1.5,2.5,3.1,2.5h36.9h3.2h1.9c1.8,0,3.2-1.4,3.2-3.2v-0.3C56,47.3,55,45.6,53.5,44.5z"/>
<path class="st1" d="M37.5,13.3H26.1c-1,0-1.9-0.9-1.9-1.9l0,0c0-1,0.9-1.9,1.9-1.9h11.5c1,0,1.9,0.9,1.9,1.9l0,0
	C39.5,12.4,38.6,13.3,37.5,13.3z"/>
<path class="st5" d="M26.1,9.5h6.4c0.4,0,0.6,0.3,0.6,0.6l0,0c0,0.4-0.3,0.6-0.6,0.6h-6.4c-0.4,0-0.6-0.3-0.6-0.6l0,0
	C25.5,9.7,25.7,9.5,26.1,9.5z"/>
<path class="st0" d="M37.5,9.5h-0.6v1.3c0,0.8-0.5,1.3-1.3,1.3H24.3c0.3,0.8,1,1.3,1.8,1.3h11.5c1,0,1.9-0.9,1.9-1.9
	S38.6,9.5,37.5,9.5z"/>
<path class="st2" d="M33.7,12h3.8c0.4,0,0.6,0.3,0.6,0.6l0,0c0,0.4-0.3,0.6-0.6,0.6h-3.8c-0.4,0-0.6-0.3-0.6-0.6l0,0
	C33.1,12.3,33.3,12,33.7,12z"/>
<rect x="30.5" y="13.3" class="st0" width="2.5" height="10.2"/>
<polygon class="st2" points="30.5,13.3 30.5,14.5 31.8,14.5 31.8,23.5 33.1,23.5 33.1,14.5 33.1,13.3 "/>
<circle class="st0" cx="31.8" cy="32.4" r="10.2"/>
<path class="st4" d="M39.6,25.9c1.5,1.8,2.4,3.9,2.4,6.5c0,5.6-4.6,10.2-10.2,10.2c-2.5,0-4.7-0.9-6.5-2.4c1.9,2.3,4.7,3.7,7.8,3.7
	c5.6,0,10.2-4.6,10.2-10.2C43.3,30.5,41.9,27.7,39.6,25.9z"/>
<circle class="st1" cx="31.8" cy="32.4" r="8.9"/>
<path class="st2" d="M40.7,32.4c0,5-3.9,8.9-8.9,8.9v1.3C37.4,42.5,42,38,42,32.4H40.7z"/>
<path class="st6" d="M31.8,23.5v-1.3c-5.6,0-10.2,4.6-10.2,10.2h1.3C22.9,27.4,26.9,23.5,31.8,23.5z"/>
<path class="st7" d="M33.1,31.1h-2.5c-0.8,0-1.3-0.5-1.3-1.3c0-0.8,0.5-1.3,1.3-1.3h3.8c0.8,0,1.3-0.5,1.3-1.3
	c0-0.8-0.5-1.3-1.3-1.3h-1.3l0,0c0-0.8-0.5-1.3-1.3-1.3c-0.8,0-1.3,0.5-1.3,1.3l0,0c-2.2,0-3.8,1.7-3.8,3.8s1.7,3.8,3.8,3.8h2.5
	c0.8,0,1.3,0.5,1.3,1.3s-0.5,1.3-1.3,1.3h-3.8c-0.8,0-1.3,0.5-1.3,1.3c0,0.8,0.5,1.3,1.3,1.3h1.3l0,0c0,0.8,0.5,1.3,1.3,1.3
	c0.8,0,1.3-0.5,1.3-1.3l0,0c2.2,0,3.8-1.7,3.8-3.8S35.3,31.1,33.1,31.1z"/>
</svg>
