<?xml version="1.0" encoding="utf-8"?>
<!-- Generator: Adobe Illustrator 21.1.0, SVG Export Plug-In . SVG Version: 6.00 Build 0)  -->
<svg version="1.1" id="Layer_1" xmlns="http://www.w3.org/2000/svg" xmlns:xlink="http://www.w3.org/1999/xlink" x="0px" y="0px"
	 viewBox="0 0 50 50" style="enable-background:new 0 0 50 50;" xml:space="preserve">
<style type="text/css">
	.st0{fill:#E5FAFC;}
	.st1{fill:#FFFFFF;}
	.st2{fill:#FFBE35;}
	.st3{fill:#FF0F47;}
	.st4{fill:#FFCD60;}
	.st5{fill:#A0F6FA;}
	.st6{fill:#A7CBCF;}
	.st7{fill:#27467A;}
	.st8{fill:#C7E7EB;}
	.st9{fill:#111449;}
</style>
<path class="st0" d="M25,2.8L15.9,25L25,50c6.9,0,13.2-2.8,17.7-7.3L47.2,25C47.2,11.2,38.8,2.8,25,2.8z"/>
<path class="st1" d="M2.8,25l4.5,17.7C11.8,47.2,18.1,50,25,50V2.8C11.2,2.8,2.8,11.2,2.8,25z"/>
<path class="st2" d="M25,0l-2.8,4.2L25,8.3c4.6,0,8.8,1.9,11.8,4.9h5.9V7.3C38.2,2.8,31.9,0,25,0z"/>
<path class="st3" d="M36.8,36.8l5.9,5.9C47.2,38.2,50,31.9,50,25s-2.8-13.2-7.3-17.7l-5.9,5.9c3,3,4.9,7.2,4.9,11.8
	S39.8,33.8,36.8,36.8z"/>
<path class="st4" d="M7.3,7.3v5.9h5.9c3-3,7.2-4.9,11.8-4.9V0C18.1,0,11.8,2.8,7.3,7.3z"/>
<path class="st5" d="M13.2,36.8l-5.9,5.9C2.8,38.2,0,31.9,0,25S2.8,11.8,7.3,7.3l5.9,5.9c-3,3-4.9,7.2-4.9,11.8S10.2,33.8,13.2,36.8
	z"/>
<rect x="23.6" y="11.1" class="st6" width="2.8" height="2.8"/>
<polygon class="st7" points="25,26.4 25,23.6 36.1,23.6 37.5,25 36.1,26.4 "/>
<g>
	<rect x="14.8" y="14.8" transform="matrix(0.7071 -0.7071 0.7071 0.7071 -6.6999 16.175)" class="st8" width="2.8" height="2.8"/>
	<rect x="11.1" y="23.6" class="st8" width="2.8" height="2.8"/>
</g>
<g>
	<rect x="36.1" y="23.6" class="st6" width="2.8" height="2.8"/>
	<rect x="32.4" y="14.8" transform="matrix(0.7071 -0.7071 0.7071 0.7071 -1.5303 28.6552)" class="st6" width="2.8" height="2.8"/>
</g>
<path class="st9" d="M25,22.2L24,25l1,2.8c1.5,0,2.8-1.2,2.8-2.8C27.8,23.5,26.5,22.2,25,22.2z"/>
<path class="st7" d="M22.2,25c0,1.5,1.2,2.8,2.8,2.8v-5.6C23.5,22.2,22.2,23.5,22.2,25z"/>
<polygon class="st6" points="32.6,36.8 32.6,42.4 25,42.4 22.2,39.6 25,36.8 "/>
<rect x="17.4" y="36.8" class="st8" width="7.6" height="5.6"/>
</svg>
