<?xml version="1.0" encoding="utf-8"?>
<!-- Generator: Adobe Illustrator 21.1.0, SVG Export Plug-In . SVG Version: 6.00 Build 0)  -->
<svg version="1.1" id="Layer_1" xmlns="http://www.w3.org/2000/svg" xmlns:xlink="http://www.w3.org/1999/xlink" x="0px" y="0px"
	 viewBox="0 0 56 56" style="enable-background:new 0 0 56 56;" xml:space="preserve">
<style type="text/css">
	.st0{fill:#ACE3FC;}
	.st1{fill:#86D6F2;}
	.st2{fill:#7D8AFF;}
	.st3{fill:#6E76E5;}
</style>
<path class="st0" d="M43.2,12.2h-1.4C41,5.4,35.1,0,28,0l0,0c-7.1,0-13,5.3-13.8,12.2h-1.4C5.7,12.2,0,18,0,25l0,0
	c0,7.1,5.7,12.8,12.8,12.8h30.4C50.3,37.8,56,32.1,56,25l0,0C56,18,50.3,12.2,43.2,12.2z"/>
<path class="st1" d="M43.2,12.2h-1.4C41,5.4,35.1,0,28,0l0,0v37.8h15.2C50.3,37.8,56,32.1,56,25S50.3,12.2,43.2,12.2z"/>
<polygon class="st2" points="37.3,42.2 37.3,25.9 18.7,25.9 18.7,42.2 14.2,42.2 28,56 41.8,42.2 "/>
<polygon class="st3" points="37.3,42.2 37.3,25.9 28,25.9 28,56 41.8,42.2 "/>
</svg>
