<?xml version="1.0" encoding="utf-8"?>
<!-- Generator: Adobe Illustrator 21.1.0, SVG Export Plug-In . SVG Version: 6.00 Build 0)  -->
<svg version="1.1" id="Layer_1" xmlns="http://www.w3.org/2000/svg" xmlns:xlink="http://www.w3.org/1999/xlink" x="0px" y="0px"
	 viewBox="0 0 49 52" style="enable-background:new 0 0 49 52;" xml:space="preserve">
<style type="text/css">
	.st0{fill:#C67217;}
	.st1{fill:#FCA12A;}
	.st2{fill:#EF861D;}
	.st3{fill:#F4DBA8;}
	.st4{fill:#E5BD76;}
	.st5{fill:#3CC676;}
	.st6{fill:#0AA06E;}
	.st7{fill:#A0520B;}
	.st8{fill:#2EAF62;}
	.st9{fill:#078457;}
</style>
<path class="st0" d="M44.6,7H6.2C3.3,7,1,9.3,1,12.1l0,0c0,2.9,2.3,5.2,5.2,5.2h38.4"/>
<path class="st1" d="M44.6,7v10.3H6.2c-2.9,0-5.2-2.4-5.2-5.6l0,0V45l0,0c0,3.2,2.4,5.6,5.2,5.6h38.4V40.3l0,0v-2.9v-4V27V7L44.6,7z
	"/>
<path class="st0" d="M44.5,21.6c1.4,0,2.5,1.2,2.5,2.5l0,0c0,1.4-1.1,2.5-2.5,2.5"/>
<polygon class="st2" points="44.6,40.3 44.6,40.3 44.6,37.4 44.6,35.6 27.3,35.7 25.7,40.8 35.3,50.6 44.6,50.6 "/>
<path class="st3" d="M25.6,26.8h18.9c1.4,0,2.5-1.1,2.5-2.5l0,0v13.9v0.2c0,1.4-1.2,2.8-2.5,2.8H25.6v-5.6l0,0v-1.3v0.5v-3.2"/>
<path class="st4" d="M44.4,27c1.4,0,2.5-1.3,2.5-2.6v-0.1v13.9v0.2c0,1.4-1.2,2.8-2.5,2.8H25.6v-5.6l0,0v-1.3v6.7"/>
<circle class="st5" cx="31.9" cy="33.9" r="3.3"/>
<path class="st6" d="M34.5,31.9c1.1,1.4,0.8,3.4-0.6,4.5c-1.4,1.1-3.4,0.8-4.5-0.6"/>
<path class="st7" d="M44.6,13.3h-36c-1,0-1.7-0.6-1.7-1.6l0,0c0-1,0.8-1.6,1.7-1.6h36"/>
<rect x="10.5" y="1.4" class="st5" width="24.6" height="11.9"/>
<polyline class="st8" points="35.1,1.4 35.1,13.3 10.5,13.3 "/>
<rect x="13.7" y="4.6" class="st6" width="18.2" height="8.7"/>
<polyline class="st9" points="31.9,4.6 31.9,13.3 13.7,13.3 "/>
</svg>
