<?xml version="1.0" encoding="utf-8"?>
<!-- Generator: Adobe Illustrator 21.1.0, SVG Export Plug-In . SVG Version: 6.00 Build 0)  -->
<svg version="1.1" id="Layer_1" xmlns="http://www.w3.org/2000/svg" xmlns:xlink="http://www.w3.org/1999/xlink" x="0px" y="0px"
	 viewBox="0 0 53 53" style="enable-background:new 0 0 53 53;" xml:space="preserve">
<style type="text/css">
	.st0{fill:#7CC971;}
	.st1{fill:#4B9B5E;}
	.st2{fill:#FFDC85;}
	.st3{fill:#FFC97B;}
</style>
<path class="st0" d="M49.9,27.5C49.9,41.1,39,52,25.5,52S1,41.1,1,27.5S11.9,3.1,25.5,3.1S49.9,14,49.9,27.5z"/>
<path class="st1" d="M5.9,28.9h5v18.2c-1.9-1.4-3.6-3.1-5-5V28.9z M33.8,50.5c1.8-0.6,3.4-1.5,5-2.5V17h-5V50.5z M24.3,52
	c0.4,0,0.8,0,1.2,0c1.3,0,2.6-0.1,3.8-0.3V26h-5V52z M14.9,49.6c1.6,0.8,3.2,1.4,5,1.8V28.9h-5V49.6z M42.8,9v35.8
	c2.1-2.1,3.8-4.6,5-7.3V9H42.8z"/>
<path class="st2" d="M51,2.6l-2.9,11.2c-0.1,0.4-0.6,0.5-0.8,0.2l-2-2L29.6,27.7L27,30.3c-0.4,0.4-0.9,0.6-1.4,0.6H10.7
	c-0.3,0-0.5,0.1-0.7,0.3l-6.7,6.7c-0.9-2-1.6-4.2-2-6.5l6-6c0.4-0.4,0.9-0.6,1.4-0.6h14.8c0.3,0,0.5-0.1,0.7-0.3l1.2-1.2L41,7.8
	l-2-2c-0.3-0.3-0.1-0.7,0.2-0.8L50.4,2C50.7,1.9,51.1,2.3,51,2.6z"/>
<path class="st3" d="M50.9,2.2l-6.3,6.7L26.4,27.2c-0.6,0.6-1.3,0.9-2.1,0.9H9.5l-7.2,7.2c-0.4-1.2-0.7-2.5-0.9-3.8l6-6
	c0.4-0.4,0.9-0.6,1.4-0.6h14.8c0.3,0,0.5-0.1,0.7-0.3l1.2-1.2L41,7.8l-2-2c-0.3-0.3-0.1-0.7,0.2-0.8L50.4,2
	C50.6,2,50.8,2.1,50.9,2.2z"/>
</svg>
