<svg xmlns="http://www.w3.org/2000/svg" width="24" height="24" viewBox="0 0 24 24">
  <metadata><?xpacket begin="﻿" id="W5M0MpCehiHzreSzNTczkc9d"?>
<x:xmpmeta xmlns:x="adobe:ns:meta/" x:xmptk="Adobe XMP Core 5.6-c142 79.160924, 2017/07/13-01:06:39        ">
   <rdf:RDF xmlns:rdf="http://www.w3.org/1999/02/22-rdf-syntax-ns#">
      <rdf:Description rdf:about=""/>
   </rdf:RDF>
</x:xmpmeta>
                                                                                                    
                                                                                                    
                                                                                                    
                                                                                                    
                                                                                                    
                                                                                                    
                                                                                                    
                                                                                                    
                                                                                                    
                                                                                                    
                                                                                                    
                                                                                                    
                                                                                                    
                                                                                                    
                                                                                                    
                                                                                                    
                                                                                                    
                                                                                                    
                                                                                                    
                                                                                                    
                           
<?xpacket end="w"?></metadata>
<defs>
    <style>
      .cls-1 {
        fill: #424a85;
        fill-rule: evenodd;
      }
    </style>
  </defs>
  <path id="search" class="cls-1" d="M443.71,616.861a0.923,0.923,0,0,0-.284-0.678l-5.285-5.292a9.642,9.642,0,0,0,2.161-4.329v-0.015a10.552,10.552,0,0,0,.253-2.322,10.416,10.416,0,1,0-10.413,10.425,9.891,9.891,0,0,0,6.658-2.417l5.285,5.291a0.925,0.925,0,0,0,.679.286,0.974,0.974,0,0,0,.946-0.949h0Zm-7.557-18.685a8.249,8.249,0,0,1,2.509,6.049,8.8,8.8,0,0,1-.2,1.928,8.083,8.083,0,0,1-2.288,4.074l-0.032.033a8.134,8.134,0,0,1-6,2.5,8.53,8.53,0,1,1,6.011-14.579h0Z" transform="translate(-419.719 -593.813)"/>
</svg>
