<?xml version="1.0" encoding="utf-8"?>
<!-- Generator: Adobe Illustrator 21.1.0, SVG Export Plug-In . SVG Version: 6.00 Build 0)  -->
<svg version="1.1" id="Layer_1" xmlns="http://www.w3.org/2000/svg" xmlns:xlink="http://www.w3.org/1999/xlink" x="0px" y="0px"
	 viewBox="0 0 49 52" style="enable-background:new 0 0 49 52;" xml:space="preserve">
<style type="text/css">
	.st0{fill:url(#SVGID_1_);}
	.st1{fill:url(#SVGID_2_);}
	.st2{fill:#07ADB5;}
	.st3{fill:url(#SVGID_3_);}
	.st4{fill:url(#SVGID_4_);}
	.st5{fill:url(#SVGID_5_);}
	.st6{fill:url(#SVGID_6_);}
	.st7{fill:url(#SVGID_7_);}
	.st8{fill:url(#SVGID_8_);}
	.st9{fill:url(#SVGID_9_);}
	.st10{fill:url(#SVGID_10_);}
	.st11{fill:url(#SVGID_11_);}
	.st12{fill:url(#SVGID_12_);}
	.st13{fill:url(#SVGID_13_);}
	.st14{fill:url(#SVGID_14_);}
</style>
<linearGradient id="SVGID_1_" gradientUnits="userSpaceOnUse" x1="-41.5294" y1="458.0014" x2="-41.5294" y2="494.5583" gradientTransform="matrix(1.0667 0 0 1.0667 68.2992 -477.6175)">
	<stop  offset="0" style="stop-color:#1ACEB8"/>
	<stop  offset="1" style="stop-color:#0BBFBA"/>
</linearGradient>
<path class="st0" d="M42.2,49.2H5.8C4.2,49.2,3,48,3,46.5V9.1c0-1.5,1.2-2.8,2.8-2.8h36.5c1.5,0,2.8,1.2,2.8,2.8v37.3
	C45,48,43.8,49.2,42.2,49.2z"/>
<linearGradient id="SVGID_2_" gradientUnits="userSpaceOnUse" x1="-29.9679" y1="467.6543" x2="-55.5504" y2="442.0718" gradientTransform="matrix(1.0667 0 0 1.0667 68.2992 -477.6175)">
	<stop  offset="1.000000e-04" style="stop-color:#1ACEB8;stop-opacity:0"/>
	<stop  offset="1" style="stop-color:#04959C"/>
</linearGradient>
<path class="st1" d="M45,9.1c0-1.5-1.2-2.8-2.8-2.8H5.8c0,0,0,0,0,0v6.2l36.7,36.7c1.4-0.1,2.6-1.3,2.6-2.8V9.1L45,9.1z"/>
<path class="st2" d="M42.2,6.4H5.8C4.2,6.4,3,7.6,3,9.1v0.6c0,1.5,1.2,2.8,2.8,2.8h36.5c1.5,0,2.8-1.2,2.8-2.8V9.1
	C45,7.6,43.8,6.4,42.2,6.4z"/>
<linearGradient id="SVGID_3_" gradientUnits="userSpaceOnUse" x1="-52.9461" y1="454.8713" x2="-52.9461" y2="458.6898" gradientTransform="matrix(1.0667 0 0 1.0667 68.2992 -477.6175)">
	<stop  offset="0" style="stop-color:#FFCF95"/>
	<stop  offset="0.427" style="stop-color:#FFC954"/>
	<stop  offset="1" style="stop-color:#FFC200"/>
</linearGradient>
<path class="st3" d="M17.9,3.8v8.7H5.7V3.8c0-0.6,0.5-1.1,1.1-1.1h10.1C17.4,2.8,17.9,3.3,17.9,3.8z"/>
<linearGradient id="SVGID_4_" gradientUnits="userSpaceOnUse" x1="-52.9461" y1="449.356" x2="-52.9461" y2="454.0276" gradientTransform="matrix(1.0667 0 0 1.0667 68.2992 -477.6175)">
	<stop  offset="0" style="stop-color:#FFCF95"/>
	<stop  offset="0.427" style="stop-color:#FFC954"/>
	<stop  offset="1" style="stop-color:#FFC200"/>
</linearGradient>
<path class="st4" d="M16.9,2.8H6.8c-0.6,0-1.1,0.5-1.1,1.1v2.8c0,0.6,0.5,1.1,1.1,1.1h10.1c0.6,0,1.1-0.5,1.1-1.1V3.8
	C17.9,3.3,17.4,2.8,16.9,2.8z"/>
<linearGradient id="SVGID_5_" gradientUnits="userSpaceOnUse" x1="-30.1128" y1="454.8713" x2="-30.1128" y2="458.6898" gradientTransform="matrix(1.0667 0 0 1.0667 68.2992 -477.6175)">
	<stop  offset="0" style="stop-color:#C2D600"/>
	<stop  offset="1" style="stop-color:#7BD101"/>
</linearGradient>
<path class="st5" d="M42.3,3.8v8.7H30.1V3.8c0-0.6,0.5-1.1,1.1-1.1h10.1C41.8,2.8,42.3,3.3,42.3,3.8z"/>
<linearGradient id="SVGID_6_" gradientUnits="userSpaceOnUse" x1="-30.1128" y1="449.356" x2="-30.1128" y2="454.0276" gradientTransform="matrix(1.0667 0 0 1.0667 68.2992 -477.6175)">
	<stop  offset="0" style="stop-color:#C2D600"/>
	<stop  offset="1" style="stop-color:#7BD101"/>
</linearGradient>
<path class="st6" d="M41.2,2.8H31.1c-0.6,0-1.1,0.5-1.1,1.1v2.8c0,0.6,0.5,1.1,1.1,1.1h10.1c0.6,0,1.1-0.5,1.1-1.1V3.8
	C42.3,3.3,41.8,2.8,41.2,2.8z"/>
<linearGradient id="SVGID_7_" gradientUnits="userSpaceOnUse" x1="-41.5295" y1="455.9736" x2="-41.5295" y2="458.883" gradientTransform="matrix(1.0667 0 0 1.0667 68.2992 -477.6175)">
	<stop  offset="0" style="stop-color:#B761C6"/>
	<stop  offset="1" style="stop-color:#9C44B3"/>
</linearGradient>
<path class="st7" d="M30.1,6.2v6.4H17.9V6.2c0-0.6,0.5-1.1,1.1-1.1H29C29.6,5.1,30.1,5.6,30.1,6.2z"/>
<linearGradient id="SVGID_8_" gradientUnits="userSpaceOnUse" x1="-41.5295" y1="451.5323" x2="-41.5295" y2="456.2037" gradientTransform="matrix(1.0667 0 0 1.0667 68.2992 -477.6175)">
	<stop  offset="0" style="stop-color:#B761C6"/>
	<stop  offset="1" style="stop-color:#9C44B3"/>
</linearGradient>
<path class="st8" d="M29,5.1H19c-0.6,0-1.1,0.5-1.1,1.1V9c0,0.6,0.5,1.1,1.1,1.1H29c0.6,0,1.1-0.5,1.1-1.1V6.2
	C30.1,5.6,29.6,5.1,29,5.1z"/>
<linearGradient id="SVGID_9_" gradientUnits="userSpaceOnUse" x1="-45.8582" y1="473.2938" x2="-57.9447" y2="461.2073" gradientTransform="matrix(1.0667 0 0 1.0667 68.2992 -477.6175)">
	<stop  offset="1.000000e-04" style="stop-color:#1ACEB8;stop-opacity:0"/>
	<stop  offset="1" style="stop-color:#04959C"/>
</linearGradient>
<circle class="st9" cx="11.2" cy="19" r="2.2"/>
<linearGradient id="SVGID_10_" gradientUnits="userSpaceOnUse" x1="-21.7985" y1="473.2946" x2="-33.885" y2="461.2081" gradientTransform="matrix(1.0667 0 0 1.0667 68.2992 -477.6175)">
	<stop  offset="1.000000e-04" style="stop-color:#1ACEB8;stop-opacity:0"/>
	<stop  offset="1" style="stop-color:#04959C"/>
</linearGradient>
<circle class="st10" cx="36.8" cy="19" r="2.2"/>
<linearGradient id="SVGID_11_" gradientUnits="userSpaceOnUse" x1="-35.1568" y1="476.7513" x2="-50.6045" y2="461.3035" gradientTransform="matrix(1.0667 0 0 1.0667 68.2992 -477.6175)">
	<stop  offset="1.000000e-04" style="stop-color:#1ACEB8;stop-opacity:0"/>
	<stop  offset="1" style="stop-color:#04959C"/>
</linearGradient>
<path class="st11" d="M45,25.3v21.2c0,1.5-1.2,2.8-2.8,2.8h-13L14.1,34.1c-2.8-2.7-4.5-6.4-4.5-10.5v-4.4c0-0.8,0.7-1.5,1.5-1.5
	c0.5,0,1,0.3,1.3,0.7c0,0,15.9,15.8,15.9,15.9c4.1-1.7,7.1-5.8,7.1-10.5v-4.5c0-0.8,0.7-1.5,1.5-1.5c0.5,0,1,0.3,1.3,0.7L45,25.3z"
	/>
<linearGradient id="SVGID_12_" gradientUnits="userSpaceOnUse" x1="-41.5295" y1="463.68" x2="-41.5295" y2="490.4424" gradientTransform="matrix(1.0667 0 0 1.0667 68.2992 -477.6175)">
	<stop  offset="0" style="stop-color:#FFFFFF"/>
	<stop  offset="1" style="stop-color:#E8EFEE"/>
</linearGradient>
<path class="st12" d="M24.3,38.1c-8.1,0.1-14.6-6.5-14.6-14.5v-4.4c0-0.8,0.7-1.5,1.5-1.5l0,0c0.8,0,1.5,0.7,1.5,1.5v4.4
	c0,6.4,5.2,11.6,11.6,11.5C30.4,35,35.4,30,35.4,23.8v-4.5c0-0.8,0.7-1.5,1.5-1.5l0,0c0.8,0,1.5,0.7,1.5,1.5v4.5
	C38.4,31.6,32.1,38,24.3,38.1z"/>
<linearGradient id="SVGID_13_" gradientUnits="userSpaceOnUse" x1="-22.3891" y1="489.538" x2="-39.591" y2="472.3361" gradientTransform="matrix(1.0667 0 0 1.0667 68.2992 -477.6175)">
	<stop  offset="1.000000e-04" style="stop-color:#1ACEB8;stop-opacity:0"/>
	<stop  offset="1" style="stop-color:#04959C"/>
</linearGradient>
<path class="st13" d="M45,46.5V25.3l-6.9-6.9c0.2,0.2,0.2,0.5,0.2,0.8v4.5c0,7.8-6.3,14.2-14.1,14.4c-3.9,0.1-7.5-1.5-10.1-4
	l15.1,15.1h13C43.8,49.2,45,48,45,46.5z"/>
<linearGradient id="SVGID_14_" gradientUnits="userSpaceOnUse" x1="-41.5294" y1="486.1651" x2="-41.5294" y2="494.9611" gradientTransform="matrix(1.0667 0 0 1.0667 68.2992 -477.6175)">
	<stop  offset="1.000000e-04" style="stop-color:#1ACEB8;stop-opacity:0"/>
	<stop  offset="0.769" style="stop-color:#04959C"/>
</linearGradient>
<path class="st14" d="M3,38.8v7.5c0,1.5,1.2,2.8,2.8,2.8h36.5c1.5,0,2.8-1.2,2.8-2.8v-7.5H3z"/>
</svg>
