<svg xmlns="http://www.w3.org/2000/svg" width="34" height="32" viewBox="0 0 34 32">
  <metadata><?xpacket begin="﻿" id="W5M0MpCehiHzreSzNTczkc9d"?>
<x:xmpmeta xmlns:x="adobe:ns:meta/" x:xmptk="Adobe XMP Core 5.6-c142 79.160924, 2017/07/13-01:06:39        ">
   <rdf:RDF xmlns:rdf="http://www.w3.org/1999/02/22-rdf-syntax-ns#">
      <rdf:Description rdf:about=""/>
   </rdf:RDF>
</x:xmpmeta>
                                                                                                    
                                                                                                    
                                                                                                    
                                                                                                    
                                                                                                    
                                                                                                    
                                                                                                    
                                                                                                    
                                                                                                    
                                                                                                    
                                                                                                    
                                                                                                    
                                                                                                    
                                                                                                    
                                                                                                    
                                                                                                    
                                                                                                    
                                                                                                    
                                                                                                    
                                                                                                    
                           
<?xpacket end="w"?></metadata>
<defs>
    <style>
      .cls-1 {
        fill: #a5bbce;
        fill-rule: evenodd;
      }
    </style>
  </defs>
  <path class="cls-1" d="M1045,4301.87a0.865,0.865,0,0,0-.13-0.42l-3.57-6.02a2.909,2.909,0,0,0-2.5-1.44h-21.61a2.893,2.893,0,0,0-2.49,1.44l-3.58,6.02a0.856,0.856,0,0,0-.12.42v21.17a2.93,2.93,0,0,0,2.91,2.96h28.18a2.937,2.937,0,0,0,2.91-2.96v-21.17Zm-5.12-5.55,2.79,4.7h-10.14l-0.96-5.33h7.23A1.236,1.236,0,0,1,1039.88,4296.32Zm-14.92,6.4h6.03v8.04h-6.03v-8.04Zm0.17-1.7,0.96-5.33h3.82l0.96,5.33h-5.74Zm-9.02-4.7a1.248,1.248,0,0,1,1.08-.63h7.23l-0.95,5.33h-10.14Zm25.98,27.99h-28.18a1.261,1.261,0,0,1-1.25-1.27v-20.32h10.64v8.89a0.837,0.837,0,0,0,.83.84h7.69a0.837,0.837,0,0,0,.83-0.84v-8.89h10.68v20.32A1.253,1.253,0,0,1,1042.09,4324.31Zm-19.62-8.38h-3.82a3.025,3.025,0,0,0,0,6.05h3.86a3.006,3.006,0,0,0,0-6.01Zm0,4.36h-3.82a1.315,1.315,0,0,1,0-2.63h3.86a1.335,1.335,0,0,1,0,2.67Z" transform="translate(-1011 -4294)"/>
</svg>
