<svg xmlns="http://www.w3.org/2000/svg" width="40" height="32" viewBox="0 0 40 32">
  <metadata><?xpacket begin="﻿" id="W5M0MpCehiHzreSzNTczkc9d"?>
<x:xmpmeta xmlns:x="adobe:ns:meta/" x:xmptk="Adobe XMP Core 5.6-c142 79.160924, 2017/07/13-01:06:39        ">
   <rdf:RDF xmlns:rdf="http://www.w3.org/1999/02/22-rdf-syntax-ns#">
      <rdf:Description rdf:about=""/>
   </rdf:RDF>
</x:xmpmeta>
                                                                                                    
                                                                                                    
                                                                                                    
                                                                                                    
                                                                                                    
                                                                                                    
                                                                                                    
                                                                                                    
                                                                                                    
                                                                                                    
                                                                                                    
                                                                                                    
                                                                                                    
                                                                                                    
                                                                                                    
                                                                                                    
                                                                                                    
                                                                                                    
                                                                                                    
                                                                                                    
                           
<?xpacket end="w"?></metadata>
<defs>
    <style>
      .cls-1 {
        fill: #a5bbce;
        fill-rule: evenodd;
      }
    </style>
  </defs>
  <path class="cls-1" d="M691.612,4311.02c0.09,0.03.184,0.06,0.346,0.12,0.076,0.02.15,0.05,0.231,0.08a6.581,6.581,0,0,0,1.884.27c0.216,0,.428-0.01.651-0.03l0.2-.03,0.134-.02a1.708,1.708,0,0,0,.291-0.05,1.272,1.272,0,0,0,.193-0.04l0.085-.02c0.1-.02.205-0.05,0.325-0.08l0.27-.09c0.1-.04.2-0.07,0.285-0.11a1.3,1.3,0,0,0,.172-0.07l0.37-.17,0.115-.06c0.118-.07.237-0.13,0.351-0.2l0.13-.09a6.005,6.005,0,0,0,2.233-2.6,5.669,5.669,0,0,0,.5-2.17l0-.16a5.612,5.612,0,0,0-.39-2.05,6.313,6.313,0,0,0-5.923-3.94,6.237,6.237,0,0,0-6.021,4.23,5.749,5.749,0,0,0-.274,1.39l0,0.09c-0.007.09-.013,0.19-0.013,0.28l0,0.08A6,6,0,0,0,691.612,4311.02Zm-2.246-5.7,0.007-.1a4.089,4.089,0,0,1,.2-1.03,4.657,4.657,0,0,1,4.494-3.16,4.718,4.718,0,0,1,4.423,2.94,4.208,4.208,0,0,1,.29,1.42v0.12a4.2,4.2,0,0,1-.377,1.73,4.542,4.542,0,0,1-1.609,1.91l-0.132.08c-0.094.06-.189,0.11-0.269,0.16l-0.082.04c-0.1.05-.2,0.09-0.293,0.14l-0.125.05c-0.064.03-.131,0.05-0.268,0.1l-0.157.05c-0.069.02-.137,0.04-0.267,0.07l-0.185.04-0.171.03-0.3.04a4.959,4.959,0,0,1-1.883-.18,0.665,0.665,0,0,1-.135-0.05l-0.125-.04-0.173-.06a4.5,4.5,0,0,1-2.88-4.12C689.357,4305.44,689.362,4305.38,689.366,4305.32Zm4.705,6.21a10.145,10.145,0,0,0-7.155,2.91,14.448,14.448,0,0,0-8.882-3.01c-7.738,0-14.034,5.97-14.034,13.31,0,0.12.007,0.24,0.015,0.35l0.038,0.91h27.954l0.044-.89c0.008-.12.016-0.24,0.016-0.37a12.725,12.725,0,0,0-.287-2.69h12.161l0.046-.82c0.006-.09.013-0.19,0.013-0.28A9.7,9.7,0,0,0,694.071,4311.53Zm-28.47,12.95c0.145-6.38,5.666-11.54,12.433-11.54a12.738,12.738,0,0,1,8.449,3.17c0.171,0.15.337,0.3,0.5,0.46,0.066,0.07.13,0.13,0.193,0.2a11.837,11.837,0,0,1,1.321,1.62c0.063,0.1.127,0.19,0.189,0.29,0.11,0.17.217,0.35,0.317,0.53,0.05,0.08.094,0.17,0.142,0.26,0.183,0.35.349,0.71,0.5,1.07,0.033,0.08.068,0.16,0.1,0.24,0.077,0.21.147,0.42,0.212,0.62a11.212,11.212,0,0,1,.516,3.08H665.6Zm25.74-3.94c0-.01-0.007-0.02-0.01-0.03a13.069,13.069,0,0,0-.539-1.28c-0.034-.07-0.072-0.14-0.107-0.21a11.363,11.363,0,0,0-.6-1.06c-0.05-.08-0.1-0.16-0.154-0.24-0.225-.34-0.467-0.68-0.723-1l-0.142-.18c-0.311-.37-0.637-0.73-0.986-1.07a8.482,8.482,0,0,1,5.989-2.42,8.159,8.159,0,0,1,8.319,7.49H691.341Zm-16.709-10.52a2.81,2.81,0,0,0,.279.1l0.269,0.1a1.8,1.8,0,0,0,.251.08,9.211,9.211,0,0,0,2.621.38h0c0.3,0,.6-0.02.886-0.04,0.1-.01.192-0.03,0.288-0.04l0.225-.03c0.123-.02.247-0.04,0.359-0.06l0.276-.06,0.169-.04a3.356,3.356,0,0,0,.408-0.11,1.271,1.271,0,0,0,.187-0.06l0.229-.08c0.129-.04.257-0.08,0.383-0.13,0.056-.03.111-0.05,0.219-0.1,0.183-.08.368-0.16,0.551-0.25,0.041-.02.08-0.05,0.125-0.07,0.2-.11.409-0.23,0.605-0.35l0.071-.05a8.238,8.238,0,0,0,3.81-6.87,8.816,8.816,0,0,0-17.561-.53l-0.006.1c-0.01.14-.021,0.28-0.021,0.43A8.328,8.328,0,0,0,674.632,4310.02Zm-3.759-8.01,0.007-.1a7.211,7.211,0,0,1,14.367.44,6.707,6.707,0,0,1-3.11,5.61l-0.114.07c-0.147.09-.3,0.18-0.463,0.26l-0.08.05q-0.221.1-.46,0.21l-0.179.08a2.8,2.8,0,0,1-.288.1l-0.374.13a2.944,2.944,0,0,1-.288.07l-0.222.05c-0.057.02-.114,0.03-0.182,0.05l-0.254.03-0.267.04c-0.058.01-.116,0.02-0.184,0.03-0.241.02-.483,0.03-0.728,0.03a7.6,7.6,0,0,1-2.14-.3l-0.168-.06-0.3-.1a1.978,1.978,0,0,0-.2-0.07,6.829,6.829,0,0,1-4.395-6.29C670.856,4302.23,670.865,4302.12,670.873,4302.01Z" transform="translate(-664 -4294)"/>
</svg>
