<?xml version="1.0" encoding="utf-8"?>
<!-- Generator: Adobe Illustrator 21.1.0, SVG Export Plug-In . SVG Version: 6.00 Build 0)  -->
<svg version="1.1" id="Layer_1" xmlns="http://www.w3.org/2000/svg" xmlns:xlink="http://www.w3.org/1999/xlink" x="0px" y="0px"
	 viewBox="0 0 56 52" style="enable-background:new 0 0 56 52;" xml:space="preserve">
<style type="text/css">
	.st0{fill:#E4E4E4;}
	.st1{fill:#F0F0F0;}
	.st2{fill:#FF9500;}
	.st3{fill:#FFA426;}
	.st4{fill:#414B52;}
</style>
<path class="st0" d="M9.3,46.4c-0.1,0.5,0.1,0.9,0.4,1.3c0.3,0.4,0.7,0.6,1.2,0.6H46c0.9,0,1.6-0.7,1.6-1.6c0-0.9-0.7-1.6-1.6-1.6
	H12.8l1.2-7.4h-3.2L9.3,46.4z"/>
<path class="st1" d="M12.8,45.1l1.2-7.4c0.1-1.4-2.9-1.9-3.2,0l-1.4,8.8c-0.1,0.5,0.1,0.9,0.4,1.3c0.3,0.4,0.7,0.6,1.2,0.6h20.3
	v-3.2H12.8z"/>
<path class="st1" d="M9.2,5.1C9.1,4.6,8.8,4.2,8.3,3.9l-5-2.6C2.5,1,1.6,1.3,1.2,2.1C0.8,2.9,1.1,3.8,1.9,4.2l4.3,2.2l0.3,1.9
	C7,11.6,10,10.4,9.8,8.8L9.2,5.1z"/>
<path class="st2" d="M55.7,15.9c-0.3-0.4-0.7-0.6-1.1-0.7L6.5,8.3L11,36.1l-0.3,1.6h38.6c0.7,0,1.4-0.5,1.5-1.2l5.1-19.3
	C56.1,16.8,56,16.3,55.7,15.9z M29.5,34.5h-6.2l-0.4-4.8l6.6,0.4V34.5z M22.6,26.4l-0.4-4.7l7.3,0.7v4.4L22.6,26.4z M32.7,22.8
	l7.5,0.8l-0.5,3.9l-7-0.4V22.8z M43.3,23.9l7.3,0.8L49.8,28l-6.9-0.4L43.3,23.9z M51.5,21.5l-7.7-0.8l0.5-3.7l8.1,1.2L51.5,21.5z
	 M40.6,20.4l-7.9-0.8v-4.3l8.4,1.2L40.6,20.4z M29.5,14.8v4.4L22,18.5l-0.4-4.8L29.5,14.8z M10.3,12.1l8.1,1.2l0.4,4.9l-7.6-0.8
	L10.3,12.1z M11.7,20.6l7.3,0.8l0.4,4.9l-6.8-0.4L11.7,20.6z M13.9,34.5l-0.9-5.4l6.6,0.4l0.4,5H13.9z M32.7,30.2l6.5,0.4l-0.5,3.9
	h-6V30.2z M48.1,34.5h-6.1l0.5-3.7l6.5,0.4L48.1,34.5z"/>
<path class="st3" d="M6.5,8.3L11,36.1l-0.3,1.6h20.5V11.9L6.5,8.3z M10.3,12.1l8.1,1.2l0.4,4.9l-7.6-0.8L10.3,12.1z M11.7,20.6
	l7.3,0.8l0.4,4.9l-6.8-0.4L11.7,20.6z M13.9,34.5l-0.9-5.4l6.6,0.4l0.4,5H13.9z M29.5,34.5h-6.2l-0.4-4.8l6.6,0.4V34.5z M29.5,26.8
	l-6.9-0.4l-0.4-4.7l7.3,0.7V26.8z M22,18.5l-0.4-4.8l7.9,1.1v4.4L22,18.5z"/>
<path class="st0" d="M49.9,46.7c0-2.1-1.7-3.9-3.9-3.9s-3.9,1.7-3.9,3.9c0,2.1,1.7,3.9,3.9,3.9S49.9,48.8,49.9,46.7z"/>
<path class="st4" d="M46,52.1c-3,0-5.5-2.4-5.5-5.5c0-3,2.4-5.5,5.5-5.5c3,0,5.5,2.4,5.5,5.5C51.5,49.7,49,52.1,46,52.1z M46,44.4
	c-1.2,0-2.3,1-2.3,2.3c0,1.2,1,2.3,2.3,2.3c1.2,0,2.3-1,2.3-2.3C48.3,45.4,47.3,44.4,46,44.4z"/>
<path class="st0" d="M14.8,46.7c0-2.1-1.7-3.9-3.9-3.9c-2.1,0-3.9,1.7-3.9,3.9c0,2.1,1.7,3.9,3.9,3.9C13,50.6,14.8,48.8,14.8,46.7z"
	/>
<g>
	<path class="st4" d="M10.9,52.1c-3,0-5.5-2.4-5.5-5.5c0-3,2.4-5.5,5.5-5.5c3,0,5.5,2.4,5.5,5.5C16.4,49.7,13.9,52.1,10.9,52.1z
		 M10.9,44.4c-1.2,0-2.3,1-2.3,2.3c0,1.2,1,2.3,2.3,2.3c1.2,0,2.3-1,2.3-2.3C13.2,45.4,12.1,44.4,10.9,44.4z"/>
	<path class="st4" d="M46,52.1c-3,0-5.5-2.4-5.5-5.5c0-3,2.4-5.5,5.5-5.5c3,0,5.5,2.4,5.5,5.5C51.5,49.7,49,52.1,46,52.1z M46,44.4
		c-1.2,0-2.3,1-2.3,2.3c0,1.2,1,2.3,2.3,2.3c1.2,0,2.3-1,2.3-2.3C48.3,45.4,47.3,44.4,46,44.4z"/>
	<path class="st4" d="M10.9,52.1c-3,0-5.5-2.4-5.5-5.5c0-3,2.4-5.5,5.5-5.5c3,0,5.5,2.4,5.5,5.5C16.4,49.7,13.9,52.1,10.9,52.1z
		 M10.9,44.4c-1.2,0-2.3,1-2.3,2.3c0,1.2,1,2.3,2.3,2.3s2.3-1,2.3-2.3C13.2,45.4,12.1,44.4,10.9,44.4z"/>
</g>
</svg>
