<svg xmlns="http://www.w3.org/2000/svg" width="24" height="34" viewBox="0 0 24 34">
  <metadata><?xpacket begin="﻿" id="W5M0MpCehiHzreSzNTczkc9d"?>
<x:xmpmeta xmlns:x="adobe:ns:meta/" x:xmptk="Adobe XMP Core 5.6-c142 79.160924, 2017/07/13-01:06:39        ">
   <rdf:RDF xmlns:rdf="http://www.w3.org/1999/02/22-rdf-syntax-ns#">
      <rdf:Description rdf:about=""/>
   </rdf:RDF>
</x:xmpmeta>
                                                                                                    
                                                                                                    
                                                                                                    
                                                                                                    
                                                                                                    
                                                                                                    
                                                                                                    
                                                                                                    
                                                                                                    
                                                                                                    
                                                                                                    
                                                                                                    
                                                                                                    
                                                                                                    
                                                                                                    
                                                                                                    
                                                                                                    
                                                                                                    
                                                                                                    
                                                                                                    
                           
<?xpacket end="w"?></metadata>
<defs>
    <style>
      .cls-1 {
        fill: #fff !important;
        fill-rule: evenodd;
      }
    </style>
  </defs>
  <path id="icon" class="cls-1" d="M194.894,825.958l1.014-.452-4.675,9.982a0.952,0.952,0,0,1-.788.507h-0.169a0.79,0.79,0,0,1-.676-0.789l-0.225-5.132-4.055,3.045a0.842,0.842,0,0,1-1.014,0,0.862,0.862,0,0,1-.225-1.015l4.336-9.248,0.451,0.9a1.712,1.712,0,0,0,.676.733l-2.478,5.189,2.647-1.974a0.908,0.908,0,0,1,.507-0.17,0.7,0.7,0,0,1,.337.057,0.9,0.9,0,0,1,.507.733l0.169,3.271,2.591-5.583c0.113,0,.225.057,0.338,0.057A1.176,1.176,0,0,0,194.894,825.958Zm13.01,6.09-4.336-9.248-0.451.9a2.105,2.105,0,0,1-.676.733l2.478,5.188-2.647-1.974a0.834,0.834,0,0,0-1.351.621l-0.169,3.27-2.591-5.582c-0.113,0-.225.056-0.338,0.056a1.8,1.8,0,0,1-.789-0.169l-1.013-.451,4.674,9.981a0.954,0.954,0,0,0,.789.507h0.169a0.79,0.79,0,0,0,.676-0.789l0.225-5.131,4.055,3.1a0.845,0.845,0,0,0,1.014,0A0.81,0.81,0,0,0,207.9,832.048Zm-10.419-7.161-1.521-.678-1.52.678a0.72,0.72,0,0,1-.338.056,0.649,0.649,0,0,1-.563-0.226l-1.183-1.128-1.69.113a0.835,0.835,0,0,1-.788-0.451l-0.733-1.523-1.633-.451a0.918,0.918,0,0,1-.619-0.733l-0.169-1.635-1.352-1.015a0.937,0.937,0,0,1-.338-0.9l0.394-1.635-0.9-1.41a0.968,0.968,0,0,1,0-.958l0.9-1.41-0.394-1.635a0.937,0.937,0,0,1,.338-0.9l1.352-1.015,0.169-1.635a0.916,0.916,0,0,1,.619-0.733l1.577-.451,0.732-1.523a0.8,0.8,0,0,1,.789-0.451l1.689,0.113,1.183-1.128a0.88,0.88,0,0,1,.9-0.169l1.521,0.676,1.521-.676a0.857,0.857,0,0,1,.9.169l1.183,1.128,1.689-.113a0.838,0.838,0,0,1,.789.451l0.732,1.523,1.577,0.451a0.916,0.916,0,0,1,.619.733l0.169,1.635,1.352,1.015a0.937,0.937,0,0,1,.338.9L206.5,811.69l0.9,1.41a0.975,0.975,0,0,1,0,.959l-0.9,1.41,0.395,1.635a0.94,0.94,0,0,1-.338.9l-1.352,1.014-0.169,1.636a0.964,0.964,0,0,1-.619.62l-1.577.451-0.733,1.523a0.8,0.8,0,0,1-.788.451l-1.69-.113-1.182,1.128A0.782,0.782,0,0,1,197.485,824.887Zm-1.183-2.369,1.352,0.62,1.07-1.015a0.847,0.847,0,0,1,.62-0.225l1.464,0.113,0.676-1.3a0.8,0.8,0,0,1,.507-0.451l1.408-.395,0.169-1.466a0.749,0.749,0,0,1,.338-0.564l1.182-.846-0.338-1.409a0.972,0.972,0,0,1,.113-0.677l0.789-1.24-0.789-1.242a0.921,0.921,0,0,1-.113-0.676l0.338-1.41-1.182-.846a0.748,0.748,0,0,1-.338-0.563l-0.169-1.467-1.408-.394a0.8,0.8,0,0,1-.507-0.452l-0.676-1.3-1.464-.112a0.848,0.848,0,0,1-.62-0.226l-1.07-1.015-1.352.62a0.716,0.716,0,0,1-.676,0l-1.351-.62-1.07,1.015a0.849,0.849,0,0,1-.62.226l-1.464-.113-0.676,1.3a0.8,0.8,0,0,1-.507.451l-1.408.394-0.169,1.467a0.748,0.748,0,0,1-.338.564l-1.183.846,0.338,1.409a0.971,0.971,0,0,1-.112.677l-0.789,1.241,0.789,1.241a0.921,0.921,0,0,1,.112.676l-0.338,1.41,1.183,0.846a0.748,0.748,0,0,1,.338.564l0.169,1.466,1.408,0.394a0.8,0.8,0,0,1,.507.452l0.676,1.3,1.464-.113h0.056a0.652,0.652,0,0,1,.564.226l1.07,1.014,1.351-.62A1.617,1.617,0,0,0,196.3,822.518Z" transform="translate(-184 -802)"/>
</svg>
