<?xml version="1.0" encoding="utf-8"?>
<!-- Generator: Adobe Illustrator 21.1.0, SVG Export Plug-In . SVG Version: 6.00 Build 0)  -->
<svg version="1.1" id="Layer_1" xmlns="http://www.w3.org/2000/svg" xmlns:xlink="http://www.w3.org/1999/xlink" x="0px" y="0px"
	 viewBox="0 0 50 50" style="enable-background:new 0 0 50 50;" xml:space="preserve">
<style type="text/css">
	.st0{fill:#EB6D4A;}
	.st1{clip-path:url(#SVGID_3_);fill:#ECC19C;}
	.st2{clip-path:url(#SVGID_5_);fill:#ECC19C;}
	.st3{clip-path:url(#SVGID_7_);fill:#C7D4E2;}
	.st4{clip-path:url(#SVGID_9_);fill:#543E36;}
	.st5{clip-path:url(#SVGID_11_);fill:#543E36;}
	.st6{clip-path:url(#SVGID_13_);fill:#543E36;}
	.st7{clip-path:url(#SVGID_15_);fill:#543E36;}
	.st8{clip-path:url(#SVGID_17_);fill:#543E36;}
	.st9{clip-path:url(#SVGID_19_);fill:#1A1A1A;}
	.st10{clip-path:url(#SVGID_21_);}
	.st11{fill:#543E36;}
	.st12{clip-path:url(#SVGID_23_);fill:#ECC19C;}
	.st13{clip-path:url(#SVGID_25_);}
	.st14{fill:#435363;}
	.st15{clip-path:url(#SVGID_27_);}
	.st16{fill:#141720;}
	.st17{fill:#E7ECF2;}
</style>
<g>
	<g>
		<g>
			<circle id="SVGID_1_" class="st0" cx="25" cy="25" r="25"/>
		</g>
		<g>
			<defs>
				<circle id="SVGID_2_" cx="25" cy="25" r="25"/>
			</defs>
			<clipPath id="SVGID_3_">
				<use xlink:href="#SVGID_2_"  style="overflow:visible;"/>
			</clipPath>
			<path class="st1" d="M36.1,14v8.3c0,0.1,0,0.2,0,0.4c0,0.2,0,0.5,0,0.7c0,0.1,0,0.2,0,0.3c0,0.4-0.1,0.7-0.1,1
				c0,0.1,0,0.2-0.1,0.3c0,0,0,0,0,0.1c0,0.1,0,0.2-0.1,0.3c0,0.1,0,0.1,0,0.2c0,0.1,0,0.1,0,0.2c-0.1,0.2-0.1,0.4-0.2,0.7
				c0,0.1-0.1,0.2-0.1,0.3c0,0,0,0,0,0c0,0.1-0.1,0.2-0.1,0.3c0,0,0,0.1,0,0.1c0,0.1-0.1,0.2-0.1,0.3c0,0.1-0.1,0.2-0.1,0.3
				c0,0.1-0.1,0.2-0.1,0.3c0,0,0,0,0,0c0,0.1-0.1,0.2-0.1,0.3c0,0.1-0.1,0.2-0.1,0.3c-0.1,0.2-0.2,0.4-0.3,0.6
				c0,0.1-0.1,0.2-0.1,0.3c-0.4,0.7-0.9,1.4-1.4,2c-0.1,0.1-0.1,0.2-0.2,0.3c-0.1,0.1-0.2,0.2-0.3,0.4c-0.1,0.1-0.2,0.2-0.3,0.3
				c-0.3,0.3-0.5,0.5-0.8,0.8c-0.1,0.1-0.1,0.1-0.2,0.2c-0.1,0.1-0.2,0.2-0.3,0.2c-0.1,0.1-0.2,0.1-0.2,0.2
				c-0.2,0.2-0.4,0.3-0.6,0.5c-0.1,0.1-0.2,0.1-0.3,0.2c-0.1,0.1-0.3,0.2-0.4,0.3c-0.1,0.1-0.2,0.1-0.2,0.1
				c-0.3,0.2-0.6,0.3-0.8,0.5c-0.1,0-0.1,0.1-0.2,0.1c-0.1,0-0.1,0.1-0.2,0.1c-0.1,0-0.2,0.1-0.3,0.1c0,0-0.1,0-0.1,0
				c-0.1,0-0.2,0.1-0.3,0.1c-0.1,0-0.3,0.1-0.4,0.1c-0.1,0-0.2,0.1-0.3,0.1c0,0,0,0,0,0c-0.1,0-0.2,0-0.3,0.1c0,0,0,0-0.1,0
				c-0.1,0-0.2,0-0.2,0c-0.1,0-0.2,0-0.3,0c0,0-0.1,0-0.1,0c-0.1,0-0.2,0-0.3,0h0c-0.1,0-0.2,0-0.3,0c0,0-0.1,0-0.1,0
				c-0.1,0-0.2,0-0.2,0c0,0,0,0-0.1,0c-0.1,0-0.2,0-0.3,0c-0.1,0-0.2,0-0.3-0.1c-0.5-0.1-0.9-0.3-1.4-0.5c-0.4-0.2-0.8-0.4-1.3-0.7
				c-0.2-0.1-0.4-0.3-0.6-0.4c-0.1-0.1-0.2-0.1-0.3-0.2c-0.3-0.2-0.6-0.5-1-0.8c-0.1-0.1-0.2-0.2-0.3-0.2c-0.1-0.1-0.2-0.2-0.3-0.2
				c-0.2-0.2-0.4-0.4-0.6-0.6c-0.1-0.1-0.2-0.2-0.2-0.3c-0.2-0.2-0.4-0.5-0.6-0.8c-0.1-0.1-0.2-0.2-0.2-0.3
				c-0.3-0.4-0.5-0.7-0.8-1.1c-0.1-0.1-0.1-0.2-0.2-0.3c-0.1-0.1-0.2-0.3-0.2-0.4c-0.3-0.5-0.5-1-0.7-1.5c0-0.1-0.1-0.2-0.1-0.2
				c0-0.1-0.1-0.2-0.1-0.3c-0.1-0.1-0.1-0.3-0.2-0.4c0-0.1-0.1-0.3-0.1-0.4c0-0.1-0.1-0.3-0.1-0.4c0-0.2-0.1-0.3-0.1-0.5
				c0,0,0,0,0,0c-0.1-0.2-0.1-0.4-0.1-0.7C14,24.4,14,24.1,14,23.8c0-0.1,0-0.2,0-0.3c0-0.1,0-0.2,0-0.3c0-0.2,0-0.4,0-0.6
				c0-0.1,0-0.2,0-0.4V14c0-6.1,5-11.1,11.1-11.1h0c0.8,0,1.7,0.1,2.5,0.3c0.7,0.2,1.4,0.4,2.1,0.7c0.9,0.4,1.7,0.9,2.5,1.5
				c0.6,0.5,1.2,1.1,1.7,1.7C35.2,9.1,36.1,11.4,36.1,14z"/>
		</g>
		<g>
			<defs>
				<circle id="SVGID_4_" cx="25" cy="25" r="25"/>
			</defs>
			<clipPath id="SVGID_5_">
				<use xlink:href="#SVGID_4_"  style="overflow:visible;"/>
			</clipPath>
			<path class="st2" d="M39.5,53.3L39.5,53.3l-29,0v0c0-1.6,0.3-3.2,0.8-4.7c0.1-0.3,0.2-0.5,0.3-0.8v0c0.1-0.3,0.2-0.5,0.3-0.8
				c0.5-1,1.1-2,1.8-2.8c0.2-0.2,0.4-0.4,0.5-0.6c0.1-0.1,0.2-0.2,0.3-0.3c0.1-0.1,0.2-0.2,0.3-0.3c0.5-0.5,1-0.9,1.6-1.3
				c0.3-0.2,0.6-0.4,0.8-0.6c0.3-0.2,0.6-0.4,0.9-0.5c0,0,0,0,0,0c0.1-0.1,0.2-0.1,0.3-0.2c0.2-0.1,0.5-0.3,0.7-0.4
				c0.1-0.1,0.2-0.2,0.3-0.2c0.2-0.2,0.5-0.4,0.7-0.6c0.1-0.1,0.1-0.1,0.2-0.2c0.2-0.2,0.3-0.3,0.4-0.5c0.1-0.1,0.1-0.2,0.2-0.3
				c0.1-0.1,0.1-0.2,0.2-0.3c0.5-0.7,0.9-1.4,1.2-2.2c0.3-1,0.5-2,0.5-3.1l2.1,0l2.2,0c0,1.1,0.2,2.1,0.5,3.1
				c0.3,0.8,0.7,1.5,1.2,2.2c0.5,0.7,1.1,1.3,1.8,1.9c0.1,0.1,0.2,0.2,0.3,0.2c0.1,0.1,0.2,0.1,0.3,0.2c0,0,0,0,0.1,0
				c0.1,0.1,0.2,0.1,0.3,0.2c0.1,0.1,0.2,0.1,0.3,0.2c0,0,0,0,0,0c0.2,0.1,0.5,0.3,0.7,0.4c0.1,0.1,0.2,0.1,0.3,0.2
				c0.2,0.1,0.4,0.3,0.7,0.5c0,0,0,0,0,0h0c0.6,0.4,1.1,0.9,1.6,1.3C37.9,45.7,39.5,49.3,39.5,53.3z"/>
		</g>
		<g>
			<defs>
				<circle id="SVGID_6_" cx="25" cy="25" r="25"/>
			</defs>
			<clipPath id="SVGID_7_">
				<use xlink:href="#SVGID_6_"  style="overflow:visible;"/>
			</clipPath>
			<path class="st3" d="M39.5,53.3h-29c0-1.6,0.3-3.2,0.8-4.7c0.1-0.3,0.2-0.5,0.3-0.8c0,0,0,0,0,0c0.1-0.3,0.2-0.5,0.3-0.8
				c0.5-1,1.1-2,1.8-2.8c0.2-0.2,0.4-0.4,0.5-0.6c0.1-0.1,0.2-0.2,0.3-0.3c0.1-0.1,0.2-0.2,0.3-0.3c0.5-0.5,1-0.9,1.6-1.3
				c0.3-0.2,0.6-0.4,0.8-0.6c0.3-0.2,0.6-0.4,0.9-0.5c0,0,0,0,0,0v0c0.1-0.1,0.2-0.1,0.3-0.2c0.3-0.2,0.7-0.4,1-0.7c0,0,0,0,0,0
				c1.4,1.4,3.4,2.3,5.6,2.4h0c2.2,0,4.2-0.9,5.6-2.3l0,0c0.2,0.2,0.4,0.3,0.6,0.5c0,0,0,0,0.1,0c0.1,0.1,0.2,0.1,0.3,0.2
				c0.1,0.1,0.2,0.1,0.3,0.2c0,0,0,0,0,0c0.2,0.1,0.5,0.3,0.7,0.4c0.1,0.1,0.2,0.1,0.3,0.2c0.2,0.1,0.4,0.3,0.7,0.5h0
				c0.6,0.4,1.1,0.9,1.6,1.4C37.9,45.7,39.5,49.3,39.5,53.3z"/>
		</g>
		<g>
			<defs>
				<circle id="SVGID_8_" cx="25" cy="25" r="25"/>
			</defs>
			<clipPath id="SVGID_9_">
				<use xlink:href="#SVGID_8_"  style="overflow:visible;"/>
			</clipPath>
			<path class="st4" d="M36.1,22.3c0,0.1,0,0.2,0,0.4c0,0.2,0,0.5,0,0.7c0,0.1,0,0.2,0,0.3c0,0.4-0.1,0.7-0.1,1c0,0.1,0,0.2-0.1,0.3
				c0,0,0,0,0,0.1c0,0.1,0,0.2-0.1,0.3c0,0.1,0,0.1,0,0.2c0,0,0,0.1,0,0.1c-0.1,0.2-0.1,0.4-0.2,0.7c0,0.1-0.1,0.2-0.1,0.3
				c0,0,0,0,0,0c0,0.1-0.1,0.2-0.1,0.3c0,0,0,0.1,0,0.1c0,0.1-0.1,0.2-0.1,0.3c0,0.1-0.1,0.2-0.1,0.3c0,0.1-0.1,0.2-0.1,0.3
				c0,0,0,0,0,0c0,0.1-0.1,0.2-0.1,0.3c0,0.1-0.1,0.2-0.1,0.3c-0.1,0.2-0.2,0.4-0.3,0.6c0,0.1-0.1,0.2-0.1,0.3
				c-0.4,0.7-0.9,1.4-1.4,2c-0.1,0.1-0.1,0.2-0.2,0.3c-0.1,0.1-0.2,0.2-0.3,0.4c-0.1,0.1-0.2,0.2-0.3,0.3c-0.3,0.3-0.5,0.5-0.8,0.8
				c-0.1,0.1-0.1,0.1-0.2,0.2c-0.1,0.1-0.2,0.2-0.3,0.2c-0.1,0.1-0.2,0.1-0.2,0.2c-0.2,0.2-0.4,0.3-0.6,0.5
				c-0.1,0.1-0.2,0.1-0.3,0.2c-0.1,0.1-0.3,0.2-0.4,0.3c-0.1,0.1-0.2,0.1-0.2,0.1c-0.3,0.2-0.6,0.3-0.8,0.5c-0.1,0-0.1,0.1-0.2,0.1
				c-0.1,0-0.1,0.1-0.2,0.1c-0.1,0-0.2,0.1-0.3,0.1c0,0-0.1,0-0.1,0c-0.1,0-0.2,0.1-0.3,0.1c-0.1,0-0.3,0.1-0.4,0.1
				c-0.1,0-0.2,0.1-0.3,0.1c0,0,0,0,0,0c-0.1,0-0.2,0-0.3,0.1c0,0,0,0-0.1,0c-0.1,0-0.2,0-0.2,0c-0.1,0-0.2,0-0.3,0c0,0-0.1,0-0.1,0
				c-0.1,0-0.2,0-0.3,0h0c-0.1,0-0.2,0-0.3,0c0,0-0.1,0-0.1,0c-0.1,0-0.2,0-0.2,0c0,0,0,0-0.1,0c-0.1,0-0.2,0-0.3,0
				c-0.1,0-0.2,0-0.3-0.1c-0.5-0.1-0.9-0.3-1.4-0.5c-0.4-0.2-0.8-0.4-1.3-0.7c-0.2-0.1-0.4-0.3-0.6-0.4c-0.1-0.1-0.2-0.1-0.3-0.2
				c-0.3-0.2-0.6-0.5-1-0.8c-0.1-0.1-0.2-0.2-0.3-0.2c-0.1-0.1-0.2-0.2-0.3-0.2c-0.2-0.2-0.4-0.4-0.6-0.6c-0.1-0.1-0.2-0.2-0.2-0.3
				c-0.2-0.2-0.4-0.5-0.6-0.8c-0.1-0.1-0.2-0.2-0.2-0.3c-0.3-0.4-0.5-0.7-0.8-1.1c-0.1-0.1-0.1-0.2-0.2-0.3
				c-0.1-0.1-0.2-0.3-0.2-0.4c-0.3-0.5-0.5-1-0.7-1.5c0-0.1-0.1-0.2-0.1-0.2c0-0.1-0.1-0.2-0.1-0.3c-0.1-0.1-0.1-0.3-0.2-0.4
				c0-0.1-0.1-0.3-0.1-0.4c0-0.1-0.1-0.3-0.1-0.4c0-0.2-0.1-0.3-0.1-0.5c0,0,0,0,0,0c-0.1-0.2-0.1-0.4-0.1-0.7
				C14,24.4,14,24.1,14,23.8c0-0.1,0-0.2,0-0.3c0-0.1,0-0.2,0-0.3c0-0.2,0-0.4,0-0.6c0-0.1,0-0.2,0-0.4l1.8,3.5l3.1,1.3l3.6,0.3
				l2.7,0.2h0l2.5,0.2l5.6,0.5L36.1,22.3z"/>
		</g>
		<g>
			<defs>
				<circle id="SVGID_10_" cx="25" cy="25" r="25"/>
			</defs>
			<clipPath id="SVGID_11_">
				<use xlink:href="#SVGID_10_"  style="overflow:visible;"/>
			</clipPath>
			<path class="st5" d="M33.8,7.2c-0.5,1.2-1.3,2.4-2.1,3.4c0,0.1-0.1,0.1-0.2,0.2c-1.7,2.1-4,3.7-6.5,4.6c-0.7,0.2-1.4,0.5-2.1,0.6
				c-0.5,0.1-1,0.2-1.5,0.2c-0.6,0.1-1.1,0.1-1.7,0.1c-0.7,0-1.3,0-2-0.1c-0.6-0.1-1.3-0.2-1.9-0.4c-0.3-0.1-0.7-0.2-1-0.3
				c-0.3-0.1-0.7-0.2-1-0.4V14c0-6.1,5-11.1,11.1-11.1h0c0.8,0,1.7,0.1,2.5,0.3c0.7,0.2,1.4,0.4,2.1,0.7c0.9,0.4,1.7,0.9,2.5,1.5
				C32.7,5.9,33.3,6.5,33.8,7.2z"/>
		</g>
		<g>
			<defs>
				<circle id="SVGID_12_" cx="25" cy="25" r="25"/>
			</defs>
			<clipPath id="SVGID_13_">
				<use xlink:href="#SVGID_12_"  style="overflow:visible;"/>
			</clipPath>
			<path class="st6" d="M36.1,14v2.2c-1.9-1.5-3.5-3.3-4.6-5.4c0,0,0,0,0,0c-1.1-2.1-1.8-4.4-2-6.9c0.9,0.4,1.7,0.9,2.5,1.5
				c0.6,0.5,1.2,1.1,1.7,1.7C35.2,9.1,36.1,11.4,36.1,14z"/>
		</g>
		<g>
			<defs>
				<circle id="SVGID_14_" cx="25" cy="25" r="25"/>
			</defs>
			<clipPath id="SVGID_15_">
				<use xlink:href="#SVGID_14_"  style="overflow:visible;"/>
			</clipPath>
			<path class="st7" d="M15.2,14.9c-0.1,0.2-0.2,0.4-0.3,0.6c0,0.1-0.1,0.2-0.1,0.3c-0.5,1.2-0.8,2.4-0.8,3.4c0,0,0,0.1,0,0.1V15
				c0-0.2,0-0.3,0-0.5C14.3,14.7,14.7,14.8,15.2,14.9z"/>
		</g>
		<g>
			<defs>
				<circle id="SVGID_16_" cx="25" cy="25" r="25"/>
			</defs>
			<clipPath id="SVGID_17_">
				<use xlink:href="#SVGID_16_"  style="overflow:visible;"/>
			</clipPath>
			<path class="st8" d="M34.8,14.9c0.2,0.3,0.3,0.6,0.5,0.9c0.6,1.2,0.8,2.4,0.8,3.5V15c0-0.2,0-0.3,0-0.4
				C35.7,14.7,35.3,14.8,34.8,14.9z"/>
		</g>
		<g>
			<defs>
				<circle id="SVGID_18_" cx="25" cy="25" r="25"/>
			</defs>
			<clipPath id="SVGID_19_">
				<use xlink:href="#SVGID_18_"  style="overflow:visible;"/>
			</clipPath>
			<path class="st9" d="M34.8,16C34.8,15.9,34.8,15.9,34.8,16c-0.5-0.2-2.2-0.4-4.2-0.4c-2.2,0-5,0.7-5.4,0.7h-0.4
				c-0.2,0-1-0.1-1.9-0.3c-1.1-0.2-2.4-0.4-3.6-0.4c-1.4,0-2.7,0.1-3.5,0.2c-0.3,0-0.5,0.1-0.6,0.1c0,0-0.1,0-0.1,0.1l0,1.2
				c0,0,0,0.1,0.1,0.1l0.1,0c0.2,0.1,0.2,3.6,1.2,4.4c0.6,0.5,1.2,0.8,3.5,0.8c1.3,0,2.2-0.4,3-1.4c0.6-0.8,1.1-2.6,1.1-2.6
				c0.2-0.8,0.7-0.8,0.8-0.8c0,0,0,0,0,0c0,0,0.7,0,0.8,0.8c0,0,0.5,1.8,1.1,2.6c0.8,1.1,1.7,1.4,3,1.4c2.3,0,2.9-0.3,3.5-0.8
				c1-0.9,1-4.4,1.2-4.4l0.1,0c0,0,0.1-0.1,0.1-0.1L34.8,16z M23.1,20.1c-0.3,0.8-1.2,1.9-2.5,1.9c-3.7,0.2-3.9-0.9-4.1-1.7
				c-0.2-0.8-0.3-1.5-0.2-2.4c0.1-0.8,0.3-1.3,0.7-1.6c0.2-0.1,0.3-0.2,0.8-0.3c0.4-0.1,1-0.1,2.1-0.1c0.6,0,1.2,0,1.7,0.1
				c1.3,0.2,2.2,0.7,2.2,1.1C23.7,17.6,23.6,18.9,23.1,20.1z M33.5,20.4c-0.2,0.8-0.4,1.9-4.1,1.7c-1.2-0.1-2.1-1.1-2.5-1.9
				c-0.5-1.2-0.6-2.5-0.6-2.8c0-0.6,1.7-1.2,3.9-1.2c2.2,0,2.5,0.2,2.8,0.4c0.4,0.2,0.6,0.7,0.7,1.6C33.8,18.8,33.8,19.5,33.5,20.4z
				"/>
		</g>
		<g>
			<defs>
				<circle id="SVGID_20_" cx="25" cy="25" r="25"/>
			</defs>
			<clipPath id="SVGID_21_">
				<use xlink:href="#SVGID_20_"  style="overflow:visible;"/>
			</clipPath>
			<g class="st10">
				<path class="st11" d="M25,24.1l0,2.7l0,0.9v0.7l0,2.5v0l0,0h0l0,0l-10.7-5.5c0,0,0,0,0,0c-0.1-0.2-0.1-0.4-0.1-0.7
					C14,24.4,14,24.1,14,23.8c0-0.1,0-0.2,0-0.3c0-0.1,0-0.2,0-0.3c0-0.2,0-0.4,0-0.6c0-0.1,0-0.2,0-0.4v-3.3c0,0,0,0.1,0,0.1
					c0,0.8,0.1,1.7,0.4,2.5c0.2,0.7,0.4,1.3,0.7,1.9v0c0.7,1.5,1.7,2.5,2.6,2.7c0.1,0,0.1,0,0.2,0c0.3,0,0.7,0.1,1.1,0.1
					c1.4,0,2.6-1.1,3.4-1.6c0,0,0,0,0,0c0,0,0.1,0,0.1-0.1c0,0,0,0,0,0C23,24.3,23.9,24.1,25,24.1L25,24.1L25,24.1z"/>
				<path class="st11" d="M36.1,19.1l0,3.3c0,0.8-0.1,1.6-0.2,2.4c-0.1,0.3-0.1,0.6-0.2,0.9l-2.5,3.6L25,30.9h0l0,0v0l0-6.8h0
					c1.1,0,2,0.2,2.7,0.6c0,0,0,0,0,0c0,0,0.1,0,0.1,0.1c0,0,0,0,0,0c0.8,0.5,2,1.6,3.4,1.6c0.4,0,0.7,0,1.1-0.1c0.1,0,0.1,0,0.2,0
					c0.9-0.2,1.8-1.2,2.6-2.7v0c0.3-0.6,0.5-1.2,0.7-1.9c0.2-0.9,0.4-1.8,0.4-2.6C36.1,19.1,36.1,19.1,36.1,19.1z"/>
			</g>
		</g>
		<g>
			<defs>
				<circle id="SVGID_22_" cx="25" cy="25" r="25"/>
			</defs>
			<clipPath id="SVGID_23_">
				<use xlink:href="#SVGID_22_"  style="overflow:visible;"/>
			</clipPath>
			<ellipse class="st12" cx="25" cy="27.6" rx="2.7" ry="0.8"/>
		</g>
		<g>
			<defs>
				<circle id="SVGID_24_" cx="25" cy="25" r="25"/>
			</defs>
			<clipPath id="SVGID_25_">
				<use xlink:href="#SVGID_24_"  style="overflow:visible;"/>
			</clipPath>
			<g class="st13">
				<path class="st14" d="M17,41.2v15h-1.2V42.1c0.2-0.1,0.3-0.2,0.5-0.4C16.6,41.5,16.8,41.4,17,41.2z"/>
				<polygon class="st14" points="33,41.2 33,53.3 33,56.3 34.1,56.3 34.1,53.3 34.1,42.1 				"/>
			</g>
		</g>
		<g>
			<defs>
				<circle id="SVGID_26_" cx="25" cy="25" r="25"/>
			</defs>
			<clipPath id="SVGID_27_">
				<use xlink:href="#SVGID_26_"  style="overflow:visible;"/>
			</clipPath>
			<g class="st15">
				<g>
					<polygon class="st16" points="21.8,40.3 25,44.1 28.2,40.3 					"/>
					<path class="st16" d="M25,59.9h-1.9l1.4-17.5c0.1,0.2,1,0.2,1,0l1.4,17.5H25z"/>
				</g>
				<g>
					<path class="st17" d="M25,40.3L25,40.3L25,40.3l-1.3,2.2l-1.2,2.1L19.1,40c0.1-0.1,0.2-0.2,0.3-0.2c0,0,0,0,0,0
						c0.7-0.5,1.3-1.2,1.8-1.9L25,40.3L25,40.3z"/>
					<path class="st17" d="M30.9,40l-3.3,4.6l-1.2-2.1L25,40.3l0,0l3.8-2.4c0.5,0.7,1.1,1.3,1.8,1.9C30.7,39.8,30.8,39.9,30.9,40z"
						/>
				</g>
			</g>
		</g>
	</g>
</g>
</svg>
