<svg xmlns="http://www.w3.org/2000/svg" width="32" height="34" viewBox="0 0 32 34">
  <metadata><?xpacket begin="﻿" id="W5M0MpCehiHzreSzNTczkc9d"?>
<x:xmpmeta xmlns:x="adobe:ns:meta/" x:xmptk="Adobe XMP Core 5.6-c142 79.160924, 2017/07/13-01:06:39        ">
   <rdf:RDF xmlns:rdf="http://www.w3.org/1999/02/22-rdf-syntax-ns#">
      <rdf:Description rdf:about=""/>
   </rdf:RDF>
</x:xmpmeta>
                                                                                                    
                                                                                                    
                                                                                                    
                                                                                                    
                                                                                                    
                                                                                                    
                                                                                                    
                                                                                                    
                                                                                                    
                                                                                                    
                                                                                                    
                                                                                                    
                                                                                                    
                                                                                                    
                                                                                                    
                                                                                                    
                                                                                                    
                                                                                                    
                                                                                                    
                                                                                                    
                           
<?xpacket end="w"?></metadata>
<defs>
    <style>
      .cls-1 {
        fill: #a5bbce;
        fill-rule: evenodd;
      }
    </style>
  </defs>
  <path class="cls-1" d="M380.209,4327.99a4.366,4.366,0,1,0-4.281-4.36h0A4.321,4.321,0,0,0,380.209,4327.99Zm0-6.82a2.451,2.451,0,1,1-2.4,2.45h0A2.43,2.43,0,0,1,380.209,4321.17Zm17.087-1.92a4.371,4.371,0,1,0,4.262,4.39v-0.01A4.332,4.332,0,0,0,397.3,4319.25Zm0,6.82a2.446,2.446,0,1,1,2.38-2.46v0.02A2.422,2.422,0,0,1,397.3,4326.07Zm-20.2-24.11-1.7-7.96H370v1.92h3.881l4.455,20.71h22.681L402,4301.96H377.094Zm22.163,12.74H379.851l-2.352-10.82h22.488Z" transform="translate(-370 -4294)"/>
</svg>
