<?xml version="1.0" encoding="utf-8"?>
<!-- Generator: Adobe Illustrator 21.1.0, SVG Export Plug-In . SVG Version: 6.00 Build 0)  -->
<svg version="1.1" id="Layer_1" xmlns="http://www.w3.org/2000/svg" xmlns:xlink="http://www.w3.org/1999/xlink" x="0px" y="0px"
	 viewBox="0 0 55 55" style="enable-background:new 0 0 55 55;" xml:space="preserve">
<style type="text/css">
	.st0{fill:#FFDCCD;}
	.st1{fill:#FFECE3;}
	.st2{fill:#FF5E91;}
	.st3{fill:#CF0050;}
</style>
<path class="st0" d="M53.5,11.9c-3,0-5.2,2.4-5.2,5.2v18.4c0,0.4-0.2,0.8-0.5,1.1l-5.1,5.1c-0.6,0.6-1.6,0.7-2.2,0.1
	c-0.7-0.6-0.7-1.7-0.1-2.3l4.2-4.2c0.3-0.3,0.5-0.7,0.5-1.1v-7c0-0.9-1.1-1.4-1.8-0.7L32.8,37c-1.9,1.9-2.9,4.4-2.9,7.1v8.4
	c0,0.9,0.7,1.6,1.6,1.6h11.9c0.9,0,1.6-0.7,1.6-1.6V48l9.7-9.7c0.3-0.3,0.5-0.7,0.5-1.1V13.4C55,12.6,54.3,11.9,53.5,11.9z"/>
<path class="st1" d="M2.5,11.9c3,0,5.2,2.4,5.2,5.2v18.4c0,0.4,0.2,0.8,0.5,1.1l5.1,5.1c0.6,0.6,1.6,0.7,2.2,0.1
	c0.7-0.6,0.7-1.7,0.1-2.3l-4.2-4.2c-0.3-0.3-0.5-0.7-0.5-1.1v-7c0-0.9,1.1-1.4,1.8-0.7L23.2,37c1.9,1.9,2.9,4.4,2.9,7.1v8.4
	c0,0.9-0.7,1.6-1.6,1.6H12.7c-0.9,0-1.6-0.7-1.6-1.6V48l-9.7-9.7C1.2,38,1,37.6,1,37.2V13.4C1,12.6,1.7,11.9,2.5,11.9z"/>
<path class="st2" d="M28,24.9c-0.4,0-0.8-0.2-1.1-0.5l-9.8-9.8c-3.3-3.3-3.3-8.7,0-12.1c3-3,7.6-3.3,10.9-0.9c3.3-2.3,8-2,10.9,0.9
	c3.3,3.3,3.3,8.7,0,12.1l-9.8,9.8C28.8,24.7,28.4,24.9,28,24.9z"/>
<path class="st3" d="M29.1,24.4l9.8-9.8c3.3-3.3,3.3-8.7,0-12.1c-3-3-7.6-3.3-10.9-0.9v23.3C28.4,24.9,28.8,24.7,29.1,24.4z"/>
</svg>
