<svg xmlns="http://www.w3.org/2000/svg" width="28.06" height="32" viewBox="0 0 28.06 32">
  <metadata><?xpacket begin="﻿" id="W5M0MpCehiHzreSzNTczkc9d"?>
<x:xmpmeta xmlns:x="adobe:ns:meta/" x:xmptk="Adobe XMP Core 5.6-c142 79.160924, 2017/07/13-01:06:39        ">
   <rdf:RDF xmlns:rdf="http://www.w3.org/1999/02/22-rdf-syntax-ns#">
      <rdf:Description rdf:about=""/>
   </rdf:RDF>
</x:xmpmeta>
                                                                                                    
                                                                                                    
                                                                                                    
                                                                                                    
                                                                                                    
                                                                                                    
                                                                                                    
                                                                                                    
                                                                                                    
                                                                                                    
                                                                                                    
                                                                                                    
                                                                                                    
                                                                                                    
                                                                                                    
                                                                                                    
                                                                                                    
                                                                                                    
                                                                                                    
                                                                                                    
                           
<?xpacket end="w"?></metadata>
<defs>
    <style>
      .cls-1 {
        fill: #a5bbce;
        fill-rule: evenodd;
      }
    </style>
  </defs>
  <path class="cls-1" d="M1330.92,4314.44a14.465,14.465,0,0,0-8.89-3.01c-7.73,0-14.03,5.97-14.03,13.31,0,0.12.01,0.24,0.02,0.35l0.03,0.91h27.96l0.04-.89c0.01-.12.02-0.24,0.02-0.37a12.6,12.6,0,0,0-.29-2.69m-26.18,2.43c0.15-6.38,5.67-11.54,12.43-11.54a12.725,12.725,0,0,1,8.45,3.17c0.17,0.15.34,0.3,0.5,0.46,0.07,0.07.13,0.13,0.19,0.2a10.631,10.631,0,0,1,1.32,1.62c0.07,0.1.13,0.19,0.19,0.29,0.11,0.17.22,0.35,0.32,0.53a2.148,2.148,0,0,1,.14.26,11.5,11.5,0,0,1,.5,1.07c0.03,0.08.07,0.16,0.1,0.24,0.07,0.21.14,0.42,0.21,0.62a11.686,11.686,0,0,1,.52,3.08H1309.6Zm25.74-3.94h0c0-.01-0.01-0.02-0.01-0.03-0.16-.44-0.34-0.86-0.54-1.28a2.116,2.116,0,0,0-.11-0.21,12.03,12.03,0,0,0-.59-1.06c-0.05-.08-0.1-0.16-0.16-0.24a11.473,11.473,0,0,0-.72-1c-0.05-.06-0.09-0.12-0.14-0.18a14.251,14.251,0,0,0-.99-1.07m-13.45-5.45c0.09,0.04.19,0.07,0.28,0.1l0.27,0.1a1.829,1.829,0,0,0,.25.08,9.224,9.224,0,0,0,2.62.38h0c0.31,0,.6-0.02.89-0.04,0.1-.01.19-0.03,0.29-0.04l0.22-.03q0.195-.03.36-0.06c0.1-.02.19-0.04,0.28-0.06l0.17-.04a2.978,2.978,0,0,0,.4-0.11,1.056,1.056,0,0,0,.19-0.06l0.23-.08c0.13-.04.26-0.08,0.38-0.13,0.06-.03.11-0.05,0.22-0.1,0.19-.08.37-0.16,0.55-0.25,0.04-.02.08-0.05,0.13-0.07,0.2-.11.41-0.23,0.6-0.35l0.07-.05a8.212,8.212,0,0,0,3.81-6.87,8.815,8.815,0,0,0-17.56-.53v0.1c-0.01.14-.02,0.28-0.02,0.43A8.33,8.33,0,0,0,1318.63,4310.02Zm-3.76-8.01,0.01-.1a7.213,7.213,0,0,1,14.37.44,6.741,6.741,0,0,1-3.11,5.61l-0.12.07a5.02,5.02,0,0,1-.46.26l-0.08.05c-0.15.07-.3,0.14-0.46,0.21l-0.18.08a2.469,2.469,0,0,1-.29.1l-0.37.13c-0.1.03-.19,0.05-0.29,0.07l-0.22.05c-0.06.02-.11,0.03-0.18,0.05l-0.26.03-0.26.04c-0.06.01-.12,0.02-0.19,0.03-0.24.02-.48,0.03-0.73,0.03a7.631,7.631,0,0,1-2.14-.3c-0.05-.02-0.11-0.04-0.16-0.06l-0.3-.1c-0.07-.03-0.14-0.05-0.2-0.07a6.834,6.834,0,0,1-4.4-6.29C1314.86,4302.23,1314.86,4302.12,1314.87,4302.01Z" transform="translate(-1308 -4294)"/>
</svg>
