<?xml version="1.0" encoding="utf-8"?>
<!-- Generator: Adobe Illustrator 21.1.0, SVG Export Plug-In . SVG Version: 6.00 Build 0)  -->
<svg version="1.1" id="Layer_1" xmlns="http://www.w3.org/2000/svg" xmlns:xlink="http://www.w3.org/1999/xlink" x="0px" y="0px"
	 viewBox="0 0 55 55" style="enable-background:new 0 0 55 55;" xml:space="preserve">
<style type="text/css">
	.st0{fill:#97A1F0;}
	.st1{fill:#4B5BE6;}
	.st2{fill:#C5C9F7;}
	.st3{fill:#A7AFF2;}
	.st4{fill:#FF9A00;}
	.st5{fill:#E67500;}
</style>
<path class="st0" d="M1,31.4c0,4,3.2,7.2,7.2,7.2V24.2C4.2,24.2,1,27.4,1,31.4z"/>
<path class="st1" d="M47.8,24.2v14.4c4,0,7.2-3.2,7.2-7.2C55,27.4,51.8,24.2,47.8,24.2z"/>
<path class="st2" d="M48,20v2.7h-3.2V20c0-9.3-7.6-16.9-16.9-16.9S11.1,10.7,11.1,20v3.3H8V20C8,9,17,0,28,0S48,9,48,20z"/>
<path class="st3" d="M48,20v2.7h-3.2V20c0-9.3-7.6-16.9-16.9-16.9V0C39,0,48,9,48,20z"/>
<path class="st2" d="M24.2,51.5h-6.3c-3.1,0-5.6-2.5-5.6-5.6v-4.3h3.2v4.3c0,1.4,1.1,2.5,2.5,2.5h6.3V51.5z"/>
<path class="st4" d="M8,20.5h11.8v21.7H8V20.5z"/>
<path class="st5" d="M36.2,20.5H48v21.7H36.2V20.5z"/>
<path class="st4" d="M32.6,50c0,2.2-1.8,4-4,4h-7v-8.1h7C30.8,45.9,32.6,47.8,32.6,50z"/>
<path class="st5" d="M32.6,50c0,2.2-1.8,4-4,4H28v-8.1h0.6C30.8,45.9,32.6,47.8,32.6,50z"/>
</svg>
