<?xml version="1.0" encoding="utf-8"?>
<!-- Generator: Adobe Illustrator 21.1.0, SVG Export Plug-In . SVG Version: 6.00 Build 0)  -->
<svg version="1.1" id="Layer_1" xmlns="http://www.w3.org/2000/svg" xmlns:xlink="http://www.w3.org/1999/xlink" x="0px" y="0px"
	 viewBox="0 0 49 49" style="enable-background:new 0 0 49 49;" xml:space="preserve">
<style type="text/css">
	.st0{fill:#FF641A;}
	.st1{fill:#F03800;}
	.st2{fill:#E0F4FF;}
	.st3{fill:#BBDCFF;}
	.st4{fill:#9ABADB;}
	.st5{fill:#61729B;}
	.st6{fill:#47568C;}
	.st7{fill:#00C8C8;}
	.st8{fill:#64E1DC;}
</style>
<path class="st0" d="M30.8,1v8.2l-2.7,2.7h-7.4l-3.3-2.7V1H30.8z"/>
<path class="st1" d="M28.1,12H24V1h6.8v8.2L28.1,12z"/>
<path class="st2" d="M36.5,20.9l-11,22h-3l-11-22l1-0.7c0.1-0.1,4.8-3.3,4.8-7V9.2h13.4v4.1c0,3.7,4.7,6.9,4.8,7L36.5,20.9z"/>
<path class="st3" d="M36.5,20.9l-11,22H24V9.3h6.8v4.1c0,3.7,4.7,6.9,4.8,7L36.5,20.9z"/>
<path class="st3" d="M24,20c-2.3,0-4.1,1.8-4.1,4.1s1.8,4.1,4.1,4.1c2.3,0,4.1-1.8,4.1-4.1S26.3,20,24,20z"/>
<path class="st4" d="M24,28.1V20c2.3,0,4.1,1.8,4.1,4.1C28.1,26.3,26.3,28.1,24,28.1z"/>
<path class="st3" d="M22.6,26.8h2.7v16.1h-2.7V26.8z"/>
<path class="st4" d="M24,26.8h1.4v16.1H24V26.8z"/>
<path class="st5" d="M44,27c-1.4,9.9-10,17.3-20,17.3S5.4,36.9,4,27l2.7-0.4c1.2,8.6,8.7,15,17.3,15c8.7,0,16.1-6.5,17.3-15L44,27z"
	/>
<path class="st6" d="M44,27c-1.4,9.9-10,17.3-20,17.3v-2.7c8.7,0,16.1-6.5,17.3-15L44,27z"/>
<path class="st5" d="M7.9,41.6h32.3v2.7H7.9V41.6z"/>
<path class="st6" d="M24,41.6h16.1v2.7H24V41.6z"/>
<path class="st7" d="M47,28.1h-8.2V20H47V28.1z"/>
<path class="st7" d="M42.9,47c-2.3,0-4.1-1.8-4.1-4.1s1.8-4.1,4.1-4.1c2.3,0,4.1,1.8,4.1,4.1S45.1,47,42.9,47z"/>
<g>
	<path class="st8" d="M5.1,47C2.9,47,1,45.2,1,42.9s1.9-4.1,4.1-4.1s4.1,1.8,4.1,4.1S7.4,47,5.1,47z"/>
	<path class="st8" d="M9.2,28.1H1V20h8.2V28.1z"/>
</g>
</svg>
