<svg xmlns="http://www.w3.org/2000/svg" width="33" height="33" viewBox="0 0 33 33">
  <metadata><?xpacket begin="﻿" id="W5M0MpCehiHzreSzNTczkc9d"?>
<x:xmpmeta xmlns:x="adobe:ns:meta/" x:xmptk="Adobe XMP Core 5.6-c142 79.160924, 2017/07/13-01:06:39        ">
   <rdf:RDF xmlns:rdf="http://www.w3.org/1999/02/22-rdf-syntax-ns#">
      <rdf:Description rdf:about=""/>
   </rdf:RDF>
</x:xmpmeta>
                                                                                                    
                                                                                                    
                                                                                                    
                                                                                                    
                                                                                                    
                                                                                                    
                                                                                                    
                                                                                                    
                                                                                                    
                                                                                                    
                                                                                                    
                                                                                                    
                                                                                                    
                                                                                                    
                                                                                                    
                                                                                                    
                                                                                                    
                                                                                                    
                                                                                                    
                                                                                                    
                           
<?xpacket end="w"?></metadata>
<defs>
    <style>
      .cls-1 {
        fill: #fcd287;
        fill-rule: evenodd;
      }
    </style>
  </defs>
  <path id="jpeg" class="cls-1" d="M776.991,2314.08a0.719,0.719,0,0,0-.036-0.18c-0.008-.02-0.013-0.04-0.023-0.06a0.609,0.609,0,0,0-.133-0.2h0l-3.923-3.92v-3.85c0-.01-0.008-0.02-0.009-0.04a0.764,0.764,0,0,0-.035-0.18c-0.008-.02-0.013-0.04-0.023-0.06a0.742,0.742,0,0,0-.135-0.2l-6.188-6.19a0.592,0.592,0,0,0-.2-0.13l-0.062-.03a0.56,0.56,0,0,0-.182-0.03c-0.013,0-.025-0.01-0.039-0.01H748.812a0.689,0.689,0,0,0-.687.69v10.03l-3.924,3.92h0a0.731,0.731,0,0,0-.132.2c-0.01.02-.015,0.04-0.023,0.06a0.677,0.677,0,0,0-.036.18c0,0.02-.009.03-0.009,0.04v13.07a0.681,0.681,0,0,0,.687.68h3.438v3.44a0.689,0.689,0,0,0,.687.69h23.375a0.69,0.69,0,0,0,.688-0.69v-3.44h3.437a0.681,0.681,0,0,0,.688-0.68v-13.07C777,2314.11,776.992,2314.1,776.991,2314.08Zm-2.338-.64h-1.778v-1.78Zm-4.125-8.25h-3.841v-3.84Zm-21.028-4.82h15.812v5.5a0.69,0.69,0,0,0,.688.69h5.5v6.88h-22v-13.07Zm-1.375,11.29v1.78h-1.778Zm23.375,18.96h-22v-2.75h22v2.75Zm4.125-4.12h-30.25v-11.69h30.25v11.69Zm-13.372-5.07h2.186v-1.14h-2.186v-2.2h2.361v-1.24h-3.705v8.27h3.822v-1.25h-2.478v-2.44Zm-3.266-4.06a1.842,1.842,0,0,0-.754-0.4,2.985,2.985,0,0,0-.819-0.12h-2.29v8.27H756.5v-3.31h0.982a2.437,2.437,0,0,0,.841-0.16,1.972,1.972,0,0,0,.725-0.46,2.426,2.426,0,0,0,.508-0.79,2.953,2.953,0,0,0,.194-1.11,2.842,2.842,0,0,0-.217-1.17A2.173,2.173,0,0,0,758.987,2317.37Zm-0.883,2.94a1.015,1.015,0,0,1-.806.35H756.5v-2.63H757.3a1.122,1.122,0,0,1,.806.3,1.316,1.316,0,0,1,.316.97A1.422,1.422,0,0,1,758.1,2320.31Zm-6,2.28a2.771,2.771,0,0,1-.163,1.05,0.63,0.63,0,0,1-.643.39,0.665,0.665,0,0,1-.543-0.26,1.311,1.311,0,0,1-.275-0.55l-1.168.5a2.16,2.16,0,0,0,.7,1.18,2.024,2.024,0,0,0,1.332.44,1.91,1.91,0,0,0,1.631-.69,3.159,3.159,0,0,0,.52-1.93v-5.87h-1.39v5.74h0Zm16.538-.95h1v2.14a1.058,1.058,0,0,1-.368.17,1.994,1.994,0,0,1-.508.06,1.235,1.235,0,0,1-.765-0.23,1.785,1.785,0,0,1-.531-0.65,3.565,3.565,0,0,1-.316-0.97,6.318,6.318,0,0,1-.105-1.18,6.178,6.178,0,0,1,.105-1.16,3.683,3.683,0,0,1,.316-0.97,2.009,2.009,0,0,1,.531-0.66,1.228,1.228,0,0,1,.754-0.24,1.444,1.444,0,0,1,1.263.68l0.806-.99a2.317,2.317,0,0,0-.876-0.74,2.951,2.951,0,0,0-1.274-.26,2.538,2.538,0,0,0-1.263.32,2.937,2.937,0,0,0-.958.9,4.4,4.4,0,0,0-.608,1.37,6.826,6.826,0,0,0-.21,1.75,6.724,6.724,0,0,0,.216,1.76,4.337,4.337,0,0,0,.62,1.37,2.852,2.852,0,0,0,.988.88,2.737,2.737,0,0,0,1.32.31,3.565,3.565,0,0,0,1.246-.19,2.98,2.98,0,0,0,.893-0.49v-4.19h-2.279S768.646,2321.64,768.646,2321.64Z" transform="translate(-744 -2299)"/>
</svg>
