<?xml version="1.0" encoding="utf-8"?>
<!-- Generator: Adobe Illustrator 21.1.0, SVG Export Plug-In . SVG Version: 6.00 Build 0)  -->
<svg version="1.1" id="Layer_1" xmlns="http://www.w3.org/2000/svg" xmlns:xlink="http://www.w3.org/1999/xlink" x="0px" y="0px"
	 viewBox="0 0 276 91" style="enable-background:new 0 0 276 91;" xml:space="preserve">
<style type="text/css">
	.st0{fill:#3D4599;}
	.st1{font-family:'NeoSansW1G-Medium';}
	.st2{font-size:12px;}
	.st3{fill:#2B3843;stroke:#2B3843;stroke-width:0.1;stroke-miterlimit:10;}
	.st4{font-family:'NeueHelvetica';}
	.st5{font-size:5px;}
	.st6{fill:#BE1E91;}
</style>
<text transform="matrix(1 0 0 1 115.481 44.4709)" class="st0 st1 st2">ON-TARH</text>
<text transform="matrix(1 0 0 1 116.6967 50.8459)" class="st3 st4 st5">یکیفارگ یاهلیاف گرزب رازاب</text>
<path class="st0" d="M183.2,31.4c7,0,12.8,5.8,12.8,12.8c0,7-6,13-13,12.9c-7-0.1-12.8-5.9-12.8-12.9
	C170.3,37.1,176.1,31.4,183.2,31.4z M179.7,33.4c-4.4,1-8.7,5.9-8.1,11.9c0.6,5.9,5.4,10.4,11.5,10.4c5.9,0.1,11.1-4.8,11.5-10.6
	c0.5-6-3.9-11-8.1-11.8c0.1,2.5,0.8,4.8,1.9,7c0.4,0.8,0.3,1.5-0.1,2.2c-1.3,2.4-2.6,4.9-3.8,7.4c-0.4,0.8-0.7,1.7-1.1,2.5
	c-0.2-3.4-0.2-6.7-0.2-10c0-0.6-0.1-1.2,0.5-1.7c0.2-0.1,0.1-0.9-0.1-1.1c-0.2-0.2-0.9-0.3-1.1-0.1c-0.2,0.2-0.4,1-0.2,1.1
	c0.8,0.6,0.6,1.5,0.6,2.2c0,2.9,0,5.8,0,8.7c0,0.3,0,0.5,0,0.8c-1.5-3.1-3-6.1-4.6-9.1c-0.7-1.3-0.9-2.3-0.2-3.7
	C179.2,37.7,179.7,35.6,179.7,33.4z"/>
<path class="st6" d="M186.7,35.2c2.8,0,6.4,4.8,6.4,8.7c0.1,5.5-3.9,10.1-9.6,10.4c-5.2,0.3-9.9-3.4-10.4-9.3
	c-0.4-4.5,2.7-8.9,6.3-9.7c-2.9,1.6-5.1,3.7-5.7,7.1c-0.7,3.4,0.2,6.4,2.6,8.7c4.2,4.1,10.2,3.8,14-0.3
	C193.8,46.9,194.4,39,186.7,35.2z"/>
</svg>
