<svg xmlns="http://www.w3.org/2000/svg" width="39" height="39" viewBox="0 0 39 39">
  <metadata><?xpacket begin="﻿" id="W5M0MpCehiHzreSzNTczkc9d"?>
<x:xmpmeta xmlns:x="adobe:ns:meta/" x:xmptk="Adobe XMP Core 5.6-c142 79.160924, 2017/07/13-01:06:39        ">
   <rdf:RDF xmlns:rdf="http://www.w3.org/1999/02/22-rdf-syntax-ns#">
      <rdf:Description rdf:about=""/>
   </rdf:RDF>
</x:xmpmeta>
                                                                                                    
                                                                                                    
                                                                                                    
                                                                                                    
                                                                                                    
                                                                                                    
                                                                                                    
                                                                                                    
                                                                                                    
                                                                                                    
                                                                                                    
                                                                                                    
                                                                                                    
                                                                                                    
                                                                                                    
                                                                                                    
                                                                                                    
                                                                                                    
                                                                                                    
                                                                                                    
                           
<?xpacket end="w"?></metadata>
<defs>
    <style>
      .cls-1 {
        fill: #0075ff;
        fill-rule: evenodd;
      }
    </style>
  </defs>
  <path id="Shape_42_copy_2" data-name="Shape 42 copy 2" class="cls-1" d="M1314.58,1055a1.14,1.14,0,1,0,0,2.28,17.152,17.152,0,0,1,17.13,17.14,1.145,1.145,0,1,0,2.29,0A19.414,19.414,0,0,0,1314.58,1055Zm0,4.57a1.14,1.14,0,1,0,0,2.28,12.577,12.577,0,0,1,12.56,12.57,1.145,1.145,0,1,0,2.29,0A14.865,14.865,0,0,0,1314.58,1059.57Zm0,4.57a1.14,1.14,0,1,0,0,2.28,8,8,0,0,1,7.99,8,1.145,1.145,0,1,0,2.29,0A10.29,10.29,0,0,0,1314.58,1064.14Zm0,4.57a1.145,1.145,0,1,0,0,2.29,3.418,3.418,0,0,1,3.42,3.42,1.145,1.145,0,1,0,2.29,0A5.715,5.715,0,0,0,1314.58,1068.71Zm16.52,15.22-4.82-5c-0.01,0-.01-0.01-0.02-0.01a3.428,3.428,0,0,0-4.85,0l-2.2,2.2a2.583,2.583,0,0,1-3.67,0h0l-7.67-7.48a2.6,2.6,0,0,1,0-3.67l2.21-2.21a3.446,3.446,0,0,0,0-4.85l-4.85-4.84a3.428,3.428,0,0,0-4.85,0l-1.61,1.61-0.15.15a12.355,12.355,0,0,0,0,17.48l13.25,13.07a12.349,12.349,0,0,0,17.46.01c0.03-.02,1.74-1.6,1.76-1.62A3.425,3.425,0,0,0,1331.1,1083.93Zm-29.1-24.25a1.147,1.147,0,0,1,1.61,0l4.85,4.85a1.141,1.141,0,0,1,0,1.62l-0.81.8-6.46-6.46Zm11.48,29.08-13.24-13.07a10.051,10.051,0,0,1-.63-13.55l6.44,6.44a4.889,4.889,0,0,0,.21,6.68l7.66,7.48a4.889,4.889,0,0,0,6.68.21l6.44,6.44A10.051,10.051,0,0,1,1313.48,1088.76Zm16.01-1.62-0.77.7-6.5-6.5,0.81-.81a1.147,1.147,0,0,1,1.61,0l4.84,5A1.156,1.156,0,0,1,1329.49,1087.14Z" transform="translate(-1295 -1055)"/>
</svg>
