<svg xmlns="http://www.w3.org/2000/svg" width="19" height="21" viewBox="0 0 19 21">
  <metadata><?xpacket begin="﻿" id="W5M0MpCehiHzreSzNTczkc9d"?>
<x:xmpmeta xmlns:x="adobe:ns:meta/" x:xmptk="Adobe XMP Core 5.6-c142 79.160924, 2017/07/13-01:06:39        ">
   <rdf:RDF xmlns:rdf="http://www.w3.org/1999/02/22-rdf-syntax-ns#">
      <rdf:Description rdf:about=""/>
   </rdf:RDF>
</x:xmpmeta>
                                                                                                    
                                                                                                    
                                                                                                    
                                                                                                    
                                                                                                    
                                                                                                    
                                                                                                    
                                                                                                    
                                                                                                    
                                                                                                    
                                                                                                    
                                                                                                    
                                                                                                    
                                                                                                    
                                                                                                    
                                                                                                    
                                                                                                    
                                                                                                    
                                                                                                    
                                                                                                    
                           
<?xpacket end="w"?></metadata>
<defs>
    <style>
      .cls-1 {
        fill: #a5bbce;
        fill-rule: evenodd;
      }
    </style>
  </defs>
  <path id="user_" data-name="user " class="cls-1" d="M1332,793.23a0.788,0.788,0,0,1-.81.769,0.8,0.8,0,0,1-.82-0.769c0-3.625-2.84-5.378-7.87-5.378s-7.87,1.753-7.87,5.378a0.8,0.8,0,0,1-.82.769,0.788,0.788,0,0,1-.81-0.769c0-4.645,3.67-6.914,9.5-6.914S1332,788.585,1332,793.23Zm-9.5-7.939c-3,0-5.16-3.137-5.16-6.4,0-3.159,2.13-5.89,5.16-5.89s5.16,2.731,5.16,5.89C1327.66,782.154,1325.5,785.291,1322.5,785.291Zm0-1.536c1.92,0,3.53-2.346,3.53-4.866,0-2.395-1.53-4.354-3.53-4.354s-3.53,1.959-3.53,4.354C1318.97,781.409,1320.58,783.755,1322.5,783.755Z" transform="translate(-1313 -773)"/>
</svg>
