<svg xmlns="http://www.w3.org/2000/svg" width="24" height="21" viewBox="0 0 24 21">
  <metadata><?xpacket begin="﻿" id="W5M0MpCehiHzreSzNTczkc9d"?>
<x:xmpmeta xmlns:x="adobe:ns:meta/" x:xmptk="Adobe XMP Core 5.6-c142 79.160924, 2017/07/13-01:06:39        ">
   <rdf:RDF xmlns:rdf="http://www.w3.org/1999/02/22-rdf-syntax-ns#">
      <rdf:Description rdf:about=""/>
   </rdf:RDF>
</x:xmpmeta>
                                                                                                    
                                                                                                    
                                                                                                    
                                                                                                    
                                                                                                    
                                                                                                    
                                                                                                    
                                                                                                    
                                                                                                    
                                                                                                    
                                                                                                    
                                                                                                    
                                                                                                    
                                                                                                    
                                                                                                    
                                                                                                    
                                                                                                    
                                                                                                    
                                                                                                    
                                                                                                    
                           
<?xpacket end="w"?></metadata>
<defs>
    <style>
      .cls-1 {
        fill: #a5bbce;
        fill-rule: evenodd;
      }
    </style>
  </defs>
  <path id="cm" class="cls-1" d="M1109.82,794h-11.9a11.174,11.174,0,0,1-7.8-3.208,10.312,10.312,0,0,1-3.12-7.35A10.652,10.652,0,0,1,1097.65,773h0.06a10.651,10.651,0,0,1,10.71,10.355,10.072,10.072,0,0,1-1.33,5.22l3.57,3.5a1.065,1.065,0,0,1,.23,1.225A1.194,1.194,0,0,1,1109.82,794Zm-12.11-19.541h-0.03a9.177,9.177,0,0,0-9.19,8.983,8.823,8.823,0,0,0,2.68,6.3,9.733,9.733,0,0,0,6.75,2.771h11.1l-3.81-3.734,0.33-.5a8.821,8.821,0,0,0,1.4-4.929A9.2,9.2,0,0,0,1097.71,774.458Zm3.84,6.416h-7.56a0.729,0.729,0,1,1,0-1.458h7.56A0.729,0.729,0,1,1,1101.55,780.874Zm0,3.383h-7.56a0.729,0.729,0,1,1,0-1.458h7.56A0.729,0.729,0,1,1,1101.55,784.257Zm0,3.413h-7.56a0.729,0.729,0,1,1,0-1.458h7.56A0.729,0.729,0,1,1,1101.55,787.67Z" transform="translate(-1087 -773)"/>
</svg>
