<svg xmlns="http://www.w3.org/2000/svg" width="24" height="19" viewBox="0 0 24 19">
  <metadata><?xpacket begin="﻿" id="W5M0MpCehiHzreSzNTczkc9d"?>
<x:xmpmeta xmlns:x="adobe:ns:meta/" x:xmptk="Adobe XMP Core 5.6-c142 79.160924, 2017/07/13-01:06:39        ">
   <rdf:RDF xmlns:rdf="http://www.w3.org/1999/02/22-rdf-syntax-ns#">
      <rdf:Description rdf:about=""/>
   </rdf:RDF>
</x:xmpmeta>
                                                                                                    
                                                                                                    
                                                                                                    
                                                                                                    
                                                                                                    
                                                                                                    
                                                                                                    
                                                                                                    
                                                                                                    
                                                                                                    
                                                                                                    
                                                                                                    
                                                                                                    
                                                                                                    
                                                                                                    
                                                                                                    
                                                                                                    
                                                                                                    
                                                                                                    
                                                                                                    
                           
<?xpacket end="w"?></metadata>
<defs>
    <style>
      .cls-1 {
        fill: #a5bbce;
        fill-rule: evenodd;
      }
    </style>
  </defs>
  <path id="folder" class="cls-1" d="M1208.81,777.124h-9.24a0.655,0.655,0,0,1-.5-0.248l-1.77-2.169a1.937,1.937,0,0,0-1.5-.681h-4.6a3.182,3.182,0,0,0-3.2,3.167v12.67a3.182,3.182,0,0,0,3.2,3.167h17.6a3.182,3.182,0,0,0,3.2-3.167v-9.572A3.18,3.18,0,0,0,1208.81,777.124Zm1.92,12.749a1.911,1.911,0,0,1-1.92,1.9h-17.6a1.911,1.911,0,0,1-1.92-1.9v-12.68a1.911,1.911,0,0,1,1.92-1.9h4.59a0.636,0.636,0,0,1,.5.234l1.79,2.161a1.918,1.918,0,0,0,1.49.7h9.23a1.911,1.911,0,0,1,1.92,1.9v9.582Z" transform="translate(-1188 -774.031)"/>
</svg>
