<svg xmlns="http://www.w3.org/2000/svg" width="21" height="21" viewBox="0 0 21 21">
  <metadata><?xpacket begin="﻿" id="W5M0MpCehiHzreSzNTczkc9d"?>
<x:xmpmeta xmlns:x="adobe:ns:meta/" x:xmptk="Adobe XMP Core 5.6-c142 79.160924, 2017/07/13-01:06:39        ">
   <rdf:RDF xmlns:rdf="http://www.w3.org/1999/02/22-rdf-syntax-ns#">
      <rdf:Description rdf:about=""/>
   </rdf:RDF>
</x:xmpmeta>
                                                                                                    
                                                                                                    
                                                                                                    
                                                                                                    
                                                                                                    
                                                                                                    
                                                                                                    
                                                                                                    
                                                                                                    
                                                                                                    
                                                                                                    
                                                                                                    
                                                                                                    
                                                                                                    
                                                                                                    
                                                                                                    
                                                                                                    
                                                                                                    
                                                                                                    
                                                                                                    
                           
<?xpacket end="w"?></metadata>
<defs>
    <style>
      .cls-1 {
        fill: #fff;
        fill-rule: evenodd;
      }
    </style>
  </defs>
  <path class="cls-1" d="M679.535,1472.51a0.727,0.727,0,0,0-.722-0.62H674.66v-1.7a3.178,3.178,0,1,0-6.356,0v1.7H664.15a0.727,0.727,0,0,0-.722.62l-2.419,14.64a0.712,0.712,0,0,0,.162.6,0.746,0.746,0,0,0,.56.25h19.52a0.729,0.729,0,0,0,.74-0.74,0.867,0.867,0,0,0-.036-0.23Zm-9.751-2.32a1.7,1.7,0,1,1,3.395,0v1.7h-3.395v-1.7Zm-7.186,16.35,2.184-13.16H668.3v4.14a0.74,0.74,0,0,0,1.48,0v-4.14h3.395v4.14a0.741,0.741,0,0,0,1.481,0v-4.14h3.521l2.185,13.16H662.6Z" transform="translate(-661 -1467)"/>
</svg>
