<svg xmlns="http://www.w3.org/2000/svg" width="23" height="22" viewBox="0 0 23 22">
  <metadata><?xpacket begin="﻿" id="W5M0MpCehiHzreSzNTczkc9d"?>
<x:xmpmeta xmlns:x="adobe:ns:meta/" x:xmptk="Adobe XMP Core 5.6-c142 79.160924, 2017/07/13-01:06:39        ">
   <rdf:RDF xmlns:rdf="http://www.w3.org/1999/02/22-rdf-syntax-ns#">
      <rdf:Description rdf:about=""/>
   </rdf:RDF>
</x:xmpmeta>
                                                                                                    
                                                                                                    
                                                                                                    
                                                                                                    
                                                                                                    
                                                                                                    
                                                                                                    
                                                                                                    
                                                                                                    
                                                                                                    
                                                                                                    
                                                                                                    
                                                                                                    
                                                                                                    
                                                                                                    
                                                                                                    
                                                                                                    
                                                                                                    
                                                                                                    
                                                                                                    
                           
<?xpacket end="w"?></metadata>
<defs>
    <style>
      .cls-1 {
        fill: #fff;
        fill-rule: evenodd;
      }
    </style>
  </defs>
  <path class="cls-1" d="M364.971,1484.33a2.835,2.835,0,1,0,2.826,2.84A2.833,2.833,0,0,0,364.971,1484.33Zm0,4.05a1.215,1.215,0,1,1,1.211-1.21A1.21,1.21,0,0,1,364.971,1488.38Zm9.044-4.05a2.835,2.835,0,1,0,2.827,2.84A2.834,2.834,0,0,0,374.015,1484.33Zm0,4.05a1.215,1.215,0,1,1,1.212-1.21A1.21,1.21,0,0,1,374.015,1488.38Zm5.805-14.83a0.8,0.8,0,0,0-.637-0.31h-3.876a0.81,0.81,0,0,0,0,1.62h2.844l-1.618,6.53H363.47l-1.4-6.53h2.822v-1.62h-3.17l-0.778-3.63a0.812,0.812,0,0,0-.789-0.64h-2.342a0.81,0.81,0,0,0,0,1.62h1.69l2.527,11.78a0.812,0.812,0,0,0,.79.64h14.347a0.813,0.813,0,0,0,.783-0.62l2.019-8.15A0.8,0.8,0,0,0,379.82,1473.55Zm-9.735-5.55a5.99,5.99,0,1,0,5.976,5.99A5.991,5.991,0,0,0,370.085,1468Zm0,10.37a4.375,4.375,0,1,1,4.361-4.38A4.378,4.378,0,0,1,370.085,1478.37Zm0-6.89a0.807,0.807,0,0,0-.807.81v3.4a0.808,0.808,0,1,0,1.615,0v-3.4A0.807,0.807,0,0,0,370.085,1471.48Zm1.669,1.7H368.39a0.81,0.81,0,0,0,0,1.62h3.364A0.81,0.81,0,0,0,371.754,1473.18Z" transform="translate(-357 -1468)"/>
</svg>
