<svg xmlns="http://www.w3.org/2000/svg" width="21" height="21" viewBox="0 0 21 21">
  <metadata><?xpacket begin="﻿" id="W5M0MpCehiHzreSzNTczkc9d"?>
<x:xmpmeta xmlns:x="adobe:ns:meta/" x:xmptk="Adobe XMP Core 5.6-c142 79.160924, 2017/07/13-01:06:39        ">
   <rdf:RDF xmlns:rdf="http://www.w3.org/1999/02/22-rdf-syntax-ns#">
      <rdf:Description rdf:about=""/>
   </rdf:RDF>
</x:xmpmeta>
                                                                                                    
                                                                                                    
                                                                                                    
                                                                                                    
                                                                                                    
                                                                                                    
                                                                                                    
                                                                                                    
                                                                                                    
                                                                                                    
                                                                                                    
                                                                                                    
                                                                                                    
                                                                                                    
                                                                                                    
                                                                                                    
                                                                                                    
                                                                                                    
                                                                                                    
                                                                                                    
                           
<?xpacket end="w"?></metadata>
<defs>
    <style>
      .cls-1 {
        fill: #fff;
        fill-rule: evenodd;
      }
    </style>
  </defs>
  <path class="cls-1" d="M968.189,1474.01h3.218v1.64h1.639v-1.64h4.919v1.64h1.64v-4.55a4.1,4.1,0,1,0-8.2,0v1.27h-4.653l-1.444,10.78,1.917-1.96Zm4.857-2.91a2.46,2.46,0,1,1,4.919,0v1.27h-4.919v-1.27Zm12.939,14.17a2.465,2.465,0,0,1-2.445,2.73H967.453l1.6-1.64H983.54a0.817,0.817,0,0,0,.816-0.9l-0.879-6.57h1.654l0.853,6.37v0.01Zm0.015-12.9v4.88h-1.64v-2.04l-8.577,8.59-3.292-3.3-6.317,6.51L965,1485.87l7.476-7.7,3.309,3.31,7.459-7.47h-2.161v-1.64H986Z" transform="translate(-965 -1467)"/>
</svg>
