<svg xmlns="http://www.w3.org/2000/svg" width="22" height="18" viewBox="0 0 22 18">
  <metadata><?xpacket begin="﻿" id="W5M0MpCehiHzreSzNTczkc9d"?>
<x:xmpmeta xmlns:x="adobe:ns:meta/" x:xmptk="Adobe XMP Core 5.6-c142 79.160924, 2017/07/13-01:06:39        ">
   <rdf:RDF xmlns:rdf="http://www.w3.org/1999/02/22-rdf-syntax-ns#">
      <rdf:Description rdf:about=""/>
   </rdf:RDF>
</x:xmpmeta>
                                                                                                    
                                                                                                    
                                                                                                    
                                                                                                    
                                                                                                    
                                                                                                    
                                                                                                    
                                                                                                    
                                                                                                    
                                                                                                    
                                                                                                    
                                                                                                    
                                                                                                    
                                                                                                    
                                                                                                    
                                                                                                    
                                                                                                    
                                                                                                    
                                                                                                    
                                                                                                    
                           
<?xpacket end="w"?></metadata>
<defs>
    <style>
      .cls-1 {
        fill: #fff;
        fill-rule: evenodd;
      }
    </style>
  </defs>
  <path class="cls-1" d="M1268.95,1474.17h1.25a1.9,1.9,0,0,0,.63-0.11l1.91,1.91a1.907,1.907,0,0,0-.12.68v1.26a1.953,1.953,0,0,0,1.94,1.96h1.26a1.953,1.953,0,0,0,1.94-1.96v-1.26a1.89,1.89,0,0,0-.1-0.63l1.95-1.95a2.065,2.065,0,0,0,.62.1h1.25a1.956,1.956,0,0,0,.64-0.11l1.85,1.86a1.941,1.941,0,0,0-.15.73v1.26a1.961,1.961,0,0,0,1.95,1.96h1.26a1.953,1.953,0,0,0,1.94-1.96v-1.26a1.95,1.95,0,0,0-1.94-1.95h-1.26a1.97,1.97,0,0,0-.65.11l-1.84-1.85a2.046,2.046,0,0,0,.15-0.75v-1.26a1.959,1.959,0,0,0-1.95-1.95h-1.25a1.953,1.953,0,0,0-1.95,1.95v1.26a1.77,1.77,0,0,0,.16.77l-1.86,1.87a1.944,1.944,0,0,0-.76-0.15h-1.26a2.08,2.08,0,0,0-.71.13l-1.85-1.86a1.909,1.909,0,0,0,.15-0.76v-1.26a1.953,1.953,0,0,0-1.95-1.95h-1.25a1.953,1.953,0,0,0-1.95,1.95v1.26A1.955,1.955,0,0,0,1268.95,1474.17Zm18.08,2.13a0.354,0.354,0,0,1,.35.35v1.26a0.356,0.356,0,0,1-.35.36h-1.26a0.356,0.356,0,0,1-.35-0.36v-1.26a0.354,0.354,0,0,1,.35-0.35h1.26Zm-7.16-5.35a0.356,0.356,0,0,1,.36-0.35h1.25a0.356,0.356,0,0,1,.36.35v1.26a0.359,0.359,0,0,1-.36.36h-1.25a0.359,0.359,0,0,1-.36-0.36v-1.26Zm-4.05,5.35a0.354,0.354,0,0,1,.35.35v1.26a0.356,0.356,0,0,1-.35.36h-1.26a0.356,0.356,0,0,1-.35-0.36v-1.26a0.354,0.354,0,0,1,.35-0.35h1.26Zm-7.23-5.35a0.356,0.356,0,0,1,.36-0.35h1.25a0.356,0.356,0,0,1,.36.35v1.26a0.359,0.359,0,0,1-.36.36h-1.25a0.359,0.359,0,0,1-.36-0.36v-1.26ZM1267.8,1487a0.794,0.794,0,0,0,.79-0.8v-9.69a0.794,0.794,0,0,0-.79-0.8,0.8,0.8,0,0,0-.8.8v9.69A0.8,0.8,0,0,0,1267.8,1487Zm2.12-8.36v7.56a0.8,0.8,0,1,0,1.59,0v-7.56A0.8,0.8,0,1,0,1269.92,1478.64Zm2.92,3.19v4.37a0.794,0.794,0,0,0,.79.8,0.8,0.8,0,0,0,.8-0.8v-4.37a0.8,0.8,0,0,0-.8-0.8A0.794,0.794,0,0,0,1272.84,1481.83Zm3.7-.8a0.794,0.794,0,0,0-.79.8v4.37a0.794,0.794,0,0,0,.79.8,0.8,0.8,0,0,0,.8-0.8v-4.37A0.8,0.8,0,0,0,1276.54,1481.03Zm2.92-3.19a0.794,0.794,0,0,0-.79.8v7.56a0.794,0.794,0,0,0,.79.8,0.8,0.8,0,0,0,.8-0.8v-7.56A0.8,0.8,0,0,0,1279.46,1477.84Zm2.13,2.4v5.96a0.794,0.794,0,0,0,.79.8,0.8,0.8,0,0,0,.8-0.8v-5.96a0.8,0.8,0,0,0-.8-0.8A0.794,0.794,0,0,0,1281.59,1480.24Zm2.91,1.59v4.37a0.8,0.8,0,1,0,1.59,0v-4.37A0.8,0.8,0,1,0,1284.5,1481.83Zm3.71-.8a0.8,0.8,0,0,0-.8.8v4.37a0.8,0.8,0,0,0,.8.8,0.794,0.794,0,0,0,.79-0.8v-4.37A0.794,0.794,0,0,0,1288.21,1481.03Z" transform="translate(-1267 -1469)"/>
</svg>
