<svg xmlns="http://www.w3.org/2000/svg" width="16" height="16" viewBox="0 0 16 16">
  <metadata><?xpacket begin="﻿" id="W5M0MpCehiHzreSzNTczkc9d"?>
<x:xmpmeta xmlns:x="adobe:ns:meta/" x:xmptk="Adobe XMP Core 5.6-c142 79.160924, 2017/07/13-01:06:39        ">
   <rdf:RDF xmlns:rdf="http://www.w3.org/1999/02/22-rdf-syntax-ns#">
      <rdf:Description rdf:about=""/>
   </rdf:RDF>
</x:xmpmeta>
                                                                                                    
                                                                                                    
                                                                                                    
                                                                                                    
                                                                                                    
                                                                                                    
                                                                                                    
                                                                                                    
                                                                                                    
                                                                                                    
                                                                                                    
                                                                                                    
                                                                                                    
                                                                                                    
                                                                                                    
                                                                                                    
                                                                                                    
                                                                                                    
                                                                                                    
                                                                                                    
                           
<?xpacket end="w"?></metadata>
<defs>
    <style>
      .cls-n4 {
        fill: #c9d4eb;
        fill-rule: evenodd;
        opacity: 0.5;
      }
    </style>
  </defs>
  <path id="Social" class="cls-n4" d="M165,4715.32v9.36a3.324,3.324,0,0,0,3.324,3.32h9.352a3.324,3.324,0,0,0,3.324-3.32v-9.36a3.324,3.324,0,0,0-3.324-3.32h-9.352A3.324,3.324,0,0,0,165,4715.32Zm9.695,9.21a4.853,4.853,0,0,1-6.228-6.23,4.578,4.578,0,0,1,2.838-2.83,4.847,4.847,0,0,1,6.228,6.22A4.593,4.593,0,0,1,174.7,4724.53Zm3.857-9.37a0.624,0.624,0,0,1-.616.52,0.638,0.638,0,0,1-.48-0.22c-0.012-.02-0.023-0.03-0.033-0.05a0.621,0.621,0,0,1,.353-0.95,0.643,0.643,0,0,1,.471.06,0.634,0.634,0,0,1,.311.59A0.426,0.426,0,0,1,178.552,4715.16Zm-5.552.95a3.89,3.89,0,1,0,3.887,3.89A3.9,3.9,0,0,0,173,4716.11Z" transform="translate(-165 -4712)"/>
</svg>
