<svg xmlns="http://www.w3.org/2000/svg" width="18" height="14" viewBox="0 0 18 14">
  <metadata><?xpacket begin="﻿" id="W5M0MpCehiHzreSzNTczkc9d"?>
<x:xmpmeta xmlns:x="adobe:ns:meta/" x:xmptk="Adobe XMP Core 5.6-c142 79.160924, 2017/07/13-01:06:39        ">
   <rdf:RDF xmlns:rdf="http://www.w3.org/1999/02/22-rdf-syntax-ns#">
      <rdf:Description rdf:about=""/>
   </rdf:RDF>
</x:xmpmeta>
                                                                                                    
                                                                                                    
                                                                                                    
                                                                                                    
                                                                                                    
                                                                                                    
                                                                                                    
                                                                                                    
                                                                                                    
                                                                                                    
                                                                                                    
                                                                                                    
                                                                                                    
                                                                                                    
                                                                                                    
                                                                                                    
                                                                                                    
                                                                                                    
                                                                                                    
                                                                                                    
                           
<?xpacket end="w"?></metadata>
<defs>
    <style>
      .cls-n2 {
        fill: #c9d4eb;
        fill-rule: evenodd;
        opacity: 0.5;
      }
    </style>
  </defs>
  <path id="Social" class="cls-n2" d="M233.715,4727a16.241,16.241,0,0,1-2.385-.18,11.549,11.549,0,0,1-3.264-1.13l-1.066-.55,1.155-.36c1.262-.4,2.03-0.64,2.98-1.03a3.8,3.8,0,0,1-2.038-2.24l-0.269-.78,0.22,0.04a4.149,4.149,0,0,1-.5-0.59,3.485,3.485,0,0,1-.644-2.15l0.05-.67,0.426,0.15a3.609,3.609,0,0,1-.386-1.02,3.753,3.753,0,0,1,.439-2.64l0.371-.65,0.5,0.57a9.27,9.27,0,0,0,5.918,3.17,3.23,3.23,0,0,1,.215-1.79,3.369,3.369,0,0,1,1.432-1.56,4.462,4.462,0,0,1,2.5-.58,4.033,4.033,0,0,1,2.45.96,7.727,7.727,0,0,0,.9-0.29c0.2-.07.42-0.15,0.7-0.24l1.028-.34-0.671,1.82H243.9l1.1-.05-0.649.84c-0.037.05-.047,0.06-0.06,0.08-0.052.08-.117,0.17-1.008,1.3a1.531,1.531,0,0,0-.314,1.04,9.368,9.368,0,0,1-.564,3.95,6.96,6.96,0,0,1-1.974,2.78,8.983,8.983,0,0,1-4.134,1.9A13.4,13.4,0,0,1,233.715,4727Z" transform="translate(-227 -4713)"/>
</svg>
