<svg xmlns="http://www.w3.org/2000/svg" width="16" height="16" viewBox="0 0 16 16">
  <metadata><?xpacket begin="﻿" id="W5M0MpCehiHzreSzNTczkc9d"?>
<x:xmpmeta xmlns:x="adobe:ns:meta/" x:xmptk="Adobe XMP Core 5.6-c142 79.160924, 2017/07/13-01:06:39        ">
   <rdf:RDF xmlns:rdf="http://www.w3.org/1999/02/22-rdf-syntax-ns#">
      <rdf:Description rdf:about=""/>
   </rdf:RDF>
</x:xmpmeta>
                                                                                                    
                                                                                                    
                                                                                                    
                                                                                                    
                                                                                                    
                                                                                                    
                                                                                                    
                                                                                                    
                                                                                                    
                                                                                                    
                                                                                                    
                                                                                                    
                                                                                                    
                                                                                                    
                                                                                                    
                                                                                                    
                                                                                                    
                                                                                                    
                                                                                                    
                                                                                                    
                           
<?xpacket end="w"?></metadata>
<defs>
    <style>
      .cls-n1 {
        fill: #c9d4eb;
        fill-rule: evenodd;
        opacity: 0.5;
      }
    </style>
  </defs>
  <path id="Social" class="cls-n1" d="M268,4712a8,8,0,0,0-6.868,12.1L260,4728l3.9-1.13A8,8,0,1,0,268,4712Zm5,11.38-0.373.37a3.161,3.161,0,0,1-2.515.34,9.152,9.152,0,0,1-6.186-5.96,3.29,3.29,0,0,1,.287-2.76l0.372-.37a0.518,0.518,0,0,1,.744,0l1.489,1.49a0.521,0.521,0,0,1,0,.74l-0.372.37a1.056,1.056,0,0,0,0,1.49l2.459,2.43a1.055,1.055,0,0,0,1.489,0l0.372-.37a0.538,0.538,0,0,1,.745,0l1.489,1.49A0.52,0.52,0,0,1,273,4723.38Z" transform="translate(-260 -4712)"/>
</svg>
