<?xml version="1.0" encoding="utf-8"?>
<!-- Generator: Adobe Illustrator 21.1.0, SVG Export Plug-In . SVG Version: 6.00 Build 0)  -->
<svg version="1.1" id="Layer_1" xmlns="http://www.w3.org/2000/svg" xmlns:xlink="http://www.w3.org/1999/xlink" x="0px" y="0px"
	 viewBox="0 0 50 50" style="enable-background:new 0 0 50 50;" xml:space="preserve">
<style type="text/css">
	.st0{fill:#FFD400;}
	.st1{fill:#FDBA12;}
	.st2{fill:#4A7AFF;}
	.st3{fill:#0053BF;}
	.st4{fill:#FFFFFF;}
	.st5{fill:#DCE1EB;}
</style>
<path class="st0" d="M49,25c0,13.3-10.7,24-24,24S1,38.3,1,25S11.7,1,25,1S49,11.7,49,25z"/>
<path class="st1" d="M49,25c0-0.5,0-1,0-1.5L37.7,12.3L12.3,37.7L23.5,49c0.5,0,1,0,1.5,0C38.3,49,49,38.3,49,25z"/>
<path class="st2" d="M43,25c0,9.9-8.1,18-18,18S7,34.9,7,25S15.1,7,25,7S43,15.1,43,25z"/>
<path class="st3" d="M43,25c0-9.9-8-18-18-18v36C34.9,43,43,34.9,43,25z"/>
<path class="st4" d="M37.1,21.5v-4.3h-4.3v-4.3h-4.3v4.3h-7v-4.3h-4.3v4.3h-4.3v4.3h4.3v7h-4.3v4.3h4.3v4.3h4.3v-4.3h7v4.3h4.3v-4.3
	h4.3v-4.3h-4.3v-7H37.1z M28.5,28.5h-7v-7h7V28.5z"/>
<path class="st5" d="M37.1,21.5v-4.3h-4.3v-4.3h-4.3v4.3H25v4.3h3.5v7H25v4.3h3.5v4.3h4.3v-4.3h4.3v-4.3h-4.3v-7H37.1z"/>
</svg>
