<svg xmlns="http://www.w3.org/2000/svg" width="40" height="40" viewBox="0 0 40 40">
  <metadata><?xpacket begin="﻿" id="W5M0MpCehiHzreSzNTczkc9d"?>
<x:xmpmeta xmlns:x="adobe:ns:meta/" x:xmptk="Adobe XMP Core 5.6-c142 79.160924, 2017/07/13-01:06:39        ">
   <rdf:RDF xmlns:rdf="http://www.w3.org/1999/02/22-rdf-syntax-ns#">
      <rdf:Description rdf:about=""/>
   </rdf:RDF>
</x:xmpmeta>
                                                                                                    
                                                                                                    
                                                                                                    
                                                                                                    
                                                                                                    
                                                                                                    
                                                                                                    
                                                                                                    
                                                                                                    
                                                                                                    
                                                                                                    
                                                                                                    
                                                                                                    
                                                                                                    
                                                                                                    
                                                                                                    
                                                                                                    
                                                                                                    
                                                                                                    
                                                                                                    
                           
<?xpacket end="w"?></metadata>
<defs>
    <style>
      .cls-1 {
        fill: #a5bbce;
        fill-rule: evenodd;
      }
    </style>
  </defs>
  <path id="upload_copy" data-name="upload copy" class="cls-1" d="M756.833,2373.6L751,2367.77l-5.834,5.83-1.178-1.17,6.422-6.43h1.18l6.422,6.43Zm-6.667-5.95h1.667v20.01h-1.667v-20.01ZM766.84,2406H735.16a4.167,4.167,0,0,1-4.16-4.16v-10.73a5.037,5.037,0,0,1,.492-2.17l3.806-7.92a2.363,2.363,0,0,1,2.292-1.7H741v1.67h-3.41a0.675,0.675,0,0,0-.688.48l-0.064.19-3.843,8a3.38,3.38,0,0,0-.329,1.45v10.73a2.5,2.5,0,0,0,2.494,2.49h31.68a2.5,2.5,0,0,0,2.493-2.49v-10.73a3.379,3.379,0,0,0-.328-1.45l-3.907-8.19a0.675,0.675,0,0,0-.688-0.48H761v-1.67h3.413a2.364,2.364,0,0,1,2.293,1.7l3.805,7.92a5.066,5.066,0,0,1,.492,2.17v10.73A4.168,4.168,0,0,1,766.84,2406Zm-10.522-10.01H745.681a2.641,2.641,0,0,1-1.948-.86l-3.5-3.82a0.991,0.991,0,0,0-.72-0.32h-7.68v-1.67h7.68a2.644,2.644,0,0,1,1.948.87l3.5,3.82a0.991,0.991,0,0,0,.719.32H756.32a0.99,0.99,0,0,0,.718-0.32l3.5-3.82a2.642,2.642,0,0,1,1.946-.87h7.678v1.67h-7.679a0.993,0.993,0,0,0-.719.32l-3.5,3.82A2.627,2.627,0,0,1,756.318,2395.99Z" transform="translate(-731 -2366)"/>
</svg>
