<?xml version="1.0" encoding="utf-8"?>
<!-- Generator: Adobe Illustrator 21.1.0, SVG Export Plug-In . SVG Version: 6.00 Build 0)  -->
<svg version="1.1" id="Layer_1" xmlns="http://www.w3.org/2000/svg" xmlns:xlink="http://www.w3.org/1999/xlink" x="0px" y="0px"
	 viewBox="0 0 200 100" style="enable-background:new 0 0 200 100;width:50px;height:50px;" xml:space="preserve">
<path d="M614.8,1185.3c-7,2-13.9,3.4-21.1,1.7c-15.2-3.5-24.9-13-29.8-27.6c-1.6-4.6-1.9-9.5-1.8-14.3c0-0.9,0.3-1.9,0.1-2.7
	c-0.1-0.6-0.7-1.2-1.2-1.7c-2.5-2.2-5.2-4.1-7.5-6.5c-7.1-7.6-10.8-16.7-11.1-27.1c-0.3-9.6,2.5-18.2,7.7-26.1
	c3.4-5.1,7.9-8.8,13.3-11.6c0.9-0.5,0.7-1.1,0.6-1.8c-0.6-2.9-1.3-5.8-1.7-8.8c-0.6-4.5-0.2-8.9,0.7-13.3c1.8-8.6,6-16,12.4-22.1
	c4.5-4.3,9.9-7.2,16-8.8c6-1.7,12.1-1.6,18.2-0.4c1.5,0.3,2.9,0.9,4.3,1.4c0.7,0.3,1.2,0.2,1.5-0.6c2.8-6.1,7.3-11,12.6-14.9
	c6.2-4.5,13.1-6.9,20.8-7.1c7.4-0.2,14.2,1.4,20.6,5.1c5.2,3,9.2,7.1,12.5,12c1.1,1.6,2,3.2,2.9,4.8c0.4,0.7,0.8,0.9,1.7,0.6
	c6.4-2.3,12.9-2.9,19.6-1.5c14.4,3,23.8,11.9,29.3,25.2c2.7,6.5,3.6,13.2,2.5,20.2c-0.5,2.9-1.3,5.8-1.9,8.7
	c-0.1,0.4,0.2,1.1,0.4,1.2c6,2.8,10.6,7.3,14.3,12.6c6,8.6,7.9,18.3,6.8,28.7c-0.6,5.5-2.1,10.8-4.8,15.6c-3.1,5.5-7,10.3-12.4,13.7
	c-2.1,1.3-2.4,2.5-2.1,4.9c0.4,2.7,0,5.6-0.4,8.4c-1,6.4-3.3,12.3-7,17.5c-4.7,6.6-10.8,11.5-18.3,14.6c-4.3,1.8-8.8,2.6-13.5,2.5
	c-4.3,0-8.4-0.9-12.5-2.2c-1.1-0.3-1.4-0.1-1.9,0.8c-3.5,6.6-8.1,12.2-14.5,16.2c-8.1,5-16.9,6.8-26.3,5.3
	c-7.9-1.3-14.5-5.1-20.3-10.5c-3.5-3.3-6.4-7-8.3-11.4C615.1,1185.7,615,1185.5,614.8,1185.3z M607.4,1094.3c-3.2-0.1-6,1.1-8.1,3.3
	c-4.5,4.8-4.1,11.7,0.6,16.2c7.1,6.8,14,14,21,20.9c2.2,2.2,4.3,4.4,6.8,6.1c2.7,1.9,5.9,2.1,9.1,0.9c2.7-1,4.7-3,6.7-5
	c12.3-12.4,24.7-24.8,37-37.2c6.8-6.8,13.7-13.5,20.3-20.4c2.2-2.3,3.5-5.3,3.1-8.7c-0.4-4.5-4.1-9-8.9-9.8
	c-3.5-0.6-6.8-0.1-9.5,2.6c-5.9,5.9-11.7,11.8-17.6,17.7c-11.3,11.3-22.7,22.6-34,33.8c-0.7,0.7-1.1,0.8-1.8,0
	c-5.3-5.4-10.6-10.8-16-16.2C613.7,1096.2,611,1094.3,607.4,1094.3z"/>
</svg>
